<svg width="60" height="60" viewBox="0 0 60 60" fill="none" xmlns="http://www.w3.org/2000/svg">
<path d="M0 30C0.317409 24.9215 0.476114 22.3822 0.981317 20.2384C3.28661 10.4562 11.0233 2.87858 20.8513 0.777012C23.0051 0.316454 25.5367 0.210969 30.6 0C34.7046 0.171023 36.7568 0.256535 38.4909 0.566612C49.4008 2.51744 57.8748 11.1696 59.5981 22.1177C59.872 23.8579 59.9147 25.9053 60 30C59.9147 34.0947 59.872 36.1421 59.5981 37.8823C57.8748 48.8304 49.4008 57.4826 38.4909 59.4334C36.7568 59.7435 34.7046 59.829 30.6 60C25.5367 59.789 23.0051 59.6835 20.8513 59.223C11.0233 57.1214 3.28661 49.5438 0.981317 39.7616C0.476114 37.6178 0.317409 35.0785 0 30Z" fill="#E94267"/>
</svg>
