<svg width="64" height="65" viewBox="0 0 64 65" fill="none" xmlns="http://www.w3.org/2000/svg">
<path d="M0 32.696C0.750965 20.6806 1.12645 14.6729 4.03169 10.242C5.61279 7.83061 7.69662 5.78964 10.1403 4.25897C14.6306 1.44641 20.6337 1.19628 32.64 0.696014V0.696014V0.696014C43.8601 1.16352 49.4702 1.39727 53.7083 3.82877C56.9082 5.66458 59.538 8.34966 61.3068 11.587C63.6496 15.8749 63.7664 21.4819 64 32.696V32.696V32.696C63.7664 43.9101 63.6496 49.5171 61.3068 53.805C59.538 57.0424 56.9082 59.7274 53.7083 61.5633C49.4702 63.9948 43.8601 64.2285 32.64 64.696V64.696V64.696C20.6337 64.1958 14.6306 63.9456 10.1403 61.1331C7.69662 59.6024 5.61279 57.5614 4.03169 55.15C1.12645 50.7192 0.750965 44.7115 0 32.696V32.696V32.696Z" fill="#C4C4C4"/>
</svg>
