<svg width="200" height="200" viewBox="0 0 200 200" fill="none" xmlns="http://www.w3.org/2000/svg">
<path d="M0 100C0.564822 84.5643 0.847233 76.8464 2.116 70.2981C8.76459 35.9837 35.52 9.1065 69.8039 2.30217C76.3464 1.00368 84.0629 0.686232 99.4959 0.0513301L100.744 0L102.034 0.0530942C116.241 0.637539 123.344 0.929761 129.358 2.04337C164.996 8.64301 192.672 36.8784 198.557 72.6422C199.55 78.6769 199.7 85.7846 200 100C199.7 114.215 199.55 121.323 198.557 127.358C192.672 163.122 164.996 191.357 129.358 197.957C123.344 199.07 116.241 199.362 102.034 199.947L100.744 200L99.4959 199.949C84.0629 199.314 76.3464 198.996 69.8039 197.698C35.52 190.893 8.76459 164.016 2.116 129.702C0.847233 123.154 0.564822 115.436 0 100Z" fill="#00AB97"/>
</svg>
