<svg width="48" height="48" viewBox="0 0 48 48" fill="none" xmlns="http://www.w3.org/2000/svg">
<path d="M1.47069 32.9624C0.944697 31.0435 0.797414 28.7428 0.500976 24C0.797414 19.2572 0.944697 16.9565 1.47069 15.0376C3.32951 8.25616 8.69533 3.00068 15.5139 1.28314C17.4448 0.796769 19.7418 0.697869 24.48 0.500434C28.4728 0.666809 30.4094 0.749807 32.0287 1.09921C39.6583 2.74553 45.5713 8.7828 47.0584 16.4451C47.3743 18.0727 47.4167 20.0076 47.4999 24C47.4167 27.9924 47.3743 29.9273 47.0584 31.555C45.5713 39.2172 39.6583 45.2545 32.0287 46.9008C30.4094 47.2502 28.4728 47.3332 24.48 47.4996C19.7418 47.3021 17.4448 47.2032 15.5139 46.7169C8.69533 44.9993 3.32951 39.7438 1.47069 32.9624Z" stroke="#00AB97"/>
</svg>
