<svg width="133" height="20" viewBox="0 0 133 20" fill="none" xmlns="http://www.w3.org/2000/svg">
<path d="M36.303 16.897L36.3047 16.8965L35.7172 19.885H21.1483C21.1483 19.885 21.5009 17.931 21.6183 17.1264C21.7358 16.4367 21.7358 15.977 21.7358 14.5977V4.94251C21.7358 4.59854 21.7065 4.25457 21.6773 3.91059L21.6771 3.90807L21.6769 3.90533C21.6476 3.56136 21.6183 3.21746 21.6183 2.87356C21.6183 2.82817 21.6163 2.78481 21.6127 2.74314C21.6079 2.68653 21.6004 2.63307 21.5914 2.5822C21.588 2.56284 21.5843 2.54383 21.5806 2.5251C21.5711 2.47816 21.5609 2.43334 21.5509 2.39005L21.5392 2.33912C21.5326 2.30979 21.5264 2.2811 21.521 2.25276C21.5152 2.22238 21.5103 2.19249 21.5068 2.16289C21.5052 2.14949 21.5039 2.13616 21.5029 2.12283C21.5016 2.10487 21.5009 2.08691 21.5009 2.06895C21.4914 1.99486 21.4819 1.92225 21.4724 1.85112C21.463 1.78117 21.4535 1.7127 21.444 1.64563C21.2251 2.0707 20.9945 2.53927 20.7437 3.04867L20.5428 3.45627C20.3301 3.88737 20.1026 4.34493 19.856 4.82752C19.6041 5.3205 19.3858 5.78044 19.1833 6.20727L19.1827 6.20832C19.1246 6.33088 19.0678 6.45064 19.0119 6.56772C18.8994 6.80331 18.7902 7.02787 18.6811 7.24136L14.0989 17.8161L14.9213 19.77H8.92927L3.52472 7.01146C3.36086 6.64511 3.20167 6.28332 3.04534 5.92791C2.41679 4.49913 1.8335 3.17347 1.17491 2.06895C0.704916 1.26434 0.352458 0.689626 0 0.114914H7.51944C7.51944 0.114914 7.51944 0.344813 7.6369 0.689626C7.8719 1.83905 8.22436 3.21837 8.81181 4.71261C9.04681 5.51722 9.39926 6.43674 9.75172 7.35627L12.924 15.0574L16.0963 7.01146C16.5662 5.74712 17.1536 4.1379 17.7411 2.41376L18.5635 0.114914H21.0852C21.0678 0.0751363 21.0497 0.0368315 21.0309 0H35.4822L36.1872 2.98847C36.0421 2.9682 35.9079 2.94792 35.7737 2.92765C35.1476 2.83301 34.5215 2.73837 32.78 2.64366C32.5921 2.64366 32.3714 2.64071 32.1266 2.6358C31.8466 2.63019 31.5353 2.62191 31.2063 2.61251L30.5143 2.59189C29.5046 2.56137 28.4241 2.52875 27.6103 2.52875V8.27586C29.6077 8.27586 31.3701 8.16088 32.78 8.04597C33.111 8.04597 33.4047 8.00949 33.6611 7.97763C33.8598 7.95294 34.036 7.93105 34.1899 7.93105H34.7773L33.9549 10.9195C33.2991 10.8661 32.8213 10.8127 32.344 10.7593L32.3391 10.7587C31.7919 10.6973 31.2447 10.636 30.4301 10.5747C30.1936 10.5747 29.8998 10.5561 29.549 10.5338C29.0286 10.5008 28.3823 10.4597 27.6103 10.4597V17.4713C29.7238 17.4713 31.9545 17.3564 34.1853 17.2416L34.1899 17.2414C35.1288 17.1266 35.7161 17.0117 36.303 16.897Z" fill="#002337"/>
<path fill-rule="evenodd" clip-rule="evenodd" d="M52.1659 10.1149C52.2834 10.1149 52.2834 10.1149 52.4009 9.99993C53.2233 9.65512 54.0458 9.19539 54.7507 8.62068C55.5731 7.81607 56.0431 6.89654 56.0431 5.74712C56.0431 4.59769 55.8081 3.56319 55.4557 2.87356C54.9857 2.06895 54.3982 1.49424 53.5758 1.14942C52.8709 0.80454 51.9309 0.459727 50.991 0.344813C49.9336 0.229829 48.7587 0.114914 47.4663 0.114914H37.5971C37.8321 0.574712 37.9495 1.26434 38.067 2.18386C38.302 3.79308 38.302 5.28732 38.302 6.66664V14.7126C38.302 16.0919 38.302 16.5517 38.1845 17.2414C38.067 18.0459 37.7145 19.9999 37.7145 19.9999H44.8815C44.764 19.5402 44.6465 18.8505 44.529 17.8161C44.294 16.2068 44.294 14.8275 44.294 13.3333V11.0344H45.8214C47.2313 11.0344 48.2887 11.4942 48.9937 12.9885L49.9336 14.8275L52.4009 19.885H58.7454L52.1659 10.1149ZM46.0564 2.29885C47.5838 2.29885 48.6412 2.64366 49.3461 3.21837C49.9336 3.79308 50.1686 4.59769 50.1686 5.74712C50.1686 6.89654 49.6986 7.81607 48.8761 8.39078C48.1712 8.73559 47.3488 9.08041 46.1739 9.19539C46.0798 9.19539 45.9773 9.2036 45.8687 9.21559C45.7885 9.22443 45.705 9.23538 45.619 9.24667C45.3852 9.27726 45.1333 9.3103 44.8815 9.3103H44.1765V2.29885H46.0564Z" fill="#002337"/>
<path d="M68.8496 2.41376C69.4302 2.41559 70.5051 2.42941 71.3169 2.52868C72.3739 2.64359 73.4321 2.75872 74.4892 3.10339L73.7842 0.114914H57.688L56.983 3.10339C58.0402 2.75865 59.0973 2.64366 60.1544 2.52868C60.9769 2.41376 62.2701 2.41376 62.8576 2.41376V13.2184C62.8576 14.8275 62.8576 15.747 62.7401 17.0115C62.6582 17.5719 62.5194 18.3554 62.4029 19.0123L62.401 19.0234L62.39 19.0849L62.38 19.1417C62.3384 19.3774 62.3003 19.5927 62.2701 19.77H69.437C69.4229 19.687 69.4071 19.5956 69.3899 19.4978C69.3639 19.3492 69.3349 19.1857 69.3044 19.0134C69.1879 18.3563 69.049 17.5722 68.9671 17.0115C68.8496 15.747 68.8496 14.8275 68.8496 13.2184V2.41376Z" fill="#002337"/>
<path d="M91.1711 16.897L91.1728 16.8965L90.4679 20H75.899C75.899 20 76.2515 18.046 76.369 17.2414C76.4865 16.5517 76.4865 16.0919 76.4865 14.7126V5.05749C76.4865 4.71261 76.4571 4.3678 76.4277 4.02298C76.4175 3.90225 76.4072 3.78151 76.3981 3.6607C76.3814 3.43663 76.369 3.21255 76.369 2.98847V2.06895C76.2515 1.14942 76.134 0.459798 75.899 0H90.3504L91.0554 2.98847C90.9102 2.9682 90.7761 2.94792 90.6419 2.92765C90.0158 2.83301 89.3897 2.73837 87.6481 2.64366C87.0992 2.64366 86.268 2.61862 85.3825 2.59189C84.3727 2.56137 83.2923 2.52875 82.4785 2.52875V8.27586C84.4758 8.27586 86.2382 8.16088 87.6481 8.04597C87.9791 8.04597 88.2728 8.00949 88.5293 7.97763C88.7279 7.95294 88.9042 7.93105 89.058 7.93105H89.6455L88.823 10.9195C88.1673 10.8661 87.6894 10.8127 87.2122 10.7593L87.2072 10.7587C87.0368 10.7396 86.8663 10.7205 86.6878 10.7014C86.5847 10.6904 86.4789 10.6794 86.3689 10.6684C86.0578 10.6372 85.7126 10.6059 85.2983 10.5747C85.0617 10.5747 84.768 10.5561 84.4171 10.5338C83.8967 10.5008 83.2504 10.4597 82.4785 10.4597V17.4713C84.5919 17.4713 86.8226 17.3564 89.0535 17.2416L89.058 17.2414C89.997 17.1266 90.5842 17.0117 91.1711 16.897Z" fill="#002337"/>
<path fill-rule="evenodd" clip-rule="evenodd" d="M107.152 10.1149C107.198 10.1149 107.227 10.1149 107.251 10.1076C107.274 10.1007 107.294 10.0872 107.323 10.0608C107.34 10.0454 107.36 10.0255 107.387 9.99993C108.209 9.65512 109.032 9.19539 109.736 8.62068C110.559 7.81607 111.029 6.89654 111.029 5.74712C111.029 4.59769 110.794 3.56319 110.441 2.87356C109.971 2.06895 109.384 1.49424 108.562 1.14942C107.857 0.80454 106.917 0.459727 105.977 0.344813C104.919 0.229829 103.744 0.114914 102.452 0.114914H92.7003C92.9353 0.574712 93.0527 1.26434 93.1703 2.18386C93.4052 3.79308 93.4052 5.28732 93.4052 6.66664V14.7126C93.4052 16.0919 93.4052 16.5517 93.2877 17.2414C93.1703 18.0459 92.8177 19.9999 92.8177 19.9999H99.8672C99.7497 19.5402 99.6322 18.8505 99.5147 17.8161C99.2797 16.2068 99.2797 14.8275 99.2797 13.3333V11.0344H100.807C102.217 11.0344 103.274 11.4942 103.979 12.9885L104.919 14.8275L107.387 19.885H113.731L113.654 19.7701H114.201L115.023 17.4713C115.22 16.8955 115.416 16.3598 115.603 15.8474C115.865 15.1323 116.111 14.4627 116.316 13.7931C116.376 13.8099 116.443 13.8284 116.518 13.8489C117.462 14.1093 119.508 14.6732 121.25 15.6322C124.07 17.2414 125.128 19.5402 125.128 19.5402V19.6552H132.647C132.53 19.3103 132.177 18.6207 131.707 17.9311C131.048 16.8264 130.465 15.5006 129.837 14.0717C129.68 13.7164 129.521 13.3547 129.357 12.9885L123.953 0.229899H117.961L118.783 2.18393L114.201 12.6437C114.037 12.9636 113.874 13.3083 113.699 13.6777C113.496 14.1046 113.278 14.5645 113.026 15.0575C112.7 15.6953 112.408 16.2893 112.138 16.8363C112.072 16.9708 112.007 17.1024 111.944 17.231L107.152 10.1149ZM99.2797 2.29885H101.042C102.57 2.29885 103.627 2.64366 104.332 3.21837C104.919 3.79308 105.154 4.59769 105.154 5.74712C105.154 6.89654 104.684 7.81607 103.862 8.39078C103.157 8.85051 102.335 9.19539 101.277 9.3103C101.114 9.3103 100.925 9.33507 100.722 9.36159C100.488 9.39218 100.237 9.42522 99.9847 9.42522H99.2797V2.29885ZM123.013 12.6437L119.841 4.94251L117.138 11.8391C117.332 11.8934 117.632 11.9861 118.011 12.1037C119.237 12.484 121.301 13.1242 123.365 13.5632C123.248 13.2184 123.13 12.9885 123.013 12.6437Z" fill="#002337"/>
</svg>
