<svg width="6" height="10" viewBox="0 0 6 10" fill="none" xmlns="http://www.w3.org/2000/svg">
<path d="M5.85355 9.14645C6.04882 9.34171 6.04882 9.65829 5.85355 9.85355C5.65829 10.0488 5.34171 10.0488 5.14645 9.85355L5.85355 9.14645ZM5.16782 0.626295C5.37421 0.442837 5.69025 0.461427 5.8737 0.667818C6.05716 0.874209 6.03857 1.19025 5.83218 1.3737L5.16782 0.626295ZM1 5L0.646449 5.35355C0.549076 5.25618 0.496173 5.12296 0.500217 4.98531C0.504262 4.84767 0.564897 4.71778 0.66782 4.6263L1 5ZM5.14645 9.85355L0.646449 5.35355L1.35356 4.64645L5.85355 9.14645L5.14645 9.85355ZM0.66782 4.6263L5.16782 0.626295L5.83218 1.3737L1.33218 5.3737L0.66782 4.6263Z" fill="#002337"/>
</svg>
