<svg width="16" height="16" viewBox="0 0 16 16" fill="none" xmlns="http://www.w3.org/2000/svg">
<path d="M12.615 2.5H3.385C2.62066 2.50264 1.88838 2.80744 1.34791 3.34791C0.807436 3.88838 0.502636 4.62066 0.5 5.385V11.615C0.502636 12.3793 0.807436 13.1116 1.34791 13.6521C1.88838 14.1926 2.62066 14.4974 3.385 14.5H12.615C13.3793 14.4974 14.1116 14.1926 14.6521 13.6521C15.1926 13.1116 15.4974 12.3793 15.5 11.615V5.385C15.4974 4.62066 15.1926 3.88838 14.6521 3.34791C14.1116 2.80744 13.3793 2.50264 12.615 2.5ZM4.44 11.44L3 12.9C2.79317 12.8251 2.60534 12.7057 2.44981 12.5502C2.29428 12.3947 2.17485 12.2068 2.1 12L3.56 10.54C3.67736 10.4226 3.83653 10.3567 4.0025 10.3567C4.16847 10.3567 4.32764 10.4226 4.445 10.54C4.56236 10.6574 4.62829 10.8165 4.62829 10.9825C4.62829 11.1485 4.56236 11.3076 4.445 11.425L4.44 11.44ZM13 12.9L11.54 11.44C11.4226 11.3226 11.3567 11.1635 11.3567 10.9975C11.3567 10.8315 11.4226 10.6724 11.54 10.555C11.6574 10.4376 11.8165 10.3717 11.9825 10.3717C12.1485 10.3717 12.3076 10.4376 12.425 10.555L13.9 12C13.8251 12.2068 13.7057 12.3947 13.5502 12.5502C13.3947 12.7057 13.2068 12.8251 13 12.9ZM14 5.755L10.47 9.135C9.77663 9.82504 8.83822 10.2124 7.86 10.2124C6.88178 10.2124 5.94337 9.82504 5.25 9.135L2 5.83V5.5C2.00136 5.26756 2.05672 5.03861 2.16171 4.83122C2.2667 4.62384 2.41846 4.44369 2.605 4.305L6.32 8.07C6.73232 8.48067 7.29056 8.71124 7.8725 8.71124C8.45444 8.71124 9.01268 8.48067 9.425 8.07L13.37 4.285C13.5639 4.42302 13.7221 4.60519 13.8316 4.81646C13.9412 5.02773 13.9989 5.26202 14 5.5V5.755Z" fill="#BDBDBD"/>
</svg>
