<svg width="16" height="16" viewBox="0 0 16 16" fill="none" xmlns="http://www.w3.org/2000/svg">
<path d="M8 0.5C6.51664 0.5 5.0666 0.939867 3.83323 1.76398C2.59986 2.58809 1.63856 3.75943 1.07091 5.12987C0.50325 6.50032 0.354725 8.00832 0.644114 9.46318C0.933503 10.918 1.64781 12.2544 2.6967 13.3033C3.7456 14.3522 5.08197 15.0665 6.53683 15.3559C7.99168 15.6453 9.49968 15.4968 10.8701 14.9291C12.2406 14.3614 13.4119 13.4001 14.236 12.1668C15.0601 10.9334 15.5 9.48336 15.5 8C15.5 6.01088 14.7098 4.10322 13.3033 2.6967C11.8968 1.29018 9.98913 0.5 8 0.5ZM11.63 5L8.5 12.37C8.45806 12.4662 8.38689 12.5468 8.29658 12.6003C8.20627 12.6539 8.10141 12.6776 7.99686 12.6682C7.8923 12.6588 7.79336 12.6167 7.71405 12.5479C7.63475 12.4792 7.5791 12.3872 7.555 12.285L6.84 9.18L3.715 8.465C3.60546 8.447 3.50501 8.39305 3.42951 8.31167C3.35401 8.23028 3.30774 8.12608 3.298 8.01549C3.28826 7.9049 3.3156 7.79421 3.37571 7.70088C3.43582 7.60755 3.52529 7.53687 3.63 7.5L11 4.37C11.0877 4.34152 11.1816 4.33784 11.2712 4.35937C11.3609 4.3809 11.4428 4.4268 11.508 4.49199C11.5732 4.55719 11.6191 4.63914 11.6406 4.7288C11.6622 4.81845 11.6585 4.91231 11.63 5Z" fill="#BDBDBD"/>
</svg>
