<svg width="16" height="16" viewBox="0 0 16 16" fill="none" xmlns="http://www.w3.org/2000/svg">
<path d="M4.07455 9.92C2.25455 7.745 1.38955 5.5 1.69955 3.77V3.73V3.69C2.62955 1.25 5.29455 1.19 5.69955 2.5L6.49955 4.84C6.56369 5.03288 6.57287 5.23981 6.52607 5.43762C6.47926 5.63543 6.37832 5.8163 6.23455 5.96L5.43455 6.76C6.17186 8.38017 7.46741 9.68104 9.08455 10.425L9.75955 9.75C9.89307 9.61592 10.0591 9.51873 10.2413 9.46791C10.4236 9.41708 10.6159 9.41436 10.7996 9.46L13.4995 10.13C14.7795 10.495 14.8696 13.13 12.2646 14.215C9.55455 14.97 5.94955 12.155 4.07455 9.92Z" fill="#BDBDBD"/>
</svg>
