<svg width="26" height="26" viewBox="0 0 26 26" fill="none" xmlns="http://www.w3.org/2000/svg">
<path fill-rule="evenodd" clip-rule="evenodd" d="M1.77419 1.5C1.62453 1.5 1.5 1.62453 1.5 1.77419V20.3548C1.5 20.5045 1.62453 20.629 1.77419 20.629H4.20968V21.629H1.77419C1.07224 21.629 0.5 21.0568 0.5 20.3548V1.77419C0.5 1.07224 1.07224 0.5 1.77419 0.5H24.2258C24.9278 0.5 25.5 1.07224 25.5 1.77419V20.3548C25.5 21.0568 24.9278 21.629 24.2258 21.629H21.7903V20.629H24.2258C24.3755 20.629 24.5 20.5045 24.5 20.3548V1.77419C24.5 1.62453 24.3755 1.5 24.2258 1.5H1.77419Z" fill="#002337"/>
<path fill-rule="evenodd" clip-rule="evenodd" d="M4.75805 3.32257C4.75805 3.04643 4.98191 2.82257 5.25805 2.82257H20.7419C21.0181 2.82257 21.2419 3.04643 21.2419 3.32257C21.2419 4.11482 21.8852 4.75805 22.6774 4.75805C22.9536 4.75805 23.1774 4.98191 23.1774 5.25805V16.871C23.1774 17.1471 22.9536 17.371 22.6774 17.371C21.8852 17.371 21.2419 18.0142 21.2419 18.8064C21.2419 19.0826 21.0181 19.3064 20.7419 19.3064H19.8548V18.3064H20.2934C20.4904 17.3629 21.2339 16.6195 22.1774 16.4224V5.70662C21.2339 5.50956 20.4904 4.76608 20.2934 3.82257H5.70662C5.50956 4.76608 4.76608 5.50956 3.82257 5.70662V16.4224C4.76608 16.6195 5.50956 17.3629 5.70662 18.3064H6.14515V19.3064H5.25805C4.98191 19.3064 4.75805 19.0826 4.75805 18.8064C4.75805 18.0142 4.11482 17.371 3.32257 17.371C3.04643 17.371 2.82257 17.1471 2.82257 16.871V5.25805C2.82257 4.98191 3.04643 4.75805 3.32257 4.75805C4.11482 4.75805 4.75805 4.11482 4.75805 3.32257Z" fill="#002337"/>
<path fill-rule="evenodd" clip-rule="evenodd" d="M9.79034 6.80646C9.79034 6.53032 10.0142 6.30646 10.2903 6.30646H15.7097C15.9858 6.30646 16.2097 6.53032 16.2097 6.80646C16.2097 7.0826 15.9858 7.30646 15.7097 7.30646H10.2903C10.0142 7.30646 9.79034 7.0826 9.79034 6.80646Z" fill="#002337"/>
<path fill-rule="evenodd" clip-rule="evenodd" d="M7.46771 9.51614C7.46771 9.24 7.69157 9.01614 7.96771 9.01614H18.0322C18.3084 9.01614 18.5322 9.24 18.5322 9.51614C18.5322 9.79229 18.3084 10.0161 18.0322 10.0161H7.96771C7.69157 10.0161 7.46771 9.79229 7.46771 9.51614Z" fill="#002337"/>
<path fill-rule="evenodd" clip-rule="evenodd" d="M13.7426 13.2342C13.3292 12.824 12.6659 12.8258 12.2581 13.2336L12.2039 13.2878C11.8193 13.6724 11.297 13.8871 10.7549 13.8871H10.6775C10.0981 13.8871 9.62907 14.3562 9.62907 14.9355V15.0129C9.62907 15.5551 9.41434 16.0773 9.02972 16.462L8.97665 16.515C8.97648 16.5152 8.9763 16.5154 8.97612 16.5155C8.56592 16.9289 8.56771 17.5922 8.97552 18L9.02972 18.0542C9.41434 18.4388 9.62907 18.9611 9.62907 19.5032V19.5807C9.62907 20.16 10.0981 20.629 10.6775 20.629H10.7549C11.297 20.629 11.8193 20.8438 12.2039 21.2284L11.8672 21.5651L12.2039 21.2284L12.257 21.2815C12.2571 21.2816 12.2573 21.2818 12.2575 21.2819C12.6709 21.6922 13.3341 21.6904 13.742 21.2826L13.7962 21.2284L14.125 21.5573L13.7962 21.2284C14.1808 20.8438 14.703 20.629 15.2452 20.629H15.3226C15.902 20.629 16.371 20.16 16.371 19.5807V19.5032C16.371 18.9611 16.5857 18.4388 16.9704 18.0542L17.2992 18.3831L16.9704 18.0542L17.0234 18.0011C17.0236 18.001 17.0237 18.0008 17.0239 18.0007C17.4342 17.5873 17.4324 16.924 17.0246 16.5161L16.9704 16.462L17.3031 16.1292L16.9704 16.462C16.5857 16.0773 16.371 15.5551 16.371 15.0129V14.9355C16.371 14.3562 15.902 13.8871 15.3226 13.8871H15.2452C14.703 13.8871 14.1808 13.6724 13.7962 13.2878L13.7431 13.2347C13.7429 13.2345 13.7427 13.2343 13.7426 13.2342ZM11.551 12.5265C12.3508 11.7267 13.6458 11.7283 14.4479 12.5253L14.4491 12.5265L14.5033 12.5807C14.6993 12.7767 14.9667 12.8871 15.2452 12.8871H15.3226C16.4542 12.8871 17.371 13.8039 17.371 14.9355V15.0129C17.371 15.2914 17.4814 15.5588 17.6775 15.7548L17.7316 15.809L17.3949 16.1458L17.7317 15.809C18.5314 16.6088 18.5298 17.9039 17.7328 18.706L17.7316 18.7071L17.6775 18.7613C17.4814 18.9573 17.371 19.2248 17.371 19.5032V19.5807C17.371 20.7123 16.4542 21.629 15.3226 21.629H15.2452C14.9667 21.629 14.6993 21.7395 14.5033 21.9355L14.4491 21.9897L14.1202 21.6608L14.4491 21.9897C13.6493 22.7894 12.3542 22.7878 11.5521 21.9908L11.551 21.9897L11.4968 21.9355C11.3008 21.7395 11.0333 21.629 10.7549 21.629H10.6775C9.54583 21.629 8.62907 20.7123 8.62907 19.5807V19.5032C8.62907 19.2248 8.51863 18.9573 8.32261 18.7613L8.26842 18.7071C7.46866 17.9074 7.47028 16.6123 8.26729 15.8102L8.26842 15.809L8.26842 15.809L8.32261 15.7548C8.51863 15.5588 8.62907 15.2914 8.62907 15.0129V14.9355C8.62907 13.8039 9.54583 12.8871 10.6775 12.8871H10.7549C11.0333 12.8871 11.3008 12.7767 11.4968 12.5807L11.551 12.5265Z" fill="#002337"/>
<path fill-rule="evenodd" clip-rule="evenodd" d="M17.3382 18.0247C17.5562 17.8552 17.8704 17.8944 18.0399 18.1124L20.7496 21.5963C20.859 21.737 20.8853 21.9253 20.8185 22.0905C20.7517 22.2558 20.602 22.373 20.4256 22.3982L17.9941 22.7456L16.9435 25.197C16.8732 25.3611 16.7207 25.4752 16.5434 25.4965C16.3662 25.5177 16.191 25.4428 16.0839 25.3L13.7613 22.2032C13.5957 21.9823 13.6404 21.6689 13.8613 21.5032C14.0823 21.3376 14.3957 21.3823 14.5613 21.6032L16.365 24.0081L17.1856 22.0934C17.2544 21.933 17.4018 21.82 17.5745 21.7954L19.4313 21.5301L17.2505 18.7263C17.081 18.5084 17.1203 18.1942 17.3382 18.0247Z" fill="#002337"/>
<path fill-rule="evenodd" clip-rule="evenodd" d="M8.66186 18.0247C8.87983 18.1942 8.9191 18.5084 8.74956 18.7263L6.56885 21.5301L8.4256 21.7954C8.59834 21.82 8.74572 21.933 8.81446 22.0934L9.63507 24.0081L11.4388 21.6032C11.6044 21.3823 11.9178 21.3376 12.1388 21.5032C12.3597 21.6689 12.4044 21.9823 12.2388 22.2032L9.91617 25.3C9.80906 25.4428 9.63392 25.5177 9.45666 25.4965C9.27941 25.4752 9.12693 25.3611 9.0566 25.197L8.006 22.7456L5.5745 22.3982C5.39805 22.373 5.24837 22.2558 5.18161 22.0905C5.11485 21.9253 5.14111 21.737 5.25053 21.5963L7.96021 18.1124C8.12974 17.8944 8.44388 17.8552 8.66186 18.0247Z" fill="#002337"/>
<path fill-rule="evenodd" clip-rule="evenodd" d="M13.0001 15.4355C11.9935 15.4355 11.1775 16.2515 11.1775 17.2581C11.1775 18.2647 11.9935 19.0807 13.0001 19.0807C14.0067 19.0807 14.8227 18.2647 14.8227 17.2581C14.8227 16.2515 14.0067 15.4355 13.0001 15.4355ZM10.1775 17.2581C10.1775 15.6992 11.4412 14.4355 13.0001 14.4355C14.5589 14.4355 15.8227 15.6992 15.8227 17.2581C15.8227 18.8169 14.5589 20.0807 13.0001 20.0807C11.4412 20.0807 10.1775 18.8169 10.1775 17.2581Z" fill="#002337"/>
</svg>
