<svg width="16" height="16" viewBox="0 0 16 16" fill="none" xmlns="http://www.w3.org/2000/svg">
<path d="M9.414 8L15.707 1.707C15.888 1.526 16 1.276 16 1C16 0.447 15.553 0 15 0C14.724 0 14.474 0.112 14.293 0.293L8 6.586L1.707 0.293C1.526 0.112 1.276 0 1 0C0.447 0 0 0.447 0 1C0 1.276 0.112 1.526 0.293 1.707L6.586 8L0.293 14.293C0.112 14.474 0 14.724 0 15C0 15.552 0.447 16 1 16C1.276 16 1.526 15.888 1.707 15.707L8 9.414L14.293 15.707C14.474 15.888 14.724 16 15 16C15.553 16 16 15.552 16 15C16 14.724 15.888 14.474 15.707 14.293L9.414 8Z" fill="#00AB97"/>
</svg>
