<svg width="16" height="16" viewBox="0 0 16 16" fill="none" xmlns="http://www.w3.org/2000/svg">
<g clip-path="url(#clip0)">
<path fill-rule="evenodd" clip-rule="evenodd" d="M1.82857 3.02857C1.34806 3.02857 0.979592 3.41546 0.979592 3.92V12.1143C0.979592 12.5763 1.34013 12.9714 1.82857 12.9714H14.2041C14.6519 12.9714 15.0204 12.5845 15.0204 12.1143V3.92C15.0204 3.40714 14.6441 3.02857 14.2041 3.02857H1.82857ZM0 3.92C0 2.8474 0.807044 2 1.82857 2H14.2041C15.2008 2 16 2.85572 16 3.92V12.1143C16 13.1526 15.193 14 14.2041 14H1.82857C0.814971 14 0 13.1609 0 12.1143V3.92Z" fill="#002337"/>
<path fill-rule="evenodd" clip-rule="evenodd" d="M15.6673 6.5H0.333984V5.5H15.6673V6.5Z" fill="#002337"/>
<path fill-rule="evenodd" clip-rule="evenodd" d="M3.57227 11.5906L1.57227 8.25723L2.42976 7.74274L4.00101 10.3615L5.57227 7.74274L6.42976 8.25723L4.42976 11.5906H3.57227Z" fill="#002337"/>
</g>
<defs>
<clipPath id="clip0">
<rect width="16" height="16" fill="white"/>
</clipPath>
</defs>
</svg>
