<svg width="24" height="24" viewBox="0 0 24 24" fill="none" xmlns="http://www.w3.org/2000/svg">
<g clip-path="url(#clip0)">
<path fill-rule="evenodd" clip-rule="evenodd" d="M0 0H3.67258L6.14238 14.6129C6.45069 16.2773 7.89581 17.5 9.6 17.5H22V18.5H9.6C7.4054 18.5 5.55135 16.9244 5.15827 14.7906L5.15694 14.7833L2.82742 1H0V0Z" fill="#002337"/>
<path fill-rule="evenodd" clip-rule="evenodd" d="M22.886 5H4V4H24.114L22.7899 10.4002C22.7898 10.4004 22.7899 10.4 22.7899 10.4002C22.2932 12.8267 20.2013 14.584 17.784 14.7488L17.7812 14.749L5.78119 15.499L5.71881 14.501L17.716 13.7512C17.7164 13.7511 17.7169 13.7511 17.7173 13.7511C19.6992 13.6154 21.4066 12.1726 21.8101 10.1998L21.8104 10.1987L22.886 5Z" fill="#002337"/>
<path fill-rule="evenodd" clip-rule="evenodd" d="M7.75 20.5C7.05964 20.5 6.5 21.0596 6.5 21.75C6.5 22.4404 7.05964 23 7.75 23C8.44036 23 9 22.4404 9 21.75C9 21.0596 8.44036 20.5 7.75 20.5ZM5.5 21.75C5.5 20.5074 6.50736 19.5 7.75 19.5C8.99264 19.5 10 20.5074 10 21.75C10 22.9926 8.99264 24 7.75 24C6.50736 24 5.5 22.9926 5.5 21.75Z" fill="#002337"/>
<path fill-rule="evenodd" clip-rule="evenodd" d="M19.75 20.5C19.0596 20.5 18.5 21.0596 18.5 21.75C18.5 22.4404 19.0596 23 19.75 23C20.4404 23 21 22.4404 21 21.75C21 21.0596 20.4404 20.5 19.75 20.5ZM17.5 21.75C17.5 20.5074 18.5074 19.5 19.75 19.5C20.9926 19.5 22 20.5074 22 21.75C22 22.9926 20.9926 24 19.75 24C18.5074 24 17.5 22.9926 17.5 21.75Z" fill="#002337"/>
</g>
<defs>
<clipPath id="clip0">
<rect width="24" height="24" fill="white"/>
</clipPath>
</defs>
</svg>
