<svg width="24" height="24" viewBox="0 0 24 24" fill="none" xmlns="http://www.w3.org/2000/svg">
<g clip-path="url(#clip0)">
<path fill-rule="evenodd" clip-rule="evenodd" d="M-4.37114e-08 2.5L0.5 2.5L0.5 3.5L0 3.5L-4.37114e-08 2.5Z" fill="#002337"/>
<path fill-rule="evenodd" clip-rule="evenodd" d="M24 3.5L5.5 3.5L5.5 2.5L24 2.5L24 3.5Z" fill="#002337"/>
<path fill-rule="evenodd" clip-rule="evenodd" d="M1 3C1 4.10457 1.89543 5 3 5C4.10457 5 5 4.10457 5 3C5 1.89543 4.10457 1 3 1C1.89543 1 1 1.89543 1 3ZM3 6C1.34315 6 -5.87108e-08 4.65685 -1.31134e-07 3C-2.03558e-07 1.34315 1.34315 -5.87108e-08 3 -1.31134e-07C4.65685 -2.03558e-07 6 1.34315 6 3C6 4.65685 4.65685 6 3 6Z" fill="#002337"/>
<path fill-rule="evenodd" clip-rule="evenodd" d="M13 12.5L0 12.5L-4.37114e-08 11.5L13 11.5L13 12.5Z" fill="#002337"/>
<path fill-rule="evenodd" clip-rule="evenodd" d="M24 12.5L18 12.5L18 11.5L24 11.5L24 12.5Z" fill="#002337"/>
<path fill-rule="evenodd" clip-rule="evenodd" d="M13.5 12C13.5 13.1046 14.3954 14 15.5 14C16.6046 14 17.5 13.1046 17.5 12C17.5 10.8954 16.6046 10 15.5 10C14.3954 10 13.5 10.8954 13.5 12ZM15.5 15C13.8431 15 12.5 13.6569 12.5 12C12.5 10.3431 13.8431 9 15.5 9C17.1569 9 18.5 10.3431 18.5 12C18.5 13.6569 17.1569 15 15.5 15Z" fill="#002337"/>
<path fill-rule="evenodd" clip-rule="evenodd" d="M0.5 21.5L0 21.5L-4.37114e-08 20.5L0.5 20.5L0.5 21.5Z" fill="#002337"/>
<path fill-rule="evenodd" clip-rule="evenodd" d="M24 21.5L5.5 21.5L5.5 20.5L24 20.5L24 21.5Z" fill="#002337"/>
<path fill-rule="evenodd" clip-rule="evenodd" d="M1 21C1 22.1046 1.89543 23 3 23C4.10457 23 5 22.1046 5 21C5 19.8954 4.10457 19 3 19C1.89543 19 1 19.8954 1 21ZM3 24C1.34315 24 -5.87108e-08 22.6569 -1.31134e-07 21C-2.03558e-07 19.3431 1.34315 18 3 18C4.65685 18 6 19.3431 6 21C6 22.6569 4.65685 24 3 24Z" fill="#002337"/>
</g>
<defs>
<clipPath id="clip0">
<rect width="24" height="24" fill="white" transform="translate(0 24) rotate(-90)"/>
</clipPath>
</defs>
</svg>
