<svg width="32" height="32" viewBox="0 0 32 32" fill="none" xmlns="http://www.w3.org/2000/svg">
<path fill-rule="evenodd" clip-rule="evenodd" d="M4.16602 0.166672H27.8327V23.3333C27.8327 28.0095 24.0088 31.8333 19.3327 31.8333H4.16602V0.166672ZM5.16602 1.16667V30.8333H19.3327C23.4565 30.8333 26.8327 27.4572 26.8327 23.3333V1.16667H5.16602Z" fill="#002337"/>
<path fill-rule="evenodd" clip-rule="evenodd" d="M16.3542 9.06066C16.1589 8.8654 15.8424 8.8654 15.6471 9.06066L11.9804 12.7273C11.8867 12.8211 11.834 12.9483 11.834 13.0809V21C11.834 21.2761 12.0578 21.5 12.334 21.5H19.6673C19.9435 21.5 20.1673 21.2761 20.1673 21V13.0809C20.1673 12.9483 20.1146 12.8211 20.0209 12.7273L16.3542 9.06066ZM14.94 8.35356C15.5258 7.76777 16.4755 7.76777 17.0613 8.35355L20.728 12.0202C21.0093 12.3015 21.1673 12.6831 21.1673 13.0809V21C21.1673 21.8284 20.4957 22.5 19.6673 22.5H12.334C11.5056 22.5 10.834 21.8284 10.834 21V13.0809C10.834 12.6831 10.992 12.3015 11.2733 12.0202L14.94 8.35356Z" fill="#002337"/>
<path fill-rule="evenodd" clip-rule="evenodd" d="M15.9993 15C16.1834 15 16.3327 14.8508 16.3327 14.6667C16.3327 14.4826 16.1834 14.3333 15.9993 14.3333C15.8153 14.3333 15.666 14.4826 15.666 14.6667C15.666 14.8508 15.8153 15 15.9993 15ZM15.9993 16C16.7357 16 17.3327 15.403 17.3327 14.6667C17.3327 13.9303 16.7357 13.3333 15.9993 13.3333C15.263 13.3333 14.666 13.9303 14.666 14.6667C14.666 15.403 15.263 16 15.9993 16Z" fill="#002337"/>
</svg>
