<svg width="16" height="16" viewBox="0 0 16 16" fill="none" xmlns="http://www.w3.org/2000/svg">
<g clip-path="url(#clip0)">
<path fill-rule="evenodd" clip-rule="evenodd" d="M8 15C11.866 15 15 11.866 15 8C15 4.13401 11.866 1 8 1C4.13401 1 1 4.13401 1 8C1 11.866 4.13401 15 8 15ZM16 8C16 12.4183 12.4183 16 8 16C3.58172 16 0 12.4183 0 8C0 3.58172 3.58172 0 8 0C12.4183 0 16 3.58172 16 8Z" fill="#939393"/>
<path fill-rule="evenodd" clip-rule="evenodd" d="M6.74714 3.83533C7.95983 3.12444 9.46298 3.55013 10.1647 4.74715C10.8756 5.95985 10.4499 7.463 9.25286 8.1647L9.25052 8.16607L9.25052 8.16606C8.77514 8.44128 8.5 8.94096 8.5 9.46668V10H7.5V9.46668C7.5 8.59288 7.95769 7.75967 8.74817 7.30139C9.48368 6.86953 9.72423 5.97318 9.30198 5.25287C8.87114 4.5179 7.97676 4.27646 7.2568 4.69573C6.79236 4.98123 6.5 5.45965 6.5 6.00001H5.5C5.5 5.07524 6.00599 4.28816 6.73927 3.84004L6.7471 3.83526L6.74714 3.83533Z" fill="#939393"/>
<path d="M8.00004 12.3333C8.36823 12.3333 8.66671 12.0349 8.66671 11.6667C8.66671 11.2985 8.36823 11 8.00004 11C7.63185 11 7.33337 11.2985 7.33337 11.6667C7.33337 12.0349 7.63185 12.3333 8.00004 12.3333Z" fill="#939393"/>
</g>
<defs>
<clipPath id="clip0">
<rect width="16" height="16" fill="white"/>
</clipPath>
</defs>
</svg>
