<svg width="24" height="24" viewBox="0 0 24 24" fill="none" xmlns="http://www.w3.org/2000/svg">
<g clip-path="url(#clip0)">
<path fill-rule="evenodd" clip-rule="evenodd" d="M18.8126 0.997681C18.2619 0.997681 17.7167 1.10795 17.2093 1.32199C16.7019 1.53603 16.2425 1.84951 15.8582 2.24393L15.8568 2.24532L10.6832 7.51392C10.683 7.51414 10.6834 7.51369 10.6832 7.51392C9.96217 8.25427 9.5287 9.22855 9.46213 10.2599C9.39555 11.2915 9.69983 12.313 10.3201 13.14L9.52006 13.74C8.75673 12.7222 8.38227 11.4651 8.46421 10.1955C8.54615 8.92585 9.07911 7.72732 9.96695 6.81607L9.96831 6.81467L15.142 1.54605C15.1422 1.54581 15.1424 1.54557 15.1427 1.54533C15.62 1.05563 16.1906 0.666412 16.8207 0.400613C17.4511 0.134685 18.1284 -0.00231934 18.8126 -0.00231934C19.4968 -0.00231934 20.1741 0.134685 20.8045 0.400613C21.4349 0.666542 22.0057 1.05601 22.4832 1.54605C23.454 2.54152 23.9974 3.87698 23.9974 5.26749C23.9974 6.65578 23.4558 7.98919 22.4878 8.98415L19.0323 12.7243L18.2978 12.0457L21.767 8.29074C22.5558 7.48203 22.9974 6.39719 22.9974 5.26749C22.9974 4.13779 22.5559 3.05282 21.7671 2.24411C21.3828 1.84969 20.9232 1.53603 20.4158 1.32199C19.9084 1.10795 19.3633 0.997681 18.8126 0.997681Z" fill="#002337"/>
<path fill-rule="evenodd" clip-rule="evenodd" d="M10.3246 13.1388C10.4363 13.2868 10.5574 13.4274 10.6873 13.5597L9.97369 14.2602C9.81351 14.0971 9.66409 13.9237 9.52637 13.7411L10.3246 13.1388Z" fill="#002337"/>
<path fill-rule="evenodd" clip-rule="evenodd" d="M14.363 13.6375C14.363 12.5121 13.9248 11.431 13.1414 10.6231L13.8592 9.92691C14.8236 10.9214 15.363 12.2522 15.363 13.6375C15.363 15.0228 14.8236 16.3536 13.8592 17.3481L13.8575 17.3499L8.85842 22.4539C8.85828 22.4541 8.85855 22.4538 8.85842 22.4539C8.381 22.9438 7.80996 23.3335 7.17972 23.5994C6.5493 23.8653 5.87202 24.0023 5.18781 24.0023C4.5036 24.0023 3.82632 23.8653 3.1959 23.5994C2.56548 23.3334 1.9947 22.944 1.5172 22.4539C0.546337 21.4585 0.00292969 20.123 0.00292969 18.7325C0.00292969 17.343 0.545578 16.0084 1.51517 15.0131L4.84307 11.5153L5.56755 12.2046L2.23327 15.7091C1.44447 16.5179 1.00293 17.6028 1.00293 18.7325C1.00293 19.8622 1.44444 20.9472 2.23324 21.7559C2.61757 22.1503 3.07716 22.464 3.58456 22.678C4.09197 22.892 4.6371 23.0023 5.18781 23.0023C5.73851 23.0023 6.28365 22.892 6.79105 22.678C7.29846 22.464 7.75788 22.1505 8.1422 21.7561L8.1431 21.7551L13.1414 16.6519C13.1417 16.6516 13.1419 16.6513 13.1422 16.651C13.9251 15.8432 14.363 14.7625 14.363 13.6375Z" fill="#002337"/>
</g>
<defs>
<clipPath id="clip0">
<rect width="24" height="24" fill="white"/>
</clipPath>
</defs>
</svg>
