<svg width="80" height="80" viewBox="0 0 80 80" fill="none" xmlns="http://www.w3.org/2000/svg">
<path fill-rule="evenodd" clip-rule="evenodd" d="M26.537 54.0223L25.8068 54.1935C26.537 54.0223 26.5369 54.0221 26.537 54.0223L26.5383 54.0282L26.5415 54.0417L26.5526 54.0913C26.5621 54.1341 26.5757 54.196 26.5923 54.2752C26.6254 54.4334 26.6709 54.661 26.7213 54.9425C26.822 55.5047 26.943 56.2865 27.0238 57.1646C27.1007 58.0001 27.1451 58.9586 27.0889 59.913C27.4621 59.6417 27.8595 59.3912 28.2569 59.1699C28.9295 58.7952 29.6278 58.4898 30.2431 58.3063C30.55 58.2148 30.8547 58.1481 31.1363 58.1238C31.3975 58.1012 31.7179 58.1075 32.0107 58.233C32.464 58.4191 32.639 58.8205 32.7148 59.0777C32.7795 59.2972 32.8134 59.5606 32.8404 59.7703C32.8443 59.8001 32.848 59.8289 32.8516 59.8562C32.9191 60.3647 33.0041 60.8047 33.2869 61.1754C33.5513 61.5219 34.0784 61.9169 35.2672 62.0988C36.4718 62.283 38.295 62.237 41.0487 61.7352C41.4562 61.661 41.8467 61.9312 41.921 62.3387C41.9952 62.7462 41.7251 63.1367 41.3176 63.2109C38.4884 63.7264 36.4794 63.8016 35.0404 63.5815C33.5857 63.359 32.658 62.824 32.0944 62.0853C31.5492 61.3708 31.4332 60.5703 31.3646 60.0535C31.3608 60.0245 31.3572 59.997 31.3537 59.9707C31.3328 59.8124 31.3181 59.701 31.3023 59.6155C31.2908 59.6162 31.2784 59.6171 31.2652 59.6182C31.1169 59.631 30.917 59.6706 30.6717 59.7438C30.1825 59.8897 29.5856 60.1468 28.9868 60.4803C28.3885 60.8135 27.8137 61.2089 27.3599 61.6187C26.9639 61.9763 26.7051 62.3045 26.5749 62.5742C26.5498 62.6396 26.5237 62.7042 26.4964 62.7679C26.338 63.1385 25.915 63.3176 25.5386 63.1735C25.1622 63.0294 24.967 62.6136 25.0966 62.2319C25.1241 62.151 25.1558 62.0711 25.1915 61.9921C25.6662 60.7173 25.6783 58.9124 25.5301 57.302C25.4894 56.8595 25.4377 56.4419 25.3838 56.0678C25.0314 56.3859 24.6371 56.6564 24.2346 56.8945C23.5855 57.2785 22.8286 57.6236 22.1127 57.9501C21.7989 58.0932 21.493 58.2326 21.2075 58.3702C20.2149 58.8486 19.4018 59.3298 18.8734 59.9472C18.3815 60.522 18.1022 61.2548 18.2688 62.3614C18.3305 62.771 18.0485 63.1531 17.6389 63.2147C17.2293 63.2764 16.8472 62.9944 16.7856 62.5848C16.556 61.0597 16.9509 59.8867 17.7338 58.9719C18.4802 58.0998 19.5427 57.5075 20.5563 57.019C20.9088 56.8491 21.2516 56.693 21.5837 56.5418C22.2595 56.2341 22.8913 55.9464 23.4709 55.6035C24.3144 55.1045 24.8654 54.5844 25.1023 53.9361C25.2161 53.6247 25.5208 53.425 25.8518 53.4449C26.1827 53.4648 26.4613 53.6995 26.537 54.0223ZM31.2656 59.4705C31.265 59.4693 31.2647 59.4686 31.2647 59.4686L31.2656 59.4705Z" fill="#00AB97"/>
<path fill-rule="evenodd" clip-rule="evenodd" d="M12.0469 18.7097C12.0469 18.2955 12.3827 17.9597 12.7969 17.9597H23.442C23.8563 17.9597 24.192 18.2955 24.192 18.7097C24.192 19.1239 23.8563 19.4597 23.442 19.4597H12.7969C12.3827 19.4597 12.0469 19.1239 12.0469 18.7097Z" fill="#00AB97"/>
<path fill-rule="evenodd" clip-rule="evenodd" d="M12.0469 28.172C12.0469 27.7578 12.3827 27.422 12.7969 27.422H45.9152C46.3294 27.422 46.6652 27.7578 46.6652 28.172C46.6652 28.5862 46.3294 28.922 45.9152 28.922H12.7969C12.3827 28.922 12.0469 28.5862 12.0469 28.172Z" fill="#00AB97"/>
<path fill-rule="evenodd" clip-rule="evenodd" d="M12.0469 35.2688C12.0469 34.8546 12.3827 34.5188 12.7969 34.5188H45.9152C46.3294 34.5188 46.6652 34.8546 46.6652 35.2688C46.6652 35.683 46.3294 36.0188 45.9152 36.0188H12.7969C12.3827 36.0188 12.0469 35.683 12.0469 35.2688Z" fill="#00AB97"/>
<path fill-rule="evenodd" clip-rule="evenodd" d="M12.0469 42.3656C12.0469 41.9514 12.3827 41.6156 12.7969 41.6156H31.7216C32.1358 41.6156 32.4716 41.9514 32.4716 42.3656C32.4716 42.7798 32.1358 43.1156 31.7216 43.1156H12.7969C12.3827 43.1156 12.0469 42.7798 12.0469 42.3656Z" fill="#00AB97"/>
<path fill-rule="evenodd" clip-rule="evenodd" d="M70.7538 18.2769C67.9035 18.2769 65.5898 20.5905 65.5898 23.4408V42.7984H75.9178V23.4408C75.9178 20.5905 73.6041 18.2769 70.7538 18.2769ZM64.0898 23.4408C64.0898 19.7621 67.0751 16.7769 70.7538 16.7769C74.4326 16.7769 77.4178 19.7621 77.4178 23.4408V43.5484C77.4178 43.9626 77.082 44.2984 76.6678 44.2984H64.8398C64.4256 44.2984 64.0898 43.9626 64.0898 43.5484V23.4408Z" fill="#00AB97"/>
<path fill-rule="evenodd" clip-rule="evenodd" d="M76.2338 42.7984V66.0215C76.2338 66.1231 76.2132 66.2236 76.1732 66.3169L72.6248 74.5965C72.5066 74.8723 72.2355 75.0511 71.9355 75.0511H69.5699C69.2698 75.0511 68.9987 74.8723 68.8805 74.5965L65.3321 66.3169C65.2921 66.2236 65.2715 66.1231 65.2715 66.0215V47.5296H66.7715V65.8676L70.0644 73.5511H71.4409L74.7338 65.8676V42.7984H76.2338Z" fill="#00AB97"/>
<path fill-rule="evenodd" clip-rule="evenodd" d="M70.0039 66.0215C70.0039 65.6073 70.3397 65.2715 70.7539 65.2715H74.3023C74.7165 65.2715 75.0523 65.6073 75.0523 66.0215C75.0523 66.4357 74.7165 66.7715 74.3023 66.7715H70.7539C70.3397 66.7715 70.0039 66.4357 70.0039 66.0215Z" fill="#00AB97"/>
<path fill-rule="evenodd" clip-rule="evenodd" d="M70.7539 73.5511C71.1681 73.5511 71.5039 73.8869 71.5039 74.3011V76.6667C71.5039 77.0809 71.1681 77.4167 70.7539 77.4167C70.3397 77.4167 70.0039 77.0809 70.0039 76.6667V74.3011C70.0039 73.8869 70.3397 73.5511 70.7539 73.5511Z" fill="#00AB97"/>
<path fill-rule="evenodd" clip-rule="evenodd" d="M70.7539 16.7769C71.1681 16.7769 71.5039 17.1127 71.5039 17.5269V35.2688C71.5039 35.683 71.1681 36.0188 70.7539 36.0188C70.3397 36.0188 70.0039 35.683 70.0039 35.2688V17.5269C70.0039 17.1127 70.3397 16.7769 70.7539 16.7769Z" fill="#00AB97"/>
<path fill-rule="evenodd" clip-rule="evenodd" d="M2.58398 5.69893C2.58398 3.98364 3.98429 2.58334 5.69958 2.58334H40.0007C40.1996 2.58334 40.3903 2.66235 40.531 2.80301L55.9073 18.1793C56.048 18.32 56.127 18.5108 56.127 18.7097V74.3011C56.127 76.0163 54.7267 77.4167 53.0114 77.4167H5.69958C3.98429 77.4167 2.58398 76.0164 2.58398 74.3011V5.69893ZM5.69958 4.08334C4.81271 4.08334 4.08398 4.81207 4.08398 5.69893V74.3011C4.08398 75.1879 4.81272 75.9167 5.69958 75.9167H53.0114C53.8983 75.9167 54.627 75.1879 54.627 74.3011V19.0203L39.69 4.08334H5.69958Z" fill="#00AB97"/>
<path fill-rule="evenodd" clip-rule="evenodd" d="M40 12.0457C40.4142 12.0457 40.75 12.3815 40.75 12.7957V17.5269C40.75 17.7632 40.9465 17.9597 41.1828 17.9597H54.1936C54.6078 17.9597 54.9436 18.2955 54.9436 18.7097C54.9436 19.1239 54.6078 19.4597 54.1936 19.4597H41.1828C40.118 19.4597 39.25 18.5916 39.25 17.5269V12.7957C39.25 12.3815 39.5858 12.0457 40 12.0457Z" fill="#00AB97"/>
</svg>
