<svg width="24" height="24" viewBox="0 0 24 24" fill="none" xmlns="http://www.w3.org/2000/svg">
<g clip-path="url(#clip0)">
<path fill-rule="evenodd" clip-rule="evenodd" d="M13.5 -0.056427V1.51529C17.6922 1.77244 21 5.24181 21 9.50001V10.5H20V9.50001C20 5.62615 16.8739 2.50001 13 2.50001H12.5V1.05644L10.2533 1.29716C6.70717 1.67043 4 4.65645 4 8.25001V10.5H3V8.25001C3 4.14372 6.09351 0.729741 10.1472 0.302802C10.1473 0.302786 10.147 0.302818 10.1472 0.302802L13.5 -0.056427Z" fill="black"/>
<path d="M8.75 13.5C9.44036 13.5 10 12.9404 10 12.25C10 11.5596 9.44036 11 8.75 11C8.05964 11 7.5 11.5596 7.5 12.25C7.5 12.9404 8.05964 13.5 8.75 13.5Z" fill="black"/>
<path d="M15.25 13.5C15.9404 13.5 16.5 12.9404 16.5 12.25C16.5 11.5596 15.9404 11 15.25 11C14.5596 11 14 11.5596 14 12.25C14 12.9404 14.5596 13.5 15.25 13.5Z" fill="black"/>
<path fill-rule="evenodd" clip-rule="evenodd" d="M9.44722 17.2764L9.54722 17.4764C10.0143 18.4105 10.9433 19 12 19C13.0567 19 13.9857 18.4105 14.4528 17.4764L14.5528 17.2764L15.4472 17.7236L15.3472 17.9236C14.7143 19.1895 13.4433 20 12 20C10.5567 20 9.28572 19.1895 8.6528 17.9236L8.5528 17.7236L9.44722 17.2764Z" fill="black"/>
<path fill-rule="evenodd" clip-rule="evenodd" d="M7.38714 6.87848L6.41218 9.31588L4.30001 10.9L3.70001 10.1L5.58785 8.68412L6.61187 6.12405L6.7996 6.04192C8.47157 5.31044 10.2413 5 12 5C13.7587 5 15.5285 5.31044 17.2004 6.04192L17.3882 6.12405L18.4122 8.68412L20.3 10.1L19.7 10.9L17.5878 9.31588L16.6129 6.87848C15.1391 6.26652 13.5746 6 12 6C10.4254 6 8.86093 6.26652 7.38714 6.87848Z" fill="black"/>
<path fill-rule="evenodd" clip-rule="evenodd" d="M1.5 11.75C1.5 10.7739 2.27386 10 3.25 10C4.22614 10 5 10.7739 5 11.75V13.5H4V11.75C4 11.3261 3.67386 11 3.25 11C2.82614 11 2.5 11.3261 2.5 11.75V13C2.5 14.1239 3.37614 15 4.5 15H5V15.5C5 17.2625 5.74256 18.9714 7.07647 20.1213L8.94076 21.7337L8.95355 21.7464C9.75928 22.5522 10.8319 23 12 23C13.1681 23 14.2407 22.5522 15.0464 21.7464L15.0592 21.7337L16.9229 20.1218C18.2568 18.9719 19 17.2625 19 15.5V15H19.5C20.6239 15 21.5 14.1239 21.5 13V11.75C21.5 11.3261 21.1739 11 20.75 11C20.3261 11 20 11.3261 20 11.75V13.5H19V11.75C19 10.7739 19.7739 10 20.75 10C21.7261 10 22.5 10.7739 22.5 11.75V13C22.5 14.5106 21.4247 15.7351 19.9853 15.9622C19.866 17.8355 19.024 19.6306 17.5768 20.8784C17.5767 20.8785 17.577 20.8783 17.5768 20.8784L15.7404 22.4666C14.7476 23.4527 13.4256 24 12 24C10.5744 24 9.25239 23.4527 8.25957 22.4666L6.42353 20.8787C6.42346 20.8786 6.4236 20.8788 6.42353 20.8787C4.97627 19.631 4.13404 17.8355 4.01471 15.9622C2.57532 15.7351 1.5 14.5106 1.5 13V11.75Z" fill="black"/>
</g>
<defs>
<clipPath id="clip0">
<rect width="24" height="24" fill="white"/>
</clipPath>
</defs>
</svg>
