<svg width="28" height="22" viewBox="0 0 28 22" fill="none" xmlns="http://www.w3.org/2000/svg">
<path d="M22.7339 18.2328C22.7339 18.5516 22.5174 18.7812 22.2067 18.7812C21.8865 18.7812 21.6794 18.5375 21.6794 18.2328C21.6794 17.9281 21.8865 17.6844 22.2067 17.6844C22.5174 17.6844 22.7339 17.9281 22.7339 18.2328ZM8.10211 17.6844C7.76786 17.6844 7.57484 17.9281 7.57484 18.2328C7.57484 18.5375 7.76786 18.7812 8.10211 18.7812C8.40812 18.7812 8.61526 18.5516 8.61526 18.2328C8.61055 17.9281 8.40812 17.6844 8.10211 17.6844ZM13.6338 17.6703C13.3795 17.6703 13.2242 17.8344 13.1865 18.0781H14.0857C14.0433 17.8109 13.8786 17.6703 13.6338 17.6703ZM18.7088 17.6844C18.3886 17.6844 18.1956 17.9281 18.1956 18.2328C18.1956 18.5375 18.3886 18.7812 18.7088 18.7812C19.0289 18.7812 19.236 18.5516 19.236 18.2328C19.236 17.9281 19.0289 17.6844 18.7088 17.6844ZM23.6943 18.9078C23.6943 18.9219 23.7084 18.9312 23.7084 18.9594C23.7084 18.9734 23.6943 18.9828 23.6943 19.0109C23.6802 19.025 23.6802 19.0344 23.6708 19.0484C23.6567 19.0625 23.6472 19.0719 23.619 19.0719C23.6049 19.0859 23.5955 19.0859 23.5672 19.0859C23.5531 19.0859 23.5437 19.0859 23.5154 19.0719C23.5013 19.0719 23.4919 19.0578 23.4778 19.0484C23.4636 19.0344 23.4542 19.025 23.4542 19.0109C23.4401 18.9875 23.4401 18.9734 23.4401 18.9594C23.4401 18.9359 23.4401 18.9219 23.4542 18.9078C23.4542 18.8844 23.4683 18.8703 23.4778 18.8563C23.4919 18.8422 23.5013 18.8422 23.5154 18.8328C23.539 18.8188 23.5531 18.8187 23.5672 18.8187C23.5907 18.8187 23.6049 18.8188 23.619 18.8328C23.6425 18.8469 23.6567 18.8469 23.6708 18.8563C23.6849 18.8656 23.6802 18.8844 23.6943 18.9078ZM23.5907 18.9734C23.6143 18.9734 23.6143 18.9594 23.6284 18.9594C23.6425 18.9453 23.6425 18.9359 23.6425 18.9219C23.6425 18.9078 23.6425 18.8984 23.6284 18.8844C23.6143 18.8844 23.6049 18.8703 23.5766 18.8703H23.5013V19.0344H23.539V18.9688H23.5531L23.6049 19.0344H23.6425L23.5907 18.9734ZM27.1169 2.79688V19.2969C27.1169 20.5391 26.1047 21.5469 24.8571 21.5469H2.25974C1.01218 21.5469 0 20.5391 0 19.2969V2.79688C0 1.55469 1.01218 0.546875 2.25974 0.546875H24.8571C26.1047 0.546875 27.1169 1.55469 27.1169 2.79688ZM3.01299 9.34063C3.01299 12.9266 5.93653 15.8328 9.53328 15.8328C10.8138 15.8328 12.0708 15.4484 13.1347 14.75C9.70276 11.9703 9.7263 6.725 13.1347 3.94531C12.0708 3.24219 10.8138 2.8625 9.53328 2.8625C5.93653 2.85781 3.01299 5.76875 3.01299 9.34063ZM13.5584 14.4406C16.8774 11.8625 16.8633 6.8375 13.5584 4.24531C10.2536 6.8375 10.2394 11.8672 13.5584 14.4406ZM6.85925 18.0172C6.85925 17.6094 6.59091 17.3422 6.16721 17.3281C5.95065 17.3281 5.71997 17.3937 5.56461 17.6328C5.45162 17.4406 5.2586 17.3281 4.99026 17.3281C4.81136 17.3281 4.63247 17.3937 4.49123 17.5812V17.375H4.10519V19.0953H4.49123C4.49123 18.2094 4.37354 17.6797 4.91494 17.6797C5.39513 17.6797 5.30097 18.1578 5.30097 19.0953H5.67289C5.67289 18.2375 5.55519 17.6797 6.09659 17.6797C6.57679 17.6797 6.48263 18.1484 6.48263 19.0953H6.86867V18.0172H6.85925ZM8.97305 17.375H8.60114V17.5812C8.47403 17.4266 8.29513 17.3281 8.05032 17.3281C7.56542 17.3281 7.19351 17.7125 7.19351 18.2328C7.19351 18.7578 7.56542 19.1375 8.05032 19.1375C8.29513 19.1375 8.47403 19.0484 8.60114 18.8844V19.1H8.97305V17.375ZM10.8797 18.575C10.8797 17.8719 9.80162 18.1906 9.80162 17.8625C9.80162 17.5953 10.3618 17.6375 10.6726 17.8109L10.8279 17.5062C10.3854 17.2203 9.40617 17.225 9.40617 17.8906C9.40617 18.5609 10.4843 18.2797 10.4843 18.5938C10.4843 18.8891 9.8487 18.8656 9.50974 18.6312L9.34497 18.9266C9.87224 19.2828 10.8797 19.2078 10.8797 18.575ZM12.5463 19.0109L12.4427 18.6922C12.2638 18.7906 11.8683 18.8984 11.8683 18.5V17.7219H12.4851V17.375H11.8683V16.85H11.4823V17.375H11.1245V17.7172H11.4823V18.5C11.4823 19.325 12.2968 19.175 12.5463 19.0109ZM13.1724 18.3828H14.467C14.467 17.6234 14.1187 17.3234 13.6479 17.3234C13.1489 17.3234 12.7911 17.6938 12.7911 18.2281C12.7911 19.1891 13.855 19.3484 14.3823 18.8937L14.2034 18.6125C13.8362 18.9125 13.2807 18.8844 13.1724 18.3828ZM15.9547 17.375C15.7381 17.2812 15.4086 17.2906 15.2391 17.5812V17.375H14.8531V19.0953H15.2391V18.125C15.2391 17.5812 15.6864 17.6516 15.8417 17.7313L15.9547 17.375ZM16.4537 18.2328C16.4537 17.6984 16.9998 17.525 17.4282 17.8391L17.6071 17.5344C17.061 17.1078 16.0677 17.3422 16.0677 18.2375C16.0677 19.1656 17.1222 19.3531 17.6071 18.9406L17.4282 18.6359C16.9951 18.9406 16.4537 18.7578 16.4537 18.2328ZM19.5938 17.375H19.2078V17.5812C18.817 17.0656 17.8002 17.3562 17.8002 18.2328C17.8002 19.1328 18.8547 19.3906 19.2078 18.8844V19.1H19.5938V17.375ZM21.1804 17.375C21.0674 17.3188 20.6625 17.2391 20.4648 17.5812V17.375H20.0929V19.0953H20.4648V18.125C20.4648 17.6094 20.8885 17.6422 21.0674 17.7313L21.1804 17.375ZM23.0776 16.6766H22.7057V17.5812C22.3196 17.0703 21.298 17.3422 21.298 18.2328C21.298 19.1422 22.3573 19.3859 22.7057 18.8844V19.1H23.0776V16.6766ZM23.4354 13.1562V13.3719H23.4731V13.1562H23.5625V13.1188H23.3459V13.1562H23.4354ZM23.7461 18.9594C23.7461 18.9359 23.7461 18.9078 23.732 18.8844C23.7179 18.8703 23.7084 18.8469 23.6943 18.8328C23.6802 18.8188 23.6567 18.8094 23.6425 18.7953C23.619 18.7953 23.5907 18.7812 23.5672 18.7812C23.5531 18.7812 23.5295 18.7953 23.5013 18.7953C23.4778 18.8094 23.4636 18.8188 23.4495 18.8328C23.426 18.8469 23.4118 18.8703 23.4118 18.8844C23.3977 18.9078 23.3977 18.9359 23.3977 18.9594C23.3977 18.9734 23.3977 18.9969 23.4118 19.025C23.4118 19.0391 23.426 19.0625 23.4495 19.0766C23.4636 19.0906 23.4731 19.1 23.5013 19.1141C23.5248 19.1281 23.5531 19.1281 23.5672 19.1281C23.5907 19.1281 23.619 19.1281 23.6425 19.1141C23.6567 19.1 23.6802 19.0906 23.6943 19.0766C23.7084 19.0625 23.7179 19.0391 23.732 19.025C23.7461 18.9969 23.7461 18.9734 23.7461 18.9594ZM23.8968 13.1141H23.8308L23.7555 13.2781L23.6802 13.1141H23.6143V13.3672H23.6519V13.175L23.7273 13.3391H23.7791L23.845 13.175V13.3672H23.8968V13.1141ZM24.1039 9.34063C24.1039 5.76875 21.1804 2.85781 17.5836 2.85781C16.3031 2.85781 15.0461 3.24219 13.9821 3.94063C17.3765 6.72031 17.4282 11.9797 13.9821 14.7453C15.0461 15.4484 16.3125 15.8281 17.5836 15.8281C21.1804 15.8328 24.1039 12.9266 24.1039 9.34063Z" fill="#262626"/>
</svg>
