<svg width="24" height="24" viewBox="0 0 24 24" fill="none" xmlns="http://www.w3.org/2000/svg">
<g clip-path="url(#clip0)">
<path fill-rule="evenodd" clip-rule="evenodd" d="M4.96685 2.91604L4.91434 2.96823C1.02855 6.83014 1.02855 13.0927 4.91434 16.9546L12.0033 24L19.0922 16.9546C22.978 13.0927 22.978 6.83014 19.0397 2.91604C19.0265 2.90298 19.0134 2.88997 19.0002 2.877C15.0597 -0.997673 8.83967 -0.932993 4.96685 2.91604ZM12.0033 22.5901L5.61926 16.2453C2.12691 12.7744 2.12691 7.14841 5.61926 3.67751C5.61926 3.67751 5.61926 3.67751 5.61926 3.67751L5.67177 3.62532L5.67177 3.62532C9.17096 0.147623 14.7899 0.102242 18.3348 3.62532C21.8831 7.15186 21.8762 12.7779 18.3873 16.2453L12.0033 22.5901Z" fill="#002337"/>
<path fill-rule="evenodd" clip-rule="evenodd" d="M12 8C10.8954 8 10 8.89543 10 10C10 11.1046 10.8954 12 12 12C13.1046 12 14 11.1046 14 10C14 8.89543 13.1046 8 12 8ZM9 10C9 8.34315 10.3431 7 12 7C13.6569 7 15 8.34315 15 10C15 11.6569 13.6569 13 12 13C10.3431 13 9 11.6569 9 10Z" fill="#002337"/>
</g>
<defs>
<clipPath id="clip0">
<rect width="24" height="24" fill="white"/>
</clipPath>
</defs>
</svg>
