<svg width="80" height="80" viewBox="0 0 80 80" fill="none" xmlns="http://www.w3.org/2000/svg">
<path fill-rule="evenodd" clip-rule="evenodd" d="M9.24796 4.08334C6.40949 4.08334 4.08398 6.40884 4.08398 9.24731V12.0457H8.81517V13.5457H3.33398C2.91977 13.5457 2.58398 13.2099 2.58398 12.7957V9.24731C2.58398 5.58041 5.58106 2.58334 9.24796 2.58334C9.39297 2.58334 9.53692 2.58802 9.67969 2.59725V2.58334H55.3759C59.7052 2.58334 63.2227 6.10084 63.2227 10.4301V27.2838C63.3733 27.3305 63.5105 27.4249 63.6095 27.5629L76.148 45.0457C76.1579 45.0595 76.1674 45.0737 76.1763 45.0882C76.4423 45.5181 76.8283 46.2435 77.1501 47.0633C77.4674 47.8716 77.7501 48.8407 77.7501 49.7354V58.4691C77.7501 58.5278 77.7432 58.5863 77.7295 58.6434L75.0803 69.735V72.3683H76.6673C77.0815 72.3683 77.4173 72.7041 77.4173 73.1183V77.4167H75.9173V73.8683H56.127V77.4167H54.627V73.1183C54.627 72.7041 54.9627 72.3683 55.377 72.3683H57.7503V70.9917C57.7503 70.3399 57.583 69.7018 57.2679 69.1371H41.6152V67.6371H56.2638C53.7619 63.6516 52.8668 58.8429 53.7963 54.1957L54.2503 51.9257V40.25C54.2503 37.7647 56.265 35.75 58.7503 35.75C59.8896 35.75 60.9299 36.1734 61.7227 36.8714V10.4301C61.7227 6.92927 58.8768 4.08334 55.3759 4.08334H13.4495C14.9501 5.30761 15.9119 7.16998 15.9119 9.24731V67.6371H21.8259V69.1371H15.1619C14.7477 69.1371 14.4119 68.8013 14.4119 68.3871V9.24731C14.4119 6.40884 12.0864 4.08334 9.24796 4.08334ZM61.7503 40.75V51.25C61.7503 52.9069 63.0934 54.25 64.7503 54.25C66.4071 54.25 67.7503 52.9069 67.7503 51.25V46.7657L63.2503 40.2657V40.25C63.2503 40.0806 63.2409 39.9135 63.2227 39.749V29.5973L74.9137 45.8985C75.1353 46.26 75.4723 46.8941 75.7538 47.6114C76.0455 48.3545 76.2501 49.118 76.2501 49.7354V58.3808L73.6008 69.4725C73.5872 69.5296 73.5803 69.588 73.5803 69.6467V72.3683H59.2503V70.9917C59.2503 69.863 58.8904 68.7637 58.2229 67.8536C55.4054 64.0114 54.3328 59.1619 55.2672 54.4899L55.7503 52.0743V40.25C55.7503 38.5931 57.0934 37.25 58.7503 37.25C60.2686 37.25 61.5234 38.3779 61.7227 39.8415V40.75H61.7503ZM63.2503 51.25V42.9009L66.2503 47.2343V51.25C66.2503 52.0784 65.5787 52.75 64.7503 52.75C63.9219 52.75 63.2503 52.0784 63.2503 51.25Z" fill="#00AB97"/>
<path d="M31.7207 16.7769C31.3065 16.7769 30.9707 17.1127 30.9707 17.5269C30.9707 17.9411 31.3065 18.2769 31.7207 18.2769H45.9142C46.3285 18.2769 46.6642 17.9411 46.6642 17.5269C46.6642 17.1127 46.3285 16.7769 45.9142 16.7769H31.7207Z" fill="#00AB97"/>
<path d="M23.873 28.172C23.873 27.7578 24.2088 27.422 24.623 27.422H53.0101C53.4244 27.422 53.7601 27.7578 53.7601 28.172C53.7601 28.5862 53.4244 28.922 53.0101 28.922H24.623C24.2088 28.922 23.873 28.5862 23.873 28.172Z" fill="#00AB97"/>
<path d="M24.623 34.5188C24.2088 34.5188 23.873 34.8546 23.873 35.2688C23.873 35.683 24.2088 36.0188 24.623 36.0188H49.4618C49.876 36.0188 50.2118 35.683 50.2118 35.2688C50.2118 34.8546 49.876 34.5188 49.4618 34.5188H24.623Z" fill="#00AB97"/>
<path d="M23.873 42.3656C23.873 41.9514 24.2088 41.6156 24.623 41.6156H37.6338C38.048 41.6156 38.3838 41.9514 38.3838 42.3656C38.3838 42.7798 38.048 43.1156 37.6338 43.1156H24.623C24.2088 43.1156 23.873 42.7798 23.873 42.3656Z" fill="#00AB97"/>
<path fill-rule="evenodd" clip-rule="evenodd" d="M27.4256 76.592L28.6419 64.4289C28.4868 64.4137 28.3301 64.4059 28.1725 64.4059C27.1078 64.4059 26.2397 63.5379 26.2397 62.4731C26.2397 61.2064 25.7398 60.0002 24.8491 59.0985C24.0966 58.3442 24.0972 57.1254 24.8508 56.3718C25.739 55.4837 26.2397 54.2788 26.2397 53.0108C26.2397 51.946 27.1078 51.078 28.1725 51.078C29.4393 51.078 30.6455 50.5781 31.5472 49.6873C32.3015 48.9349 33.5202 48.9354 34.2738 49.689C35.162 50.5772 36.3668 51.078 37.6349 51.078C38.6996 51.078 39.5677 51.946 39.5677 53.0108C39.5677 54.2775 40.0676 55.4837 40.9583 56.3854C41.7108 57.1397 41.7102 58.3584 40.9566 59.1121C40.0685 60.0002 39.5677 61.2051 39.5677 62.4731C39.5677 63.5379 38.6996 64.4059 37.6349 64.4059C37.4769 64.4059 37.3199 64.4137 37.1642 64.429L38.3805 76.592C38.4077 76.864 38.2849 77.1291 38.0598 77.2842C37.8348 77.4393 37.5433 77.4597 37.2988 77.3375L32.9031 75.1396L28.5073 77.3375C28.2629 77.4597 27.9713 77.4393 27.7463 77.2842C27.5213 77.1291 27.3984 76.864 27.4256 76.592ZM29.0536 75.3873L30.1106 64.8168C30.6367 65.0509 31.1195 65.3808 31.5336 65.7949C32.2872 66.5485 33.506 66.549 34.2603 65.7965C34.6808 65.3812 35.1674 65.0509 35.6955 64.8165L36.7526 75.3873L33.2385 73.6302C33.0273 73.5247 32.7788 73.5247 32.5677 73.6302L29.0536 75.3873ZM33.2132 50.7497C33.0448 50.5813 32.7745 50.5813 32.6061 50.7497L32.6031 50.7527C31.4231 51.9192 29.8385 52.578 28.1725 52.578C27.9362 52.578 27.7397 52.7744 27.7397 53.0108C27.7397 54.676 27.0814 56.2626 25.9115 57.4325C25.7431 57.6009 25.7431 57.8712 25.9115 58.0396L25.9145 58.0426C27.081 59.2225 27.7397 60.8071 27.7397 62.4731C27.7397 62.7095 27.9362 62.9059 28.1725 62.9059C29.8378 62.9059 31.4243 63.5643 32.5943 64.7342C32.7627 64.9026 33.0329 64.9026 33.2013 64.7342L33.2044 64.7312C34.3843 63.5647 35.9689 62.9059 37.6349 62.9059C37.8712 62.9059 38.0677 62.7095 38.0677 62.4731C38.0677 60.8079 38.7261 59.2213 39.896 58.0514C40.0644 57.883 40.0644 57.6127 39.896 57.4443L39.8929 57.4413C38.7265 56.2614 38.0677 54.6768 38.0677 53.0108C38.0677 52.7744 37.8712 52.578 37.6349 52.578C35.9696 52.578 34.3831 51.9196 33.2132 50.7497Z" fill="#00AB97"/>
</svg>
