<svg width="24" height="24" viewBox="0 0 24 24" fill="none" xmlns="http://www.w3.org/2000/svg">
<g clip-path="url(#clip0)">
<path fill-rule="evenodd" clip-rule="evenodd" d="M7.32521 -0.0606689L8.73794 5.59027L8.74028 5.60193C8.85924 6.19675 8.79989 6.84219 8.56728 7.42801L7.85179 9.39563C8.70578 10.7884 9.69466 12.0876 10.9035 13.2964C12.0643 14.4572 13.3566 15.4848 14.7378 16.3377L16.8884 15.3968C17.4976 15.0958 18.1559 15.0429 18.7894 15.1581L18.8006 15.1601L24.0426 16.3614L23.2487 24.0737L22.7744 24.0493C16.8032 23.7431 11.1857 21.2928 6.94643 17.0535L6.94427 17.0514C2.80875 12.8648 0.358226 7.35055 0.000910372 1.48037L-0.0269775 1.02221L7.32521 -0.0606689ZM1.03138 1.87712C1.4704 7.33482 3.79835 12.4431 7.65458 16.3475C11.6031 20.2955 16.8009 22.6258 22.3517 23.0216L22.9573 17.1386L18.5998 16.14C18.1415 16.0586 17.7081 16.105 17.3236 16.2972L17.3121 16.3029L14.664 17.4615L14.4427 17.3287C12.9066 16.4071 11.4744 15.2816 10.1964 14.0035C8.86382 12.6709 7.78939 11.2375 6.87124 9.70724L6.74869 9.50298L7.6328 7.07166L7.63575 7.0643C7.79911 6.6559 7.83948 6.20886 7.76187 5.80907L6.57476 1.06065L1.03138 1.87712Z" fill="#002337"/>
</g>
<defs>
<clipPath id="clip0">
<rect width="24" height="24" fill="white"/>
</clipPath>
</defs>
</svg>
