<svg width="16" height="16" viewBox="0 0 16 16" fill="none" xmlns="http://www.w3.org/2000/svg">
<g clip-path="url(#clip0)">
<path fill-rule="evenodd" clip-rule="evenodd" d="M16 9.93216L13.8454 10.0938C13.7896 10.0973 13.736 10.1165 13.6909 10.1494C13.6636 10.1693 13.6401 10.1937 13.6213 10.2213L13.583 10.3134C13.5618 10.3642 13.5553 10.4199 13.564 10.4742C13.5726 10.528 13.5959 10.5783 13.6312 10.6197C13.6316 10.6202 13.632 10.6206 13.6324 10.6211L15.0404 12.2333L12.2482 15.0313L10.6336 13.6266C10.5921 13.5915 10.5418 13.5684 10.4882 13.5599C10.4338 13.5513 10.3782 13.5579 10.3274 13.5792L10.2623 13.6064C10.2318 13.6268 10.2051 13.6526 10.1836 13.6827C10.1505 13.7288 10.1307 13.7831 10.1265 13.8397C10.1265 13.8398 10.1265 13.8395 10.1265 13.8397L9.97182 16H6.03763L5.85249 13.826L5.85194 13.818C5.84787 13.7591 5.82764 13.7025 5.79346 13.6544C5.77058 13.6222 5.74204 13.5946 5.70938 13.5729L5.65312 13.5495C5.6023 13.5284 5.54661 13.5218 5.49228 13.5305C5.43853 13.5392 5.3882 13.5624 5.34681 13.5977L3.7325 15.0076L0.937635 12.2127L2.34631 10.5998C2.34669 10.5993 2.34708 10.5989 2.34746 10.5984C2.38279 10.557 2.40605 10.5067 2.41469 10.4529C2.42342 10.3986 2.41685 10.3429 2.39573 10.2921L2.36637 10.2215C2.34722 10.1931 2.32318 10.1682 2.29521 10.1479C2.25106 10.116 2.19888 10.097 2.14453 10.093L2.1426 10.0929L0 9.93216V5.98944L2.14021 5.83428C2.19491 5.82948 2.24719 5.80943 2.29108 5.77639C2.33559 5.74289 2.36965 5.6974 2.38927 5.64526L3.32521 5.99739C3.23875 6.2272 3.08866 6.42767 2.89249 6.57534C2.69631 6.72301 2.46216 6.81179 2.21739 6.8313L1 6.91957V9.00435L2.21739 9.09565C2.45696 9.11315 2.68693 9.19702 2.88152 9.33786C3.07611 9.4787 3.22764 9.67094 3.31913 9.89304V9.90826C3.41149 10.1305 3.4402 10.374 3.40203 10.6115C3.36387 10.8491 3.26034 11.0714 3.10304 11.2535L2.30565 12.1665L3.7787 13.6396L4.69174 12.8422C4.87383 12.6849 5.0961 12.5813 5.33368 12.5432C5.57125 12.505 5.81476 12.5337 6.03696 12.6261H6.05217C6.27553 12.7218 6.46815 12.8773 6.60884 13.0754C6.74952 13.2736 6.83282 13.5067 6.84956 13.7491L6.95609 15H9.04087L9.12913 13.7674C9.1467 13.5267 9.23048 13.2956 9.3712 13.0995C9.51192 12.9035 9.70411 12.7502 9.92652 12.6565H9.94174C10.1637 12.5638 10.407 12.5346 10.6446 12.5722C10.8821 12.6098 11.1046 12.7128 11.287 12.8696L12.2 13.6639L13.673 12.1878L12.8757 11.2748C12.7184 11.0927 12.6148 10.8704 12.5767 10.6328C12.5385 10.3953 12.5672 10.1518 12.6596 9.92956V9.91435C12.7494 9.68516 12.9029 9.48638 13.1018 9.34136C13.3007 9.19634 13.5369 9.1111 13.7826 9.09565L15 9.00435V6.91957L13.7826 6.8313C13.543 6.8138 13.3131 6.72993 13.1185 6.5891C12.9239 6.44826 12.7724 6.25602 12.6809 6.03391V6.0187C12.5885 5.7965 12.5598 5.55299 12.598 5.31541C12.6361 5.07784 12.7397 4.85557 12.897 4.67348L13.6943 3.76043L12.2122 2.27522L11.2991 3.07261C11.117 3.22991 10.8948 3.33343 10.6572 3.3716C10.4196 3.40976 10.1761 3.38106 9.95391 3.2887H9.9387C9.71761 3.20097 9.52562 3.05287 9.38463 2.8613C9.24364 2.66973 9.15933 2.44239 9.1413 2.20522L9.04087 1H6.95609L6.86783 2.19913C6.85006 2.4375 6.76597 2.66615 6.62505 2.85923C6.48414 3.05231 6.29203 3.20212 6.07043 3.29174C5.84824 3.3841 5.60473 3.4128 5.36715 3.37464C5.12958 3.33648 4.90731 3.23295 4.72522 3.07565L3.81217 2.27826L2.31174 3.73913L3.10913 4.65217C3.26643 4.83426 3.36996 5.05653 3.40812 5.29411C3.44628 5.53169 3.41757 5.7752 3.32521 5.99739L2.40182 5.61355C2.42294 5.56274 2.4295 5.50705 2.42078 5.45271C2.41214 5.39895 2.38887 5.34861 2.35353 5.30721L0.935438 3.68345L3.77535 0.918426L5.38025 2.32004C5.42165 2.35539 5.47199 2.37866 5.52575 2.3873C5.58009 2.39603 5.63578 2.38946 5.6866 2.36834L6.07043 3.29174L5.69553 2.36468C5.74418 2.345 5.78636 2.31211 5.81729 2.26972C5.84816 2.22742 5.86661 2.17734 5.87057 2.12513C5.87058 2.12502 5.87056 2.12524 5.87057 2.12513L6.02699 0H9.961L10.1385 2.12943C10.1423 2.17973 10.1601 2.22794 10.19 2.26856C10.2077 2.29263 10.2292 2.31346 10.2536 2.3303L10.3377 2.36529C10.3886 2.38642 10.4443 2.39298 10.4986 2.38425C10.5523 2.37562 10.6027 2.35235 10.6441 2.31702C10.6445 2.31664 10.645 2.31626 10.6454 2.31587L12.2591 0.906568L15.0617 3.71496L13.6525 5.32855C13.6172 5.36994 13.5939 5.42027 13.5853 5.47401C13.5766 5.52835 13.5831 5.58404 13.6043 5.63486L13.6336 5.7055C13.6528 5.73385 13.6768 5.75877 13.7048 5.77901C13.7489 5.81096 13.8011 5.82999 13.8555 5.83396L16 5.98944V9.93216Z" fill="#939393"/>
<path fill-rule="evenodd" clip-rule="evenodd" d="M7.99996 6.16669C6.98744 6.16669 6.16663 6.9875 6.16663 8.00002C6.16663 9.01254 6.98744 9.83335 7.99996 9.83335C9.01248 9.83335 9.83329 9.01254 9.83329 8.00002C9.83329 6.9875 9.01248 6.16669 7.99996 6.16669ZM5.16663 8.00002C5.16663 6.43521 6.43515 5.16669 7.99996 5.16669C9.56477 5.16669 10.8333 6.43521 10.8333 8.00002C10.8333 9.56483 9.56477 10.8334 7.99996 10.8334C6.43515 10.8334 5.16663 9.56483 5.16663 8.00002Z" fill="#939393"/>
</g>
<defs>
<clipPath id="clip0">
<rect width="16" height="16" fill="white"/>
</clipPath>
</defs>
</svg>
