<svg width="80" height="80" viewBox="0 0 80 80" fill="none" xmlns="http://www.w3.org/2000/svg">
<path fill-rule="evenodd" clip-rule="evenodd" d="M12.0469 3.33334C12.0469 2.91912 12.3827 2.58334 12.7969 2.58334H60.1087C65.1003 2.58334 69.1383 6.62127 69.1383 11.6129V18.7097C69.1383 19.1239 68.8025 19.4597 68.3883 19.4597C67.9741 19.4597 67.6383 19.1239 67.6383 18.7097V11.6129C67.6383 7.4497 64.2719 4.08334 60.1087 4.08334H12.7969C12.3827 4.08334 12.0469 3.74755 12.0469 3.33334Z" fill="#00AB97"/>
<path fill-rule="evenodd" clip-rule="evenodd" d="M2.58398 11.6129C2.58398 6.64493 6.64558 2.58334 11.6136 2.58334C16.5815 2.58334 20.6431 6.64493 20.6431 11.6129V68.3871C20.6431 72.5266 24.0331 75.9167 28.1727 75.9167C32.3122 75.9167 35.7023 72.5266 35.7023 68.3871C35.7023 67.9729 36.038 67.6371 36.4523 67.6371H76.6673C77.0815 67.6371 77.4173 67.9729 77.4173 68.3871C77.4173 73.3551 73.3557 77.4167 68.3877 77.4167H28.1727C23.2047 77.4167 19.1431 73.3551 19.1431 68.3871V11.6129C19.1431 7.47336 15.7531 4.08334 11.6136 4.08334C7.72701 4.08334 4.50117 7.07164 4.12137 10.8629H11.1808V12.3629H3.33398C2.91977 12.3629 2.58398 12.0271 2.58398 11.6129ZM33.1426 75.9167H68.3877C72.2743 75.9167 75.5001 72.9284 75.8799 69.1371H37.1712C36.9364 71.9616 35.3881 74.4269 33.1426 75.9167Z" fill="#00AB97"/>
<path fill-rule="evenodd" clip-rule="evenodd" d="M53.0115 20.6425C43.6271 20.6425 36.0195 28.25 36.0195 37.6344C36.0195 47.0188 43.6271 54.6263 53.0115 54.6263C62.3959 54.6263 70.0034 47.0188 70.0034 37.6344C70.0034 28.25 62.3959 20.6425 53.0115 20.6425ZM34.5195 37.6344C34.5195 27.4216 42.7987 19.1425 53.0115 19.1425C63.2243 19.1425 71.5034 27.4216 71.5034 37.6344C71.5034 47.8472 63.2243 56.1263 53.0115 56.1263C42.7987 56.1263 34.5195 47.8472 34.5195 37.6344Z" fill="#00AB97"/>
<path fill-rule="evenodd" clip-rule="evenodd" d="M69.382 45.0188L74.3952 50.032C77.0418 52.6786 77.0418 57.0212 74.3952 59.6679C71.7485 62.3145 67.4059 62.3145 64.7592 59.6679L59.7461 54.6548L60.8068 53.5941L65.8199 58.6072C67.8808 60.6681 71.2736 60.6681 73.3345 58.6072C75.3954 56.5464 75.3954 53.1535 73.3345 51.0926L68.3214 46.0795L69.382 45.0188Z" fill="#00AB97"/>
<path fill-rule="evenodd" clip-rule="evenodd" d="M43.9805 26.9893C43.9805 26.575 44.3163 26.2393 44.7305 26.2393H54.1928C54.607 26.2393 54.9428 26.575 54.9428 26.9893C54.9428 27.4035 54.607 27.7393 54.1928 27.7393H44.7305C44.3163 27.7393 43.9805 27.4035 43.9805 26.9893Z" fill="#00AB97"/>
<path fill-rule="evenodd" clip-rule="evenodd" d="M39.25 37.6344C39.25 37.2202 39.5858 36.8844 40 36.8844H54.1936C54.6078 36.8844 54.9436 37.2202 54.9436 37.6344C54.9436 38.0487 54.6078 38.3844 54.1936 38.3844H40C39.5858 38.3844 39.25 38.0487 39.25 37.6344Z" fill="#00AB97"/>
<path fill-rule="evenodd" clip-rule="evenodd" d="M43.9805 48.2796C43.9805 47.8654 44.3163 47.5296 44.7305 47.5296H54.1928C54.607 47.5296 54.9428 47.8654 54.9428 48.2796C54.9428 48.6938 54.607 49.0296 54.1928 49.0296H44.7305C44.3163 49.0296 43.9805 48.6938 43.9805 48.2796Z" fill="#00AB97"/>
<path fill-rule="evenodd" clip-rule="evenodd" d="M27.4219 29.3549C27.4219 28.9407 27.7577 28.6049 28.1719 28.6049H36.4514C36.8657 28.6049 37.2014 28.9407 37.2014 29.3549C37.2014 29.7691 36.8657 30.1049 36.4514 30.1049H28.1719C27.7577 30.1049 27.4219 29.7691 27.4219 29.3549Z" fill="#00AB97"/>
<path fill-rule="evenodd" clip-rule="evenodd" d="M27.4219 37.6344C27.4219 37.2202 27.7577 36.8844 28.1719 36.8844H34.0859C34.5001 36.8844 34.8359 37.2202 34.8359 37.6344C34.8359 38.0487 34.5001 38.3844 34.0859 38.3844H28.1719C27.7577 38.3844 27.4219 38.0487 27.4219 37.6344Z" fill="#00AB97"/>
<path fill-rule="evenodd" clip-rule="evenodd" d="M27.4219 45.9141C27.4219 45.4998 27.7577 45.1641 28.1719 45.1641H36.4514C36.8657 45.1641 37.2014 45.4998 37.2014 45.9141C37.2014 46.3283 36.8657 46.6641 36.4514 46.6641H28.1719C27.7577 46.6641 27.4219 46.3283 27.4219 45.9141Z" fill="#00AB97"/>
</svg>
