<svg width="24" height="24" viewBox="0 0 24 24" fill="none" xmlns="http://www.w3.org/2000/svg">
<g clip-path="url(#clip0)">
<path fill-rule="evenodd" clip-rule="evenodd" d="M16.8462 1H7.15385C6.49154 1 6 1.52092 6 2.08696V21.913C6 22.4791 6.49154 23 7.15385 23H16.8462C17.5085 23 18 22.4791 18 21.913V2.08696C18 1.52092 17.5085 1 16.8462 1ZM16.8462 0H7.15385C5.96923 0 5 0.93913 5 2.08696V21.913C5 23.0609 5.96923 24 7.15385 24H16.8462C18.0308 24 19 23.0609 19 21.913V2.08696C19 0.93913 18.0308 0 16.8462 0Z" fill="#002337"/>
<path d="M12 22.5C12.5523 22.5 13 22.0523 13 21.5C13 20.9477 12.5523 20.5 12 20.5C11.4477 20.5 11 20.9477 11 21.5C11 22.0523 11.4477 22.5 12 22.5Z" fill="#002337"/>
<path fill-rule="evenodd" clip-rule="evenodd" d="M18.5 20H5.5V19H18.5V20Z" fill="#002337"/>
</g>
<defs>
<clipPath id="clip0">
<rect width="24" height="24" fill="white"/>
</clipPath>
</defs>
</svg>
