<svg width="16" height="16" viewBox="0 0 16 16" fill="none" xmlns="http://www.w3.org/2000/svg">
<g clip-path="url(#clip0)">
<path fill-rule="evenodd" clip-rule="evenodd" d="M8 15C11.866 15 15 11.866 15 8C15 4.13401 11.866 1 8 1C4.13401 1 1 4.13401 1 8C1 11.866 4.13401 15 8 15ZM8 16C12.4183 16 16 12.4183 16 8C16 3.58172 12.4183 0 8 0C3.58172 0 0 3.58172 0 8C0 12.4183 3.58172 16 8 16Z" fill="#002337"/>
<path fill-rule="evenodd" clip-rule="evenodd" d="M6.74714 3.8353C7.95983 3.12441 9.46298 3.5501 10.1647 4.74712C10.8756 5.95982 10.4499 7.46296 9.25286 8.16467L9.25052 8.16604C8.77514 8.44126 8.5 8.94093 8.5 9.46665V9.99998H7.5V9.46665C7.5 8.59285 7.95769 7.75964 8.74817 7.30136C9.48368 6.8695 9.72423 5.97315 9.30198 5.25284C8.87114 4.51787 7.97676 4.27643 7.2568 4.6957C6.79236 4.9812 6.5 5.45962 6.5 5.99998H5.5C5.5 5.07521 6.00599 4.28812 6.73927 3.84001L6.74714 3.8353Z" fill="#002337"/>
<path d="M8 12.3333C8.36819 12.3333 8.66667 12.0348 8.66667 11.6667C8.66667 11.2985 8.36819 11 8 11C7.63181 11 7.33333 11.2985 7.33333 11.6667C7.33333 12.0348 7.63181 12.3333 8 12.3333Z" fill="#002337"/>
</g>
<defs>
<clipPath id="clip0">
<rect width="16" height="16" fill="white"/>
</clipPath>
</defs>
</svg>
