<svg width="14" height="16" viewBox="0 0 14 16" fill="none" xmlns="http://www.w3.org/2000/svg">
<path d="M13.5 3H9.5C9.5 2.33696 9.23661 1.70107 8.76777 1.23223C8.29893 0.763392 7.66304 0.5 7 0.5C6.33696 0.5 5.70107 0.763392 5.23223 1.23223C4.76339 1.70107 4.5 2.33696 4.5 3H0.5C0.367392 3 0.240215 3.05268 0.146447 3.14645C0.0526784 3.24021 0 3.36739 0 3.5V5C0 5.13261 0.0526784 5.25979 0.146447 5.35355C0.240215 5.44732 0.367392 5.5 0.5 5.5H1L2.285 14.43C2.3267 14.7239 2.47204 14.9933 2.69483 15.1895C2.91761 15.3857 3.20317 15.4958 3.5 15.5H10.42C10.7194 15.4994 11.0086 15.3908 11.2345 15.1943C11.4604 14.9978 11.6079 14.7264 11.65 14.43L12.93 5.5H13.5C13.6326 5.5 13.7598 5.44732 13.8536 5.35355C13.9473 5.25979 14 5.13261 14 5V3.5C14 3.36739 13.9473 3.24021 13.8536 3.14645C13.7598 3.05268 13.6326 3 13.5 3ZM5.28 13.035H5.22C5.02925 13.0474 4.84132 12.9839 4.69712 12.8585C4.55292 12.733 4.4641 12.5556 4.45 12.365L4.13 7.815C4.11761 7.62425 4.18106 7.43632 4.30654 7.29212C4.43202 7.14791 4.60937 7.0591 4.8 7.045H4.86C5.05075 7.03261 5.23868 7.09606 5.38288 7.22154C5.52708 7.34702 5.6159 7.52437 5.63 7.715L5.95 12.265C5.96239 12.4558 5.89894 12.6437 5.77346 12.7879C5.64798 12.9321 5.47063 13.0209 5.28 13.035ZM9.545 12.37C9.5309 12.5606 9.44209 12.738 9.29788 12.8635C9.15368 12.9889 8.96575 13.0524 8.775 13.04H8.715C8.52437 13.0259 8.34702 12.9371 8.22154 12.7929C8.09606 12.6487 8.03261 12.4608 8.045 12.27L8.365 7.72C8.3791 7.52937 8.46791 7.35202 8.61212 7.22654C8.75632 7.10106 8.94425 7.03761 9.135 7.05H9.195C9.38563 7.0641 9.56298 7.15292 9.68846 7.29712C9.81394 7.44132 9.87739 7.62925 9.865 7.82L9.545 12.37ZM7 2C7.26522 2 7.51957 2.10536 7.70711 2.29289C7.89464 2.48043 8 2.73478 8 3H6C6 2.73478 6.10536 2.48043 6.29289 2.29289C6.48043 2.10536 6.73478 2 7 2Z" fill="#212121"/>
</svg>
