<svg width="14" height="16" viewBox="0 0 14 16" fill="none" xmlns="http://www.w3.org/2000/svg">
<path d="M13 13.955C12.805 13.025 11.605 12.035 10.47 11.875H10.24C9.36938 12.7467 8.19664 13.2498 6.96502 13.28C5.73091 13.2478 4.55576 12.7451 3.68002 11.875H3.46002C2.30002 12.025 1.10002 13 0.90502 13.945V14.035C0.882605 14.1552 0.884101 14.2786 0.909422 14.3982C0.934742 14.5178 0.98339 14.6312 1.05258 14.7319C1.12178 14.8327 1.21016 14.9189 1.31267 14.9854C1.41519 15.052 1.52982 15.0978 1.65002 15.12C3.31875 15.3819 5.00588 15.509 6.69502 15.5C8.55549 15.5132 10.4133 15.3559 12.245 15.03C12.3654 15.0095 12.4805 14.9653 12.5838 14.9C12.687 14.8348 12.7763 14.7497 12.8465 14.6498C12.9167 14.5499 12.9664 14.437 12.9927 14.3178C13.0191 14.1985 13.0216 14.0752 13 13.955ZM3.04502 8.53C3.09994 8.53415 3.1551 8.53415 3.21002 8.53C3.97002 10.465 5.43002 11.765 6.94502 11.77C8.46002 11.775 9.88502 10.445 10.65 8.5C10.7149 8.50577 10.7801 8.50577 10.845 8.5C11.2134 8.46809 11.5546 8.29326 11.7957 8.01291C12.0368 7.73257 12.1586 7.369 12.135 7C12.1469 6.69544 12.0656 6.39449 11.9022 6.13724C11.7387 5.87999 11.5008 5.67864 11.22 5.56C11.255 2.19 9.43502 0.5 6.94502 0.5C4.45502 0.5 2.63002 2.19 2.66502 5.585C2.38834 5.7021 2.15319 5.89958 1.99005 6.15187C1.82691 6.40416 1.74329 6.69963 1.75002 7C1.73427 7.18555 1.7553 7.37239 1.81191 7.5498C1.86851 7.72721 1.95958 7.8917 2.07989 8.03384C2.2002 8.17598 2.34738 8.29298 2.513 8.37812C2.67862 8.46326 2.85941 8.51487 3.04502 8.53Z" fill="#231F20"/>
</svg>
