<svg width="24" height="24" viewBox="0 0 24 24" fill="none" xmlns="http://www.w3.org/2000/svg">
<g clip-path="url(#clip0)">
<path fill-rule="evenodd" clip-rule="evenodd" d="M22 0.949188V6H24V18.5C24 20.9761 21.9761 23 19.5 23H4.5C2.02385 23 -4.42399e-06 20.9761 -4.42399e-06 18.5V5C-0.000406457 4.98338 -4.42399e-06 4.96672 -4.42399e-06 4.95C-4.42399e-06 3.91445 0.77614 2.97428 1.85965 2.90157L22 0.949188ZM0.999996 6.69919V18.5C0.999996 20.4239 2.57614 22 4.5 22H19.5C21.4239 22 23 20.4239 23 18.5V7H2.1C1.69572 7 1.31928 6.89013 0.999996 6.69919ZM21 6V2.05081L1.93972 3.89849L1.93118 3.89903C1.41948 3.93101 0.999996 4.38847 0.999996 4.95C0.999996 5.51356 1.46572 6 2.1 6H21Z" fill="black"/>
<path fill-rule="evenodd" clip-rule="evenodd" d="M18.5 11.5C17.1261 11.5 16 12.6261 16 14C16 15.3739 17.1261 16.5 18.5 16.5H23V11.5H18.5ZM15 14C15 12.0739 16.5739 10.5 18.5 10.5H24V17.5H18.5C16.5739 17.5 15 15.9261 15 14Z" fill="black"/>
<path d="M19 15C19.5523 15 20 14.5523 20 14C20 13.4477 19.5523 13 19 13C18.4477 13 18 13.4477 18 14C18 14.5523 18.4477 15 19 15Z" fill="black"/>
</g>
<defs>
<clipPath id="clip0">
<rect width="24" height="24" fill="white"/>
</clipPath>
</defs>
</svg>
