<svg width="16" height="16" viewBox="0 0 16 16" fill="none" xmlns="http://www.w3.org/2000/svg">
<mask id="mask0" mask-type="alpha" maskUnits="userSpaceOnUse" x="0" y="0" width="16" height="16">
<rect width="16" height="16" rx="8" fill="#C4C4C4"/>
</mask>
<g mask="url(#mask0)">
<path d="M23.9168 10.7083H4.41675V16.125H23.9168V10.7083Z" fill="#7CB342"/>
<path d="M4.41658 -0.125H0.083252V16.125H4.41658V-0.125Z" fill="#ECEFF1"/>
<path d="M1.16659 -0.125H0.083252V0.958334H1.16659V-0.125Z" fill="#FF3D00"/>
<path d="M2.24984 0.958344H1.1665V2.04168H2.24984V0.958344Z" fill="#FF3D00"/>
<path d="M3.33333 -0.125H2.25V0.958334H3.33333V-0.125Z" fill="#FF3D00"/>
<path d="M4.41658 0.958344H3.33325V2.04168H4.41658V0.958344Z" fill="#FF3D00"/>
<path d="M1.16659 2.04166H0.083252V3.12499H1.16659V2.04166Z" fill="#FF3D00"/>
<path d="M2.24984 3.125H1.1665V4.20833H2.24984V3.125Z" fill="#FF3D00"/>
<path d="M3.33333 2.04166H2.25V3.12499H3.33333V2.04166Z" fill="#FF3D00"/>
<path d="M4.41658 3.125H3.33325V4.20833H4.41658V3.125Z" fill="#FF3D00"/>
<path d="M1.16659 4.20834H0.083252V5.29168H1.16659V4.20834Z" fill="#FF3D00"/>
<path d="M2.24984 5.29166H1.1665V6.37499H2.24984V5.29166Z" fill="#FF3D00"/>
<path d="M3.33333 4.20834H2.25V5.29168H3.33333V4.20834Z" fill="#FF3D00"/>
<path d="M4.41658 5.29166H3.33325V6.37499H4.41658V5.29166Z" fill="#FF3D00"/>
<path d="M1.16659 6.375H0.083252V7.45833H1.16659V6.375Z" fill="#FF3D00"/>
<path d="M2.24984 7.45834H1.1665V8.54168H2.24984V7.45834Z" fill="#FF3D00"/>
<path d="M3.33333 6.375H2.25V7.45833H3.33333V6.375Z" fill="#FF3D00"/>
<path d="M4.41658 7.45834H3.33325V8.54168H4.41658V7.45834Z" fill="#FF3D00"/>
<path d="M1.16659 8.54166H0.083252V9.62499H1.16659V8.54166Z" fill="#FF3D00"/>
<path d="M2.24984 9.625H1.1665V10.7083H2.24984V9.625Z" fill="#FF3D00"/>
<path d="M3.33333 8.54166H2.25V9.62499H3.33333V8.54166Z" fill="#FF3D00"/>
<path d="M4.41658 9.625H3.33325V10.7083H4.41658V9.625Z" fill="#FF3D00"/>
<path d="M1.16659 10.7083H0.083252V11.7917H1.16659V10.7083Z" fill="#FF3D00"/>
<path d="M2.24984 11.7917H1.1665V12.875H2.24984V11.7917Z" fill="#FF3D00"/>
<path d="M3.33333 10.7083H2.25V11.7917H3.33333V10.7083Z" fill="#FF3D00"/>
<path d="M4.41658 11.7917H3.33325V12.875H4.41658V11.7917Z" fill="#FF3D00"/>
<path d="M1.16659 12.875H0.083252V13.9583H1.16659V12.875Z" fill="#FF3D00"/>
<path d="M2.24984 13.9583H1.1665V15.0417H2.24984V13.9583Z" fill="#FF3D00"/>
<path d="M3.33333 12.875H2.25V13.9583H3.33333V12.875Z" fill="#FF3D00"/>
<path d="M4.41658 13.9583H3.33325V15.0417H4.41658V13.9583Z" fill="#FF3D00"/>
<path d="M1.16659 15.0417H0.083252V16.125H1.16659V15.0417Z" fill="#FF3D00"/>
<path d="M3.33333 15.0417H2.25V16.125H3.33333V15.0417Z" fill="#FF3D00"/>
<path d="M23.9165 -0.125H4.4165V10.7083H23.9165V-0.125Z" fill="#FF3D00"/>
</g>
</svg>
