<svg width="16" height="16" viewBox="0 0 16 16" fill="none" xmlns="http://www.w3.org/2000/svg">
<mask id="mask0" mask-type="alpha" maskUnits="userSpaceOnUse" x="0" y="0" width="16" height="16">
<rect width="16" height="16" rx="8" fill="#C4C4C4"/>
</mask>
<g mask="url(#mask0)">
<path d="M23.9166 -0.125H0.083252V16.125H23.9166V-0.125Z" fill="#FF3D00"/>
<path d="M10.2619 7.55908L10.256 6.08087L11.1291 7.27308L12.5331 6.81266L11.6686 8.01083L12.5418 9.20304L11.1345 8.75129L10.2706 9.95L10.2652 8.47233L8.85791 8.02058L10.2619 7.55908Z" fill="white"/>
<path d="M8.46359 11.8382C6.35217 11.8382 4.63996 10.1255 4.63996 8.01408C4.63996 5.90212 6.35163 4.19046 8.46359 4.19046C8.807 4.19046 9.13742 4.23975 9.45375 4.32371C8.794 3.91854 8.0205 3.68021 7.18905 3.68021C4.79596 3.68021 2.85571 5.62046 2.85571 8.01354C2.85571 10.4066 4.79596 12.3469 7.18905 12.3469C8.01996 12.3469 8.794 12.1091 9.45375 11.7028C9.13742 11.789 8.80646 11.8382 8.46359 11.8382Z" fill="white"/>
</g>
</svg>
