<svg width="16" height="16" viewBox="0 0 16 16" fill="none" xmlns="http://www.w3.org/2000/svg">
<mask id="mask0" mask-type="alpha" maskUnits="userSpaceOnUse" x="0" y="0" width="16" height="16">
<rect width="16" height="16" rx="8" fill="#C4C4C4"/>
</mask>
<g mask="url(#mask0)">
<g clip-path="url(#clip0)">
<path d="M-3 0V8V16H21V8V0H-3Z" fill="#FF3D00"/>
<path d="M-3 -1V8V17H8V8V-1H-3Z" fill="#2E7D32"/>
<path d="M10.1185 10.4534C8.91647 10.4174 3.40397 6.98988 3.36597 6.44388L3.67047 5.93839C4.21747 6.72988 9.85297 10.0629 10.4065 9.94489L10.1185 10.4534Z" fill="#FFFF00"/>
<path d="M10.1175 10.4635C9.47652 10.4445 7.66002 9.4735 6.29852 8.6485C4.89452 7.7975 3.37402 6.74449 3.35352 6.44349C3.35352 6.44099 3.35402 6.439 3.35502 6.437L3.65952 5.9315C3.66152 5.928 3.66502 5.92599 3.66902 5.92599C3.67302 5.92599 3.67652 5.92749 3.67852 5.93099C3.95852 6.3365 5.56902 7.399 7.04052 8.272C8.77652 9.302 10.1575 9.9845 10.4025 9.933C10.407 9.932 10.4115 9.934 10.414 9.9375C10.4165 9.941 10.417 9.946 10.415 9.95L10.128 10.457C10.1265 10.4605 10.1225 10.4635 10.1175 10.4635ZM3.37652 6.4455C3.40452 6.697 4.63502 7.613 6.31052 8.629C7.66452 9.45 9.46852 10.4145 10.111 10.4405L10.3845 9.9575C10.0375 9.9745 8.46502 9.143 7.02952 8.291C5.57302 7.4265 3.97952 6.376 3.67102 5.9575L3.37652 6.4455Z" fill="black"/>
<path d="M3.60621 5.86931C3.49821 6.15831 5.04471 7.11081 6.90521 8.23781C8.76571 9.36481 10.3697 10.0613 10.4887 9.96131C10.4962 9.94831 10.5472 9.86081 10.5427 9.86131C10.5202 9.89481 10.4662 9.90531 10.3817 9.88081C9.87921 9.73631 8.56821 9.13681 6.94471 8.15631C5.32121 7.17531 3.90871 6.27181 3.68921 5.88781C3.67371 5.86131 3.66321 5.81281 3.66521 5.77481H3.65971L3.61321 5.85631L3.60621 5.86931ZM10.1467 10.4688C10.1262 10.5058 10.0882 10.5068 10.0162 10.4988C9.56671 10.4493 8.20221 9.78831 6.58771 8.82581C4.70921 7.70581 3.15771 6.68481 3.32571 6.41831L3.37171 6.33781L3.38071 6.34081C3.22921 6.79281 6.44271 8.62331 6.63171 8.73981C8.49121 9.88731 10.0587 10.5573 10.1972 10.3833L10.1467 10.4688Z" fill="#FFFF00"/>
<path d="M10.072 10.514C10.055 10.514 10.0355 10.512 10.014 10.51C9.55547 10.4595 8.17597 9.78649 6.58097 8.83499C4.44947 7.56399 3.37796 6.79899 3.30546 6.49599C3.29746 6.46299 3.30096 6.43449 3.31546 6.41149L3.36096 6.33149C3.36346 6.32699 3.36896 6.32449 3.37446 6.32649L3.38346 6.32949C3.38646 6.33049 3.38896 6.33249 3.38996 6.33499C3.39146 6.33749 3.39146 6.34099 3.39046 6.34399C3.34046 6.49399 3.67896 6.99349 6.51096 8.65549C6.57546 8.69349 6.61947 8.71899 6.63697 8.72999C8.47247 9.86249 10.053 10.545 10.1875 10.376C10.191 10.3715 10.198 10.37 10.203 10.3735C10.208 10.377 10.2095 10.3835 10.2065 10.3885L10.156 10.475H10.155C10.1375 10.505 10.11 10.514 10.072 10.514ZM3.36296 6.37299L3.33446 6.42299C3.32296 6.44149 3.32046 6.46349 3.32696 6.49049C3.39846 6.78699 4.46646 7.54749 6.59246 8.81499C8.18497 9.76449 9.56097 10.4365 10.0165 10.4865C10.087 10.494 10.119 10.4925 10.136 10.462L10.1365 10.461L10.1655 10.411C10.15 10.415 10.131 10.417 10.109 10.417C9.71697 10.417 8.29547 9.77799 6.62497 8.74699C6.60747 8.73599 6.56397 8.71049 6.49947 8.67299C4.41847 7.45299 3.36446 6.67999 3.36296 6.37299ZM10.4515 9.97999C10.1575 9.97999 8.64647 9.30599 6.89847 8.24699C4.89647 7.03399 3.48696 6.15299 3.59496 5.86499C3.59496 5.86449 3.59546 5.86399 3.59546 5.86399L3.60197 5.85099L3.64896 5.76899C3.65096 5.76549 3.65496 5.76349 3.65896 5.76349H3.66447C3.66747 5.76349 3.67046 5.76499 3.67246 5.76699C3.67446 5.76949 3.67546 5.77249 3.67546 5.77549C3.67346 5.80999 3.68346 5.85649 3.69796 5.88199C3.93046 6.28849 5.55747 7.30549 6.94947 8.14649C8.47597 9.06849 9.83247 9.71149 10.384 9.86999C10.458 9.89099 10.512 9.88599 10.5325 9.85499C10.534 9.85249 10.537 9.85049 10.54 9.84999C10.5445 9.84949 10.549 9.85149 10.5515 9.85499C10.5565 9.86249 10.5575 9.86349 10.504 9.95649L10.498 9.96699C10.4975 9.96799 10.4965 9.96899 10.4955 9.96999C10.487 9.97649 10.472 9.97999 10.4515 9.97999ZM3.61546 5.87349C3.51046 6.16799 5.31646 7.26199 6.90997 8.22749C8.82147 9.38549 10.3605 10.0365 10.479 9.95349L10.484 9.94499C10.4945 9.92649 10.5035 9.91049 10.5105 9.89799C10.478 9.90949 10.4325 9.90749 10.377 9.89199C9.82447 9.73299 8.46547 9.08949 6.93697 8.16649C5.54297 7.32449 3.91246 6.30499 3.67746 5.89399C3.66496 5.87249 3.65596 5.83899 3.65296 5.80749L3.61546 5.87349Z" fill="black"/>
<path d="M7.012 6.77435C8.215 6.76485 9.7 6.61035 10.5545 6.27135L10.3705 5.97335C9.8655 6.25185 8.3725 6.43485 7.002 6.46235C5.381 6.44735 4.237 6.29735 3.6635 5.91385L3.4895 6.23135C4.5435 6.67535 5.623 6.76985 7.012 6.77435Z" fill="#FFFF00"/>
<path d="M7.01096 6.785C5.61946 6.7805 4.54396 6.688 3.48396 6.241C3.48096 6.24 3.47896 6.2375 3.47746 6.2345C3.47646 6.2315 3.47646 6.228 3.47846 6.2255L3.65246 5.908C3.65396 5.905 3.65646 5.903 3.65996 5.9025C3.66296 5.9015 3.66646 5.9025 3.66896 5.904C4.20296 6.261 5.26196 6.4345 7.00146 6.4505C8.23996 6.4255 9.82096 6.2625 10.3645 5.963C10.37 5.96 10.3765 5.962 10.3795 5.967L10.5635 6.265C10.565 6.268 10.5655 6.2715 10.5645 6.2745C10.5635 6.2775 10.561 6.28 10.558 6.2815C9.65646 6.6395 8.13546 6.7765 7.01196 6.7855L7.01096 6.785ZM3.50446 6.225C4.55696 6.666 5.62696 6.758 7.01046 6.7625H7.01096C8.12696 6.7535 9.63646 6.6185 10.537 6.2655L10.3655 5.9885C9.80997 6.2865 8.23546 6.449 7.00096 6.4735C5.26746 6.4575 4.20746 6.285 3.66646 5.93L3.50446 6.225Z" fill="black"/>
<path d="M10.6037 6.27839C10.5742 6.32539 10.0172 6.51689 9.1962 6.65789C8.6397 6.74239 7.9137 6.81489 7.0072 6.81539C6.1462 6.81639 5.4432 6.75539 4.9107 6.68339C4.0487 6.54889 3.6042 6.36139 3.4397 6.29539C3.4552 6.26439 3.4657 6.24239 3.4807 6.21339C3.9542 6.40089 4.4007 6.51439 4.9242 6.59439C5.4532 6.66589 6.1477 6.72789 7.0042 6.72689C7.9062 6.72589 8.6242 6.64839 9.1777 6.56639C10.0197 6.43089 10.4792 6.25689 10.5442 6.17639L10.6037 6.27839ZM10.4422 5.97589C10.3512 6.04889 9.8962 6.20939 9.0962 6.33689C8.5622 6.41289 7.8837 6.48139 7.0162 6.48239C6.1922 6.48339 5.5192 6.42789 5.0072 6.35339C4.1947 6.24789 3.7627 6.05689 3.6067 6.00139C3.6222 5.97489 3.6382 5.94839 3.6542 5.92139C3.7757 5.98239 4.1927 6.15089 5.0162 6.26689C5.5222 6.33839 6.1967 6.39189 7.0162 6.39089C7.8792 6.38989 8.5502 6.32039 9.0807 6.24489C9.8847 6.13489 10.3172 5.92989 10.3832 5.87839L10.4422 5.97589Z" fill="#FFFF00"/>
<path d="M6.98943 6.82601C6.25843 6.82601 5.55843 6.78151 4.90843 6.69401C4.07443 6.56401 3.62243 6.38101 3.45243 6.31251L3.43493 6.30501C3.43193 6.30401 3.42943 6.30151 3.42843 6.29851C3.42743 6.29551 3.42743 6.29201 3.42893 6.28951C3.43543 6.27701 3.44093 6.26601 3.44593 6.25501C3.45343 6.23951 3.46093 6.22451 3.46993 6.20701C3.47243 6.20201 3.47893 6.19951 3.48443 6.20151C3.93793 6.38151 4.38243 6.49851 4.92543 6.58201C5.57643 6.67001 6.27043 6.71451 6.98793 6.71451C6.99343 6.71451 6.99843 6.71451 7.00393 6.71451C7.74093 6.71401 8.45143 6.66101 9.17543 6.55401C10.0069 6.42051 10.4704 6.24801 10.5344 6.16801C10.5369 6.16501 10.5399 6.16351 10.5444 6.16351C10.5479 6.16401 10.5514 6.16601 10.5534 6.16901L10.6129 6.27101C10.6149 6.27451 10.6149 6.27901 10.6129 6.28251C10.6124 6.28351 10.6119 6.28401 10.6114 6.28451C10.5659 6.34101 9.99193 6.53051 9.19743 6.66751C8.51293 6.77151 7.77593 6.82451 7.00693 6.82551C7.00093 6.82601 6.99493 6.82601 6.98943 6.82601ZM3.45493 6.28851L3.46143 6.29101C3.63093 6.35951 4.08093 6.54151 4.91193 6.67101C5.56043 6.75851 6.25993 6.80301 6.98943 6.80301C6.99493 6.80301 7.00093 6.80301 7.00643 6.80301C7.77443 6.80251 8.50993 6.74951 9.19343 6.64551C10.0064 6.50551 10.5319 6.32201 10.5889 6.27551L10.5414 6.19351C10.4494 6.27551 10.0219 6.44101 9.17943 6.57601C8.45393 6.68351 7.74243 6.73601 7.00443 6.73701C6.27893 6.73801 5.57993 6.69301 4.92243 6.60451C4.38143 6.52151 3.93793 6.40501 3.48593 6.22651C3.47893 6.24001 3.47293 6.25201 3.46693 6.26451C3.46293 6.27251 3.45893 6.28001 3.45493 6.28851ZM6.99893 6.49251C6.27593 6.49251 5.58693 6.44801 5.00543 6.36351C4.28643 6.27001 3.86893 6.11151 3.66843 6.03551C3.64293 6.02551 3.62093 6.01751 3.60293 6.01101C3.59993 6.01001 3.59743 6.00751 3.59593 6.00401C3.59443 6.00051 3.59493 5.99751 3.59693 5.99451C3.61243 5.96751 3.62843 5.94101 3.64443 5.91451C3.64743 5.90951 3.65393 5.90751 3.65943 5.91001C3.73043 5.94551 4.12893 6.12901 5.01793 6.25451C5.41893 6.31101 6.08643 6.37851 6.99743 6.37851C7.00393 6.37851 7.00993 6.37851 7.01643 6.37851C7.95593 6.37751 8.64343 6.29451 9.07943 6.23251C9.84843 6.12701 10.2989 5.92901 10.3764 5.86851C10.3789 5.86651 10.3824 5.86551 10.3854 5.86651C10.3884 5.86701 10.3914 5.86901 10.3929 5.87201L10.4514 5.96901C10.4524 5.97101 10.4529 5.97301 10.4529 5.97301C10.4529 5.97851 10.4514 5.98201 10.4484 5.98401C10.3589 6.05551 9.91293 6.21751 9.09743 6.34701C8.41693 6.44401 7.73593 6.49151 7.01593 6.49251C7.00993 6.49251 7.00443 6.49251 6.99893 6.49251ZM3.62293 5.99451C3.63843 6.00001 3.65593 6.00701 3.67643 6.01451C3.87643 6.09051 4.29193 6.24801 5.00843 6.34101C5.58893 6.42501 6.27693 6.46951 6.99893 6.46951C7.00443 6.46951 7.01043 6.46951 7.01593 6.46951C7.73493 6.46901 8.41493 6.42151 9.09393 6.32451C9.88343 6.19901 10.3224 6.04451 10.4264 5.97201L10.3794 5.89401C10.2919 5.95151 9.87643 6.14651 9.08193 6.25501C8.64543 6.31751 7.95643 6.40051 7.01593 6.40151C7.00943 6.40151 7.00343 6.40151 6.99693 6.40151C6.08443 6.40151 5.41543 6.33401 5.01393 6.27751C4.15493 6.15651 3.75093 5.98051 3.65793 5.93551C3.64643 5.95501 3.63443 5.97501 3.62293 5.99451Z" fill="black"/>
<path d="M3.06085 8.21832C3.80085 8.61482 5.44485 8.81482 7.00035 8.82832C8.41685 8.83032 10.2618 8.61032 10.9518 8.24582L10.9328 7.84882C10.7168 8.18482 8.73985 8.50732 6.98535 8.49382C5.23085 8.48082 3.60135 8.21082 3.05835 7.86132L3.06085 8.21832Z" fill="#FFFF00"/>
<path d="M7.01991 8.839C7.01291 8.839 7.00591 8.839 6.99891 8.839C5.62091 8.827 3.86091 8.66 3.05441 8.2275C3.05041 8.2255 3.04841 8.221 3.04841 8.217L3.04541 7.86101C3.04541 7.85701 3.04741 7.853 3.05141 7.851C3.05491 7.849 3.05941 7.849 3.06291 7.8515C3.61091 8.204 5.25991 8.4695 6.98391 8.4825C8.72241 8.4945 10.7099 8.1725 10.9219 7.8425C10.9244 7.8385 10.9299 7.8365 10.9344 7.8375C10.9394 7.839 10.9424 7.843 10.9429 7.848L10.9619 8.245C10.9619 8.2495 10.9599 8.2535 10.9559 8.2555C10.2619 8.6215 8.41491 8.839 7.01991 8.839ZM3.07091 8.21101C3.87691 8.63901 5.62691 8.8045 6.99891 8.8165C8.38841 8.8185 10.2394 8.60351 10.9384 8.23901L10.9214 7.8805C10.6244 8.2125 8.71591 8.5185 6.98341 8.5055C5.27391 8.4925 3.63641 8.2315 3.06791 7.8825L3.07091 8.21101Z" fill="black"/>
<path d="M10.9887 8.1614V8.25591C10.8852 8.37941 10.2347 8.56591 9.41922 8.69741C8.79872 8.79241 7.98972 8.86391 6.98122 8.86391C6.02322 8.86391 5.25972 8.79591 4.66722 8.70541C3.73072 8.56941 3.13222 8.33191 3.01172 8.26091L3.01222 8.1504C3.37322 8.38941 4.35172 8.56441 4.68022 8.61791C5.26872 8.70791 6.02772 8.77541 6.98072 8.77541C7.98422 8.77541 8.78872 8.70441 9.40522 8.61041C9.99122 8.52591 10.8247 8.3074 10.9887 8.1614ZM10.9892 7.8249V7.9194C10.8857 8.0429 10.2352 8.2294 9.41972 8.3609C8.79922 8.4559 7.99022 8.52741 6.98172 8.52741C6.02372 8.52741 5.26022 8.45941 4.66772 8.36891C3.73122 8.2334 3.13272 7.9954 3.01222 7.9244L3.01272 7.8139C3.37372 8.0529 4.35222 8.22791 4.68072 8.28141C5.26922 8.37141 6.02822 8.4389 6.98122 8.4389C7.98472 8.4389 8.78922 8.36791 9.40572 8.2734C9.99172 8.1894 10.8252 7.9704 10.9892 7.8249Z" fill="#FFFF00"/>
<path d="M6.98099 8.8745C6.13349 8.8745 5.35449 8.821 4.66549 8.716C3.76899 8.586 3.15049 8.355 3.00599 8.27C3.00249 8.268 3.00049 8.264 3.00049 8.26L3.00099 8.1495C3.00099 8.1455 3.00349 8.1415 3.00699 8.1395C3.01049 8.1375 3.01499 8.1375 3.01849 8.14C3.38049 8.38 4.38349 8.557 4.68199 8.606C5.36449 8.7105 6.13799 8.7635 6.98099 8.7635C7.87149 8.7635 8.68649 8.708 9.40399 8.5985C9.98449 8.515 10.8165 8.2975 10.9805 8.1525C10.9835 8.15 10.987 8.149 10.991 8.1495C10.996 8.1505 11 8.1555 11 8.1605V8.255C11 8.2575 10.999 8.26 10.9975 8.2625C10.89 8.391 10.227 8.578 9.42099 8.708C8.69749 8.8185 7.87699 8.8745 6.98099 8.8745ZM3.02299 8.2535C3.12999 8.313 3.70549 8.5535 4.66849 8.6935C5.35649 8.7985 6.13399 8.852 6.98049 8.852C7.87499 8.852 8.69499 8.796 9.41649 8.686C10.198 8.56 10.865 8.374 10.976 8.2515V8.185C10.773 8.332 9.97049 8.5405 9.40649 8.6215C8.68799 8.731 7.87149 8.787 6.97999 8.787C6.13599 8.787 5.36149 8.734 4.67749 8.6295C4.38199 8.5815 3.40199 8.408 3.02249 8.1715L3.02299 8.2535ZM6.98149 8.5375C6.13299 8.5375 5.35399 8.484 4.66599 8.379C3.76949 8.249 3.15099 8.0185 3.00649 7.933C3.00299 7.931 3.00099 7.927 3.00099 7.927L3.00149 7.8125C3.00149 7.8085 3.00399 7.8045 3.00749 7.8025C3.01099 7.8005 3.01549 7.8005 3.01899 7.803C3.38149 8.043 4.38399 8.22 4.68249 8.269C5.36499 8.3735 6.13849 8.4265 6.98149 8.4265C7.87199 8.4265 8.68749 8.371 9.40449 8.2615C9.98549 8.178 10.818 7.9605 10.981 7.8155C10.9835 7.813 10.9875 7.812 10.9905 7.813C10.994 7.8135 10.997 7.816 10.9985 7.819C10.9995 7.8205 11 7.822 11 7.824V7.9185C11 7.9185 10.999 7.9235 10.9975 7.926C10.89 8.054 10.227 8.2415 9.42149 8.3715C8.69849 8.4815 7.87749 8.5375 6.98149 8.5375ZM3.02349 7.9165C3.13049 7.976 3.70599 8.2165 4.66899 8.3565C5.35599 8.4615 6.13399 8.515 6.98099 8.515C7.87599 8.515 8.69549 8.459 9.41699 8.349C10.1985 8.223 10.8655 8.037 10.9765 7.9145V7.8475C10.7735 7.9945 9.97099 8.203 9.40699 8.284C8.68899 8.3935 7.87249 8.4495 6.98049 8.4495C6.13649 8.4495 5.36199 8.3965 4.67799 8.292C4.38299 8.244 3.40299 8.071 3.02299 7.834L3.02349 7.9165Z" fill="black"/>
<path d="M6.99536 10.3839C5.29336 10.3739 3.83486 9.92186 3.52686 9.84686L3.75136 10.1969C4.29536 10.4249 5.71786 10.7644 7.01136 10.7269C8.30486 10.6894 9.43536 10.5894 10.2319 10.2034L10.4624 9.84036C9.91986 10.0954 8.07236 10.3814 6.99536 10.3839Z" fill="#FFFF00"/>
<path d="M6.81292 10.7415C5.59242 10.7415 4.28192 10.4315 3.74792 10.2075C3.74592 10.2065 3.74392 10.205 3.74292 10.203L3.51842 9.85299C3.51592 9.84899 3.51592 9.84399 3.51892 9.84049C3.52142 9.83649 3.52642 9.83499 3.53092 9.83599C3.56742 9.84499 3.62042 9.85899 3.68742 9.87699C4.18242 10.01 5.49742 10.3635 6.99642 10.3725C8.07992 10.37 9.92392 10.081 10.4584 9.83049C10.4629 9.82849 10.4684 9.82949 10.4719 9.83299C10.4754 9.83699 10.4759 9.84249 10.4729 9.84649L10.2429 10.2095C10.2419 10.2115 10.2399 10.2125 10.2384 10.2135C9.40742 10.6165 8.19742 10.704 7.01342 10.7385C6.94642 10.741 6.87942 10.7415 6.81292 10.7415ZM3.75942 10.1885C4.32292 10.4235 5.74242 10.7525 7.01142 10.7165C8.19142 10.682 9.39692 10.5955 10.2244 10.1955L10.4329 9.86699C9.85542 10.115 8.05942 10.393 6.99592 10.3955C5.49392 10.3865 4.17642 10.0325 3.68092 9.89949C3.62942 9.88549 3.58642 9.87399 3.55292 9.86549L3.75942 10.1885Z" fill="black"/>
<path d="M10.3198 10.1234C10.2858 10.1749 10.2513 10.2259 10.2163 10.2754C9.84076 10.4074 9.24876 10.5459 8.99876 10.5864C8.48826 10.6909 7.69876 10.7684 6.99826 10.7689C5.49026 10.7469 4.25626 10.4529 3.67576 10.2019L3.62876 10.1219L3.63626 10.1099L3.71576 10.1404C4.74826 10.5084 5.90776 10.6554 7.00676 10.6814C7.70476 10.6839 8.40326 10.6019 8.96826 10.5009C9.83476 10.3279 10.1848 10.1979 10.2923 10.1384L10.3198 10.1234ZM10.5193 9.79538C10.5203 9.79638 10.5213 9.79738 10.5218 9.79838C10.4963 9.84088 10.4703 9.88438 10.4438 9.92788C10.2433 9.99938 9.69976 10.1579 8.90526 10.2684C8.38226 10.3394 8.05676 10.4084 7.01576 10.4284C5.06526 10.3789 3.80226 9.99888 3.50226 9.90538L3.45776 9.82038C4.58826 10.1144 5.74276 10.3194 7.01576 10.3404C7.96826 10.3204 8.37326 10.2504 8.89226 10.1799C9.81826 10.0364 10.2848 9.88438 10.4248 9.84088C10.4228 9.83838 10.4208 9.83588 10.4188 9.83288L10.5193 9.79538Z" fill="#FFFF00"/>
<path d="M6.99752 10.7785C5.46002 10.756 4.24452 10.4585 3.67052 10.211C3.66852 10.21 3.66652 10.2085 3.66552 10.2065L3.61852 10.1265C3.61652 10.123 3.61652 10.1185 3.61852 10.115L3.62602 10.103C3.62902 10.0985 3.63452 10.097 3.63902 10.0985L3.71852 10.129C4.64002 10.4575 5.74602 10.639 7.00552 10.6695C7.77302 10.673 8.49502 10.573 8.96502 10.4895C9.93202 10.2965 10.2205 10.1645 10.286 10.1285L10.313 10.1135C10.3175 10.111 10.323 10.112 10.3265 10.1155C10.33 10.119 10.3305 10.1245 10.3275 10.129C10.2925 10.1825 10.2575 10.2335 10.224 10.281C10.2225 10.283 10.221 10.2845 10.2185 10.285C9.84502 10.416 9.25652 10.5545 8.99902 10.5965C8.46952 10.705 7.66452 10.7785 6.99752 10.7785ZM3.68252 10.1925C4.30102 10.4585 5.56452 10.736 6.99752 10.757C7.66352 10.7565 8.46652 10.6835 8.99552 10.575C9.25202 10.5335 9.83602 10.396 10.2085 10.2655C10.2335 10.23 10.259 10.1925 10.285 10.154C10.2 10.1975 9.89102 10.3275 8.96952 10.5115C8.49852 10.5955 7.77602 10.694 7.00602 10.692C5.74352 10.6615 4.63552 10.4795 3.71152 10.15L3.64202 10.123L3.68252 10.1925ZM7.01552 10.438C5.27252 10.394 4.06402 10.091 3.49852 9.91451C3.49552 9.91351 3.49352 9.91151 3.49202 9.90901L3.44752 9.82401C3.44552 9.82001 3.44602 9.81551 3.44852 9.81201C3.45102 9.80851 3.45552 9.80701 3.46002 9.80851C4.75202 10.1445 5.88152 10.3095 7.01502 10.328C7.86402 10.31 8.28202 10.252 8.72552 10.1905C8.77952 10.183 8.83402 10.1755 8.89002 10.168C9.78402 10.0295 10.252 9.88251 10.4055 9.83401L10.407 9.83351C10.407 9.83201 10.407 9.83051 10.407 9.82901C10.408 9.82551 10.4105 9.82301 10.4135 9.82151L10.514 9.78401C10.519 9.78201 10.5245 9.78401 10.527 9.78851L10.5285 9.79051C10.5315 9.79401 10.5315 9.79901 10.5295 9.80301C10.504 9.84551 10.478 9.88901 10.4515 9.93251C10.45 9.93451 10.448 9.93651 10.446 9.93701C10.177 10.033 9.61252 10.1795 8.90552 10.278C8.82852 10.2885 8.75552 10.299 8.68402 10.309C8.26552 10.3695 7.90352 10.421 7.01552 10.438ZM3.50952 9.89501C4.07552 10.0715 5.28002 10.372 7.01552 10.416C7.90202 10.399 8.26302 10.347 8.68152 10.2875C8.75302 10.2775 8.82602 10.267 8.90302 10.2565C9.60502 10.1585 10.166 10.0135 10.4355 9.91801C10.457 9.88301 10.478 9.84801 10.499 9.81351L10.435 9.83751C10.4355 9.83951 10.4355 9.84151 10.4345 9.84351C10.4335 9.84701 10.431 9.84951 10.4275 9.85051L10.4125 9.85551C10.2585 9.90401 9.78902 10.0515 8.89352 10.19C8.83752 10.1975 8.78302 10.205 8.72902 10.2125C8.28552 10.274 7.86602 10.3325 7.01602 10.3505C5.88702 10.332 4.76252 10.1685 3.47902 9.83601L3.50952 9.89501Z" fill="black"/>
<path d="M6.98997 4.08551C4.82197 4.08551 3.05347 5.84301 3.05347 7.99801C3.05347 10.153 4.82197 11.9105 6.98997 11.9105C9.15797 11.9105 10.9415 10.153 10.9415 7.99801C10.941 5.84301 9.15797 4.08551 6.98997 4.08551ZM9.50997 10.462C8.85697 11.0865 7.99147 11.4885 6.98047 11.507C5.85147 11.5275 4.78697 10.7945 4.50147 10.4725C3.94347 9.84301 3.48897 9.04351 3.47397 7.96551C3.54297 6.74851 4.02297 5.90051 4.71797 5.31901C5.41347 4.73751 6.33947 4.45451 7.11047 4.47451C7.99997 4.49801 9.03947 4.93251 9.75747 5.79551C10.228 6.36101 10.4315 6.97451 10.5385 7.90401C10.5445 9.01951 9.97147 10.0205 9.50997 10.462Z" fill="#FFFF00"/>
<path d="M7.00057 11.9335C4.82157 11.9335 3.04907 10.1675 3.04907 7.99698C3.04907 5.82649 4.82157 4.06049 7.00057 4.06049C9.17957 4.06049 10.9521 5.82649 10.9521 7.99698C10.9521 10.1675 9.17957 11.9335 7.00057 11.9335ZM7.00057 4.08349C4.83457 4.08349 3.07207 5.83899 3.07207 7.99698C3.07207 10.155 4.83457 11.9105 7.00057 11.9105C9.16657 11.9105 10.9291 10.155 10.9291 7.99698C10.9291 5.83899 9.16657 4.08349 7.00057 4.08349ZM7.00057 11.8475C5.97507 11.8475 5.00657 11.446 4.27357 10.7165C3.54007 9.98649 3.13607 9.02099 3.13607 7.99749C3.13607 6.97399 3.54007 6.00849 4.27357 5.27849C5.00657 4.54899 5.97507 4.14749 7.00057 4.14749C8.02607 4.14749 8.99457 4.54899 9.72757 5.27849C10.4611 6.00849 10.8651 6.97399 10.8651 7.99749C10.8651 9.02099 10.4611 9.98649 9.72757 10.7165C8.99457 11.4455 8.02607 11.8475 7.00057 11.8475ZM7.00057 4.16999C4.88207 4.16999 3.15857 5.88699 3.15857 7.99749C3.15857 10.108 4.88207 11.825 7.00057 11.825C9.11907 11.825 10.8426 10.108 10.8426 7.99749C10.8426 5.88699 9.11907 4.16999 7.00057 4.16999Z" fill="black"/>
<path d="M7.00354 11.6005C6.04254 11.6005 5.13554 11.224 4.44904 10.541C3.76154 9.85701 3.38354 8.95251 3.38354 7.99401C3.38354 7.03551 3.76204 6.13051 4.44904 5.44701C5.13554 4.76401 6.04304 4.38751 7.00354 4.38751C7.96454 4.38751 8.87154 4.76401 9.55804 5.44701C10.245 6.13101 10.6235 7.03551 10.6235 7.99401C10.6235 8.95251 10.245 9.85751 9.55804 10.541C8.87154 11.224 7.96454 11.6005 7.00354 11.6005ZM7.00354 4.41001C5.02004 4.41001 3.40604 6.01801 3.40604 7.99401C3.40604 9.97001 5.02004 11.578 7.00354 11.578C8.98704 11.578 10.601 9.97001 10.601 7.99401C10.6015 6.01751 8.98755 4.41001 7.00354 4.41001ZM7.00354 11.514C6.06554 11.514 5.18005 11.147 4.51005 10.48C3.83905 9.81251 3.47004 8.92951 3.47004 7.99401C3.47004 7.05801 3.83955 6.17551 4.51005 5.50801C5.18005 4.84101 6.06554 4.47401 7.00354 4.47401C7.94155 4.47401 8.82704 4.84151 9.49704 5.50801C10.168 6.17551 10.537 7.05851 10.537 7.99401C10.537 8.92951 10.1675 9.81251 9.49704 10.48C8.82704 11.147 7.94155 11.514 7.00354 11.514ZM7.00354 4.49601C5.06754 4.49601 3.49254 6.06501 3.49254 7.99351C3.49254 9.92201 5.06754 11.491 7.00354 11.491C8.93954 11.491 10.5145 9.92201 10.5145 7.99351C10.5145 6.06501 8.93954 4.49601 7.00354 4.49601Z" fill="black"/>
<path d="M7.16343 4.05743H6.82593L6.82643 11.9439H7.16543L7.16343 4.05743Z" fill="#FFFF00"/>
<path d="M7.16399 11.954H6.82499C6.81849 11.954 6.81349 11.949 6.81349 11.9425L6.81299 4.05599C6.81299 4.05599 6.81399 4.04999 6.81649 4.04799C6.81899 4.04599 6.82149 4.04449 6.82449 4.04449H7.16199C7.16849 4.04449 7.17349 4.04949 7.17349 4.05599L7.17499 11.9425C7.17499 11.9425 7.17399 11.9485 7.17149 11.9505C7.16999 11.953 7.16699 11.954 7.16399 11.954ZM6.83649 11.9315H7.15249L7.15099 4.06799H6.83599L6.83649 11.9315Z" fill="black"/>
<path d="M7.12943 4.01242H7.21544L7.21593 11.9894H7.12993L7.12943 4.01242ZM6.79443 4.01242H6.88093V11.9894H6.79443V4.01242Z" fill="#FFFF00"/>
<path d="M6.88047 12H6.79397C6.78747 12 6.78247 11.995 6.78247 11.9885V4.0125V4.0115C6.78247 4.005 6.78797 3.9985 6.79397 4H6.88047C6.88697 4 6.89197 4.005 6.89197 4.0115V11.9885C6.89197 11.9885 6.89097 11.9945 6.88847 11.9965C6.88597 11.999 6.88347 12 6.88047 12ZM6.80497 11.9775H6.86897V4.023H6.80497V11.9775ZM7.21547 12H7.12947C7.12297 12 7.11797 11.995 7.11797 11.9885L7.11747 4.0115C7.11747 4.0115 7.11847 4.0055 7.12097 4.0035C7.12247 4.0015 7.12547 4 7.12847 4H7.21447C7.22097 4 7.22597 4.005 7.22597 4.0115L7.22647 11.9885C7.22647 11.9885 7.22547 11.9945 7.22297 11.9965C7.22097 11.9985 7.21847 12 7.21547 12ZM7.14047 11.977H7.20347L7.20297 4.0225H7.13997L7.14047 11.977Z" fill="black"/>
<path d="M10.9437 8.14989V7.85839L10.7052 7.63739L9.35217 7.28089L7.40217 7.08289L5.05417 7.20189L3.38267 7.59839L3.04517 7.84739V8.13889L3.90017 7.75689L5.92967 7.43989H7.87967L9.31217 7.59839L10.3072 7.83639L10.9437 8.14989Z" fill="#FFFF00"/>
<path d="M10.9429 8.16049C10.9414 8.16049 10.9394 8.16 10.9379 8.1595L10.3014 7.845L9.30894 7.608L7.87794 7.4495H5.92944L3.90344 7.766L3.04994 8.14799C3.04644 8.1495 3.04244 8.1495 3.03894 8.147C3.03594 8.145 3.03394 8.14149 3.03394 8.1375V7.84599C3.03394 7.84249 3.03544 7.839 3.03844 7.837L3.37594 7.588C3.37694 7.587 3.37844 7.5865 3.37994 7.586L5.05144 7.1895L7.40144 7.0705L9.35294 7.2685L10.7074 7.62549C10.7094 7.62599 10.7109 7.627 10.7124 7.628L10.9509 7.849C10.9534 7.851 10.9544 7.854 10.9544 7.8575V8.149C10.9544 8.153 10.9524 8.15649 10.9489 8.15849C10.9474 8.15999 10.9454 8.16049 10.9429 8.16049ZM7.87944 7.427L9.31344 7.58549L10.3094 7.82349L10.9319 8.13099V7.8625L10.6994 7.64649L9.34944 7.29049L7.40144 7.09249L5.05544 7.2115L3.38844 7.607L3.05744 7.851V8.1195L3.89594 7.7445C3.89694 7.744 3.89794 7.744 3.89894 7.74349L5.92844 7.4265L7.87944 7.427Z" fill="black"/>
<path d="M7.00295 7.39035C7.93345 7.38885 8.83645 7.47835 9.55245 7.61685C10.2915 7.76385 10.8115 7.94785 10.989 8.15485V8.25735C10.7745 7.99985 10.075 7.81135 9.53595 7.70385C8.82545 7.56635 7.92845 7.47735 7.00345 7.47885C6.02695 7.48085 5.11795 7.57285 4.41745 7.70885C3.85545 7.81985 3.10645 8.04035 3.01245 8.25835V8.15185C3.06395 8.00135 3.62195 7.77635 4.40445 7.61985C5.10995 7.48285 6.02095 7.39235 7.00295 7.39035ZM7.00345 7.05385C7.93395 7.05235 8.83695 7.14185 9.55295 7.28035C10.292 7.42735 10.812 7.61135 10.9895 7.81835V7.92085C10.775 7.66385 10.0755 7.47485 9.53645 7.36735C8.82595 7.22935 7.92895 7.14085 7.00395 7.14235C6.02745 7.14385 5.12245 7.23635 4.42245 7.37235C3.88045 7.47485 3.10045 7.70435 3.01345 7.92185V7.81535C3.06495 7.66635 3.63395 7.43335 4.40545 7.28335C5.11045 7.14635 6.02145 7.05585 7.00345 7.05385Z" fill="#FFFF00"/>
<path d="M3.0115 8.2685C3.0105 8.2685 3.01 8.2685 3.009 8.2685C3.004 8.2675 3 8.2625 3 8.2575V8.151C3 8.151 3 8.1485 3.0005 8.1475C3.0555 7.986 3.6445 7.759 4.401 7.608C5.1545 7.4615 6.078 7.38 7.002 7.3785V7.39V7.3785C7.0105 7.3785 7.0195 7.3785 7.0285 7.3785C7.903 7.3785 8.7985 7.459 9.5535 7.6055C10.325 7.759 10.824 7.9465 10.9965 8.147C10.998 8.149 10.9995 8.1515 10.999 8.1545V8.257C10.999 8.262 10.996 8.266 10.9915 8.2675C10.987 8.269 10.982 8.2675 10.979 8.264C10.7525 7.992 9.9755 7.803 9.5325 7.714C8.784 7.569 7.8955 7.4895 7.028 7.4895C7.0195 7.4895 7.0105 7.4895 7.002 7.4895C6.0895 7.491 5.172 7.573 4.418 7.7195C3.806 7.8405 3.1075 8.062 3.0215 8.262C3.02 8.266 3.016 8.2685 3.0115 8.2685ZM7.028 7.4665C7.897 7.4665 8.787 7.5465 9.537 7.6915C9.971 7.7785 10.723 7.9615 10.9765 8.2265V8.158C10.8045 7.9625 10.311 7.779 9.549 7.627C8.7875 7.4795 7.882 7.398 7.002 7.4005C6.08 7.402 5.1575 7.4835 4.4055 7.6295C3.5695 7.796 3.0705 8.0225 3.0225 8.152V8.215C3.1895 7.9905 3.962 7.7855 4.4135 7.696C5.169 7.549 6.088 7.4675 7.0015 7.466C7.011 7.4665 7.0195 7.4665 7.028 7.4665ZM3.012 7.932C3.0115 7.932 3.0105 7.932 3.01 7.932C3.0045 7.931 3.0005 7.9265 3.0005 7.921V7.8145C3.0005 7.8145 3.0005 7.812 3.001 7.811C3.0575 7.6475 3.6595 7.4155 4.402 7.2715C5.155 7.125 6.079 7.0435 7.0025 7.042C7.8845 7.041 8.791 7.121 9.554 7.269C10.3255 7.4225 10.8245 7.61 10.997 7.8105C10.999 7.812 11 7.815 11 7.8175V7.92C11 7.925 10.997 7.929 10.9925 7.9305C10.988 7.932 10.983 7.931 10.98 7.927C10.753 7.655 9.9765 7.466 9.5335 7.3775C8.7775 7.231 7.8795 7.1505 7.003 7.153C6.094 7.1545 5.178 7.236 4.4235 7.383C3.8025 7.5 3.101 7.73 3.023 7.9255C3.0205 7.9295 3.0165 7.932 3.012 7.932ZM7.0295 7.13C7.898 7.13 8.7875 7.21 9.537 7.355C9.971 7.4415 10.723 7.625 10.9765 7.89V7.8215C10.8045 7.626 10.3115 7.4425 9.549 7.2905C8.7875 7.143 7.8825 7.061 7.002 7.064C6.0795 7.0655 5.1575 7.147 4.4055 7.293C3.602 7.449 3.073 7.6805 3.0225 7.8155V7.8775C3.1815 7.6615 3.9275 7.4525 4.418 7.3595C5.1735 7.2125 6.0915 7.131 7.0015 7.1295C7.0115 7.13 7.0205 7.13 7.0295 7.13Z" fill="black"/>
<path d="M6.98429 5.33689C8.45079 5.32939 9.72979 5.54089 10.3148 5.83989L10.5283 6.20789C10.0198 5.93489 8.63979 5.65089 6.98629 5.69339C5.63929 5.70189 4.19979 5.84089 3.47729 6.22489L3.73229 5.80039C4.32529 5.49389 5.72279 5.33839 6.98429 5.33689Z" fill="#FFFF00"/>
<path d="M3.47641 6.235C3.47341 6.235 3.47041 6.234 3.46791 6.2315C3.46441 6.228 3.46391 6.222 3.46641 6.218L3.72141 5.7935C3.72241 5.7915 3.72391 5.79 3.72591 5.789C4.34291 5.4705 5.80541 5.326 6.98191 5.3245C6.98241 5.3245 6.98291 5.3245 6.98341 5.3245C8.39641 5.3185 9.70541 5.5155 10.3189 5.8285C10.3209 5.8295 10.3224 5.831 10.3234 5.833L10.5369 6.201C10.5394 6.2055 10.5389 6.211 10.5354 6.2145C10.5319 6.218 10.5264 6.219 10.5219 6.2165C9.98841 5.93 8.60291 5.6615 6.98591 5.7035C6.03891 5.7095 4.32491 5.786 3.48241 6.2335C3.48041 6.2345 3.47841 6.235 3.47641 6.235ZM3.73941 5.8075L3.50691 6.195C4.36541 5.7615 6.04941 5.6865 6.98541 5.6805C8.57191 5.64 9.93791 5.8975 10.4979 6.178L10.3059 5.847C9.69391 5.5365 8.39191 5.3405 6.98491 5.347C6.98441 5.347 6.98391 5.347 6.98341 5.347C5.81141 5.349 4.35491 5.492 3.73941 5.8075Z" fill="black"/>
<path d="M7.00385 5.64034C7.84034 5.63834 8.64834 5.68534 9.29084 5.80084C9.88934 5.91184 10.4603 6.07834 10.5418 6.16784L10.6053 6.27934C10.4068 6.15034 9.91284 6.00634 9.27884 5.88684C8.64184 5.76784 7.83434 5.72834 7.00284 5.73034C6.05885 5.72734 5.32535 5.77684 4.69585 5.88584C4.03035 6.00984 3.56835 6.18734 3.45435 6.27134L3.51635 6.15384C3.73785 6.04134 4.08885 5.90584 4.67935 5.79984C5.32985 5.68084 6.07085 5.64534 7.00385 5.64034ZM7.00334 5.30384C7.80384 5.30184 8.59384 5.34634 9.20984 5.45634C9.69584 5.55034 10.1763 5.69784 10.3518 5.82834L10.4443 5.97484C10.2868 5.80084 9.69484 5.63534 9.17184 5.54334C8.56034 5.43834 7.80334 5.39684 7.00284 5.39034C6.16285 5.39284 5.38685 5.44384 4.78435 5.55334C4.20985 5.66234 3.83885 5.79134 3.68185 5.89184L3.76335 5.76934C3.97985 5.65584 4.32985 5.55134 4.77035 5.46634C5.37735 5.35634 6.15834 5.30634 7.00334 5.30384Z" fill="#FFFF00"/>
<path d="M10.604 6.28949C10.602 6.28949 10.5995 6.28899 10.598 6.28749C10.4035 6.16099 9.9215 6.01849 9.2755 5.89649C8.708 5.79049 7.9425 5.73749 7.0015 5.73999C6.0585 5.73649 5.326 5.78599 4.6965 5.89549C4.0345 6.01899 3.575 6.19399 3.46 6.27899C3.4555 6.28199 3.45 6.28199 3.446 6.27849C3.442 6.27499 3.441 6.26949 3.4435 6.26449L3.5055 6.14649C3.5065 6.14449 3.5085 6.14249 3.5105 6.14149C3.809 5.98999 4.1905 5.87349 4.6765 5.78649C5.266 5.67899 5.94 5.63299 7.0035 5.62749C7.904 5.62549 8.6955 5.68049 9.2925 5.78799C9.9025 5.90099 10.4665 6.06749 10.55 6.15849L10.6145 6.27199C10.617 6.27649 10.616 6.28249 10.6125 6.28599C10.61 6.28849 10.607 6.28949 10.604 6.28949ZM7.064 5.71749C7.9785 5.71749 8.7235 5.76999 9.2795 5.87449C9.8905 5.98999 10.356 6.12399 10.5725 6.24599L10.5305 6.17249C10.453 6.08799 9.883 5.92149 9.2875 5.81099C8.6915 5.70399 7.901 5.64799 7.0025 5.65099C5.941 5.65699 5.268 5.70299 4.6795 5.80999C4.1975 5.89649 3.819 6.01149 3.523 6.16149L3.483 6.23799C3.6425 6.14599 4.0825 5.98799 4.692 5.87399C5.323 5.76449 6.0565 5.71499 7.001 5.71799C7.0225 5.71749 7.0435 5.71749 7.064 5.71749ZM10.444 5.98599C10.441 5.98599 10.438 5.98449 10.4355 5.98199C10.2735 5.80249 9.6525 5.63899 9.1695 5.55399C8.6135 5.45849 7.905 5.40849 7.0025 5.40099C6.126 5.40349 5.3595 5.45949 4.786 5.56349C4.2765 5.65999 3.866 5.78599 3.6875 5.90049C3.683 5.90349 3.677 5.90249 3.673 5.89899C3.669 5.89499 3.6685 5.88899 3.6715 5.88499L3.753 5.76249C3.754 5.76099 3.7555 5.75949 3.757 5.75849C3.972 5.64599 4.321 5.54049 4.767 5.45449C5.3395 5.35049 6.1125 5.29449 7.002 5.29199C7.876 5.28999 8.6395 5.34249 9.2105 5.44499C9.7315 5.54599 10.1925 5.69649 10.3575 5.81949C10.3585 5.82049 10.3595 5.82149 10.3605 5.82249L10.453 5.96899C10.456 5.97399 10.455 5.98049 10.45 5.98399C10.4485 5.98499 10.4465 5.98599 10.444 5.98599ZM7.0025 5.37799C7.9065 5.38549 8.6165 5.43549 9.1735 5.53149C9.6135 5.60949 10.168 5.75199 10.3925 5.91449L10.3425 5.83549C10.1785 5.71499 9.7225 5.56649 9.2065 5.46649C8.637 5.36449 7.8735 5.31149 7.002 5.31399C6.114 5.31649 5.3425 5.37249 4.7715 5.47599C4.33 5.56149 3.9835 5.66549 3.7705 5.77649L3.718 5.85499C3.9165 5.74599 4.3065 5.63049 4.781 5.54049C5.3565 5.43699 6.1245 5.38049 7.0025 5.37799Z" fill="black"/>
<path d="M8.95976 9.62835C8.23476 9.49335 7.50876 9.47385 7.00126 9.47985C4.55776 9.50835 3.76826 9.97985 3.67176 10.1224L3.48926 9.82585C4.11126 9.37686 5.44226 9.12486 7.01426 9.15036C7.83076 9.16386 8.53526 9.21785 9.12826 9.33185L8.95976 9.62835Z" fill="#FFFF00"/>
<path d="M3.67196 10.134C3.66796 10.134 3.66446 10.132 3.66246 10.1285L3.47996 9.83199C3.47696 9.82699 3.47796 9.82049 3.48296 9.81699C4.10646 9.36699 5.42746 9.11349 7.01496 9.13949C7.87696 9.15349 8.56946 9.21299 9.13096 9.32149C9.13446 9.32199 9.13746 9.32449 9.13896 9.32799C9.14046 9.33149 9.14046 9.33499 9.13846 9.33849L8.96996 9.63449C8.96746 9.63899 8.96146 9.64149 8.95646 9.63949C8.38196 9.53299 7.72446 9.48299 7.00146 9.49149C4.62396 9.51949 3.78696 9.97249 3.68146 10.129C3.67946 10.132 3.67596 10.134 3.67196 10.134ZM3.50496 9.82949L3.67346 10.103C3.81746 9.93249 4.67946 9.49649 7.00146 9.46899C7.72296 9.46049 8.37996 9.50999 8.95396 9.61599L9.11046 9.34049C8.55296 9.23449 7.86696 9.17599 7.01446 9.16199C5.43846 9.13649 4.12796 9.38549 3.50496 9.82949Z" fill="black"/>
<path d="M6.98735 9.43838C7.66685 9.44838 8.33435 9.47638 8.97835 9.59588L8.93185 9.67788C8.33385 9.56788 7.69585 9.52588 6.98985 9.52938C6.08785 9.52238 5.17585 9.60638 4.38185 9.83338C4.13135 9.90288 3.71635 10.0634 3.67435 10.1959L3.62785 10.1199C3.64135 10.0414 3.89185 9.87888 4.36085 9.74788C5.26985 9.48788 6.12035 9.44438 6.98735 9.43838ZM7.01785 9.09738C7.72235 9.11038 8.44935 9.14288 9.15635 9.28238L9.10785 9.36788C8.46935 9.24188 7.85935 9.19938 7.02185 9.18688C6.11735 9.18838 5.15735 9.25288 4.28485 9.50538C4.00335 9.58688 3.51685 9.76388 3.50085 9.90388L3.45435 9.82188C3.46485 9.69488 3.88585 9.52888 4.26435 9.41938C5.14435 9.16488 6.10635 9.09938 7.01785 9.09738Z" fill="#FFFF00"/>
<path d="M3.67409 10.207C3.67009 10.207 3.66659 10.205 3.66459 10.2015L3.61809 10.1255C3.61659 10.1235 3.61609 10.1205 3.61609 10.1205C3.63159 10.0295 3.89609 9.86601 4.35709 9.73701C5.22609 9.48901 6.03709 9.43401 6.98709 9.42751C6.98809 9.42751 6.98809 9.42751 6.98859 9.42751C7.63359 9.43701 8.32059 9.46301 8.98009 9.58551C8.98359 9.58601 8.98659 9.58851 8.98809 9.59151C8.98959 9.59451 8.98959 9.5985 8.98759 9.6015L8.94109 9.68351C8.93859 9.68751 8.93409 9.68951 8.92959 9.68901C8.36659 9.58551 7.73259 9.53601 6.98959 9.54051C5.99209 9.53201 5.11609 9.63501 4.38459 9.844C4.11709 9.918 3.72309 10.0775 3.68409 10.1995C3.68259 10.2035 3.67909 10.2065 3.67509 10.207C3.67509 10.207 3.67459 10.207 3.67409 10.207ZM3.63909 10.118L3.67259 10.1725C3.74759 10.04 4.13759 9.88951 4.37859 9.82301C5.11209 9.61351 5.99059 9.51051 6.98959 9.51851C7.73009 9.51501 8.36359 9.56301 8.92609 9.66601L8.96109 9.60401C8.30759 9.48401 7.62609 9.45901 6.98709 9.44951C6.98709 9.44951 6.98659 9.44951 6.98609 9.44951C6.03859 9.45601 5.22959 9.51101 4.36309 9.75801C3.89709 9.88851 3.65859 10.0475 3.63909 10.118ZM3.50159 9.915C3.49759 9.915 3.49409 9.91301 3.49209 9.90951L3.44559 9.82751C3.44459 9.82551 3.44409 9.8235 3.44409 9.8215C3.45809 9.65501 4.07359 9.46401 4.26209 9.40951C5.01409 9.19151 5.88959 9.08951 7.01809 9.08701C7.70709 9.10001 8.44359 9.13101 9.15859 9.27251C9.16209 9.27301 9.16509 9.27551 9.16659 9.27851C9.16809 9.28151 9.16809 9.28551 9.16609 9.28851L9.11759 9.37401C9.11509 9.37801 9.11059 9.38051 9.10609 9.37951C8.42809 9.24551 7.78259 9.21001 7.02209 9.19851C5.89959 9.20051 5.03109 9.30151 4.28859 9.51651C3.92409 9.62251 3.52559 9.78901 3.51209 9.90551C3.51159 9.91001 3.50809 9.914 3.50359 9.915C3.50309 9.91451 3.50209 9.915 3.50159 9.915ZM3.46659 9.81951L3.49859 9.87601C3.57809 9.70401 4.20759 9.51651 4.28259 9.49501C5.02709 9.27951 5.89759 9.17801 7.02259 9.17601C7.78159 9.18751 8.42559 9.22251 9.10259 9.35601L9.13959 9.29051C8.43109 9.15201 7.70109 9.12151 7.01809 9.10851C5.89159 9.11051 5.01809 9.21251 4.26809 9.43001C3.79409 9.56751 3.48109 9.71951 3.46659 9.81951Z" fill="black"/>
<path d="M10.489 9.87149L10.1955 10.3255L9.35203 9.57899L7.16353 8.11249L4.69653 6.76499L3.41553 6.32849L3.68853 5.82449L3.78103 5.77399L4.57703 5.97199L7.20353 7.31949L8.71553 8.27099L9.98903 9.18249L10.5065 9.77699L10.489 9.87149Z" fill="#FFFF00"/>
<path d="M10.1955 10.3365C10.1925 10.3365 10.19 10.3355 10.188 10.3335L9.3445 9.587L7.15701 8.1215L4.69051 6.77449L3.41151 6.33899C3.40851 6.33799 3.40601 6.3355 3.40451 6.3325C3.40351 6.3295 3.40351 6.32599 3.40501 6.32299L3.67801 5.81899C3.67901 5.81699 3.68051 5.81549 3.68251 5.81449L3.77501 5.76399C3.77751 5.76249 3.78051 5.76249 3.78301 5.76299L4.57901 5.961L7.20801 7.30949L8.721 8.2615L9.99501 9.1735L10.5145 9.77C10.517 9.7725 10.5175 9.776 10.517 9.7795L10.5005 9.87399C10.5 9.87549 10.4995 9.877 10.499 9.878L10.2055 10.332C10.2035 10.335 10.201 10.3365 10.1975 10.337C10.1965 10.3365 10.196 10.3365 10.1955 10.3365ZM3.43151 6.32149L4.69951 6.75349L7.16851 8.102L9.35801 9.569L10.193 10.3075L10.478 9.86699L10.4935 9.7805L9.98 9.18999L8.70851 8.27999L7.19701 7.329L4.57151 5.982L3.78251 5.78599L3.69651 5.8325L3.43151 6.32149Z" fill="black"/>
<path d="M3.36908 6.34C3.59358 6.188 5.24508 6.921 6.97258 7.9585C8.69558 8.999 10.3421 10.175 10.1936 10.395L10.1446 10.4715L10.1221 10.489C10.1271 10.4855 10.1516 10.4555 10.1196 10.374C10.0461 10.1335 8.87808 9.205 6.94058 8.0395C5.05158 6.9175 3.47708 6.241 3.31958 6.4345L3.36908 6.34ZM10.5496 9.865C10.6916 9.5855 9.16008 8.4365 7.26158 7.3175C5.31908 6.221 3.91908 5.5755 3.66358 5.768L3.60658 5.871C3.60608 5.8765 3.60858 5.864 3.62058 5.8545C3.66708 5.814 3.74408 5.817 3.77908 5.816C4.21958 5.8225 5.47708 6.399 7.24108 7.4065C8.01408 7.855 10.5071 9.4475 10.4976 9.8955C10.4981 9.934 10.5006 9.942 10.4861 9.961L10.5496 9.865Z" fill="#FFFF00"/>
<path d="M10.122 10.5005C10.1185 10.5005 10.115 10.499 10.113 10.496C10.1095 10.491 10.11 10.484 10.115 10.48L10.1156 10.4795C10.1165 10.478 10.1385 10.453 10.109 10.378C10.0335 10.1305 8.79855 9.17001 6.93455 8.04901C4.95305 6.87201 3.47005 6.26751 3.32805 6.44151C3.32455 6.44601 3.31755 6.44701 3.31305 6.44401C3.30805 6.44101 3.30655 6.43451 3.30905 6.42951L3.35855 6.33501C3.35955 6.33351 3.36055 6.33201 3.36205 6.33101C3.59755 6.17251 5.25305 6.91351 6.97805 7.94951C8.52905 8.88651 10.1381 10.008 10.2111 10.3395C10.2165 10.3645 10.2135 10.3855 10.2025 10.402L10.154 10.4785C10.1535 10.4795 10.1525 10.4805 10.1515 10.4815L10.129 10.499L10.1285 10.4995C10.1265 10.5 10.1245 10.5005 10.122 10.5005ZM3.42605 6.39201C3.85955 6.39201 5.32255 7.06551 6.94655 8.03001C8.84005 9.16901 10.0525 10.1145 10.131 10.371C10.1435 10.403 10.1475 10.4275 10.1475 10.4465L10.184 10.389C10.192 10.3775 10.1935 10.3625 10.1895 10.3435C10.1185 10.022 8.47605 8.87951 6.96705 7.96801C5.28455 6.95751 3.61205 6.20201 3.37805 6.34751L3.34955 6.40201C3.36955 6.39551 3.39505 6.39201 3.42605 6.39201ZM10.486 9.97251C10.4835 9.97251 10.4815 9.97201 10.4795 9.97051C10.4745 9.96701 10.473 9.96001 10.4765 9.95501L10.483 9.94551C10.487 9.93751 10.487 9.92951 10.4865 9.91001L10.486 9.89601C10.4955 9.45001 7.95505 7.83451 7.23555 7.41701C5.47855 6.41351 4.21855 5.83451 3.77905 5.82801H3.77005C3.73455 5.82851 3.66805 5.82901 3.62805 5.86351C3.62205 5.86801 3.61905 5.87351 3.61755 5.87651C3.61505 5.88151 3.60805 5.88501 3.60305 5.88351C3.59805 5.88201 3.59455 5.87551 3.59505 5.87001C3.59505 5.87001 3.59555 5.86701 3.59655 5.86551L3.65355 5.76251C3.65455 5.76101 3.65555 5.76001 3.65655 5.75901C3.96355 5.52801 5.78955 6.47351 7.26705 7.30801C8.98155 8.31801 10.718 9.55951 10.5595 9.87051C10.5595 9.87101 10.559 9.87101 10.559 9.87101L10.502 9.95701C10.5 9.96051 10.498 9.96401 10.495 9.96801C10.4925 9.97051 10.4895 9.97251 10.486 9.97251ZM3.77855 5.80451C4.22255 5.81101 5.48655 6.39151 7.24655 7.39651C7.75555 7.69201 10.519 9.40701 10.5085 9.89551V9.90551L10.539 9.85951C10.6685 9.60101 9.22655 8.48901 7.25505 7.32701C5.18055 6.15601 3.90855 5.60501 3.67155 5.77501L3.64355 5.82551C3.68655 5.80551 3.73805 5.80501 3.76905 5.80451H3.77855Z" fill="black"/>
<path d="M4.6404 8.42949C4.6404 9.07449 4.9054 9.65799 5.3349 10.084C5.7654 10.511 6.3499 10.781 6.9984 10.781C7.6504 10.781 8.2419 10.5175 8.6704 10.0915C9.0989 9.66599 9.3644 9.07849 9.3644 8.43149V5.29249L4.6394 5.28699L4.6404 8.42949Z" fill="white"/>
<path d="M4.72852 8.43399V8.43599C4.72852 9.05249 4.98502 9.61399 5.39602 10.022C5.80802 10.4305 6.37552 10.6845 6.99602 10.6845C7.62002 10.6845 8.18652 10.4325 8.59652 10.0255C9.00652 9.61849 9.26102 9.05699 9.26102 8.43799V5.39299L4.73102 5.39249L4.72852 8.43399ZM8.35052 6.30349V8.24149L8.34902 8.44649C8.34902 8.50049 8.34552 8.56199 8.33952 8.61449C8.30252 8.92099 8.16102 9.18799 7.95152 9.39549C7.70602 9.63849 7.36752 9.78949 6.99452 9.78949C6.62352 9.78949 6.29252 9.63349 6.04652 9.38899C5.79402 9.13849 5.64752 8.79499 5.64752 8.43999L5.64702 6.29849L8.35052 6.30349Z" fill="#FF0000"/>
<path d="M5.85691 9.32901C5.84591 9.31801 5.82891 9.31701 5.81941 9.32701L5.36392 9.78401C5.35442 9.79351 5.35542 9.81051 5.36642 9.82101C5.37742 9.83201 5.39442 9.83301 5.40392 9.82301L5.85941 9.36601C5.86891 9.35701 5.86791 9.34001 5.85691 9.32901Z" fill="#FFFF00"/>
<path d="M5.29012 9.34251L5.25562 9.37701L5.31161 9.43251C5.31961 9.44051 5.33411 9.43951 5.34261 9.43101L5.46611 9.30701C5.47461 9.29851 5.47561 9.28601 5.46661 9.27701L5.40961 9.22101L5.37411 9.25651L5.39911 9.28151L5.37411 9.30701L5.34911 9.28201L5.31362 9.31701L5.33861 9.34201L5.31362 9.36701L5.29012 9.34251Z" fill="#FFFF00"/>
<path d="M5.65097 9.49451L5.46097 9.32251L5.35547 9.42701L5.52997 9.61551L5.65097 9.49451Z" fill="#FFFF00"/>
<path d="M5.5495 8.03949C5.5495 8.02249 5.538 8.00849 5.5235 8.00849H5.349C5.3485 7.99449 5.344 7.98499 5.342 7.97299C5.344 7.98549 5.3495 7.99399 5.35 8.00799H5.515L5.486 7.76349H5.495C5.508 7.76349 5.5185 7.75099 5.5185 7.73549C5.5185 7.71999 5.508 7.70749 5.495 7.70749H4.8765C4.8635 7.70749 4.853 7.71999 4.853 7.73549C4.853 7.75099 4.8635 7.76349 4.8765 7.76349H4.886L4.8595 8.00749L5.0245 8.00799V8.00849H4.849C4.835 8.00849 4.823 8.02249 4.823 8.03949C4.823 8.05649 4.8345 8.07049 4.849 8.07049H5.5235C5.538 8.07049 5.5495 8.05649 5.5495 8.03949ZM5.0815 7.83999C5.0545 7.87699 5.0325 7.92799 5.0265 8.00049C5.029 7.92399 5.053 7.87549 5.0815 7.83999Z" fill="#FFFF00"/>
<path d="M4.83911 7.679C4.83911 7.6945 4.85011 7.707 4.86411 7.707H5.51061C5.52411 7.707 5.53561 7.6945 5.53561 7.679C5.53561 7.6635 5.52461 7.651 5.51061 7.651H4.86411C4.85011 7.651 4.83911 7.6635 4.83911 7.679Z" fill="#FFFF00"/>
<path d="M5.0769 7.28749V7.36649C5.0769 7.37799 5.0879 7.38749 5.0994 7.38749H5.2749C5.2864 7.38749 5.2969 7.37949 5.2969 7.36699V7.28699H5.2469V7.32249H5.2114V7.28749H5.1614V7.32299H5.12591V7.28849L5.0769 7.28749Z" fill="#FFFF00"/>
<path d="M5.10059 7.64949L5.27209 7.64999L5.26059 7.39449L5.11209 7.39349L5.10059 7.64949Z" fill="#FFFF00"/>
<path d="M4.89307 7.6505H5.05707L5.05207 7.513H4.89757L4.89307 7.6505Z" fill="#FFFF00"/>
<path d="M5.31494 7.6505H5.47894L5.47394 7.513H5.31944L5.31494 7.6505Z" fill="#FFFF00"/>
<path d="M4.86694 7.41299V7.49199C4.86694 7.50349 4.87744 7.51299 4.88944 7.51299H5.06144C5.07294 7.51299 5.08294 7.505 5.08294 7.4925V7.41299H5.03394V7.44849H4.99894V7.41349H4.94994V7.44899H4.91494V7.41449L4.86694 7.41299Z" fill="#FFFF00"/>
<path d="M5.28955 7.41299V7.49199C5.28955 7.50349 5.30005 7.51299 5.31205 7.51299H5.48405C5.49555 7.51299 5.50555 7.505 5.50555 7.4925V7.41299H5.45655V7.44849H5.42155V7.41349H5.37255V7.44899H5.33755V7.41449L5.28955 7.41299Z" fill="#FFFF00"/>
<path d="M5.38455 9.763L5.50005 9.647L5.39855 9.5535L5.28955 9.6625L5.38455 9.763Z" fill="#FFFF00"/>
<path d="M5.79741 9.34851L5.69591 9.255L5.58691 9.36401L5.68191 9.46451L5.79741 9.34851Z" fill="#FFFF00"/>
<path d="M5.40501 9.51701L5.34851 9.46051L5.31401 9.49501L5.33901 9.52001L5.31451 9.54451L5.28951 9.51951L5.25501 9.55401L5.28001 9.57901L5.25551 9.60351L5.23101 9.57901L5.19751 9.61251L5.25351 9.66801C5.26151 9.67601 5.27601 9.67501 5.28401 9.66701L5.40501 9.54551C5.41301 9.53851 5.41401 9.52601 5.40501 9.51701Z" fill="#FFFF00"/>
<path d="M5.55312 9.306L5.52862 9.28151L5.49512 9.315L5.55112 9.3705C5.55912 9.3785 5.57362 9.3775 5.58162 9.36951L5.70262 9.24801C5.71062 9.24001 5.71162 9.22701 5.70312 9.21851L5.64662 9.16251L5.61212 9.19701L5.63712 9.22201L5.61262 9.24651L5.58762 9.22151L5.55312 9.256L5.57812 9.28101L5.55312 9.306Z" fill="#FFFF00"/>
<path d="M6.08361 9.569L5.96061 9.6925C5.95011 9.683 5.94061 9.6795 5.93011 9.672C5.94061 9.6795 5.95011 9.6815 5.96061 9.6915L6.07711 9.5745L5.88261 9.4225L5.88911 9.416C5.89811 9.407 5.89661 9.3905 5.88611 9.3795C5.87511 9.3685 5.85861 9.3675 5.84961 9.3765L5.41411 9.8135C5.40511 9.8225 5.40661 9.839 5.41711 9.85C5.42811 9.861 5.44461 9.862 5.45361 9.853L5.46011 9.8465L5.61561 10.037L5.73211 9.92099C5.73211 9.92099 5.73211 9.9215 5.73261 9.9215L5.60861 10.0455C5.59861 10.0555 5.60011 10.0735 5.61261 10.0855C5.62461 10.0975 5.64261 10.099 5.65261 10.089L6.12761 9.6125C6.13761 9.6025 6.13611 9.5845 6.12361 9.5725C6.11211 9.5605 6.09361 9.559 6.08361 9.569ZM5.65261 9.763C5.65961 9.807 5.68061 9.857 5.72511 9.9105C5.67511 9.857 5.65761 9.807 5.65261 9.763Z" fill="#FFFF00"/>
<path d="M5.28955 5.57698V5.65598C5.28955 5.66748 5.30005 5.67698 5.31205 5.67698H5.48405C5.49555 5.67698 5.50555 5.66898 5.50555 5.65648V5.57648H5.45655V5.61198H5.42155V5.57648H5.37255V5.61198H5.33755V5.57748L5.28955 5.57698Z" fill="#FFFF00"/>
<path d="M4.88943 5.67649H5.06143C5.07293 5.67649 5.08293 5.66849 5.08293 5.65599V5.57599H5.03393V5.61149H4.99893V5.57599H4.94993V5.61149H4.91493V5.57699H4.86743V5.65599C4.86743 5.66749 4.87793 5.67649 4.88943 5.67649Z" fill="#FFFF00"/>
<path d="M5.47394 5.677H5.31944L5.31494 5.8145H5.47894L5.47394 5.677Z" fill="#FFFF00"/>
<path d="M5.05207 5.677H4.89757L4.89307 5.8145H5.05707L5.05207 5.677Z" fill="#FFFF00"/>
<path d="M5.10059 5.8135L5.27209 5.814L5.26059 5.55799L5.11209 5.5575L5.10059 5.8135Z" fill="#FFFF00"/>
<path d="M5.0994 5.55151H5.2749C5.2864 5.55151 5.2969 5.54351 5.2969 5.53101V5.45151H5.2469V5.48701H5.2114V5.45201H5.1614V5.48751H5.12591V5.45301H5.0769V5.53201C5.0769 5.54201 5.0879 5.55151 5.0994 5.55151Z" fill="#FFFF00"/>
<path d="M5.50988 5.871C5.52338 5.871 5.53488 5.8585 5.53488 5.843C5.53488 5.8275 5.52388 5.815 5.50988 5.815H4.86338C4.84988 5.815 4.83838 5.8275 4.83838 5.843C4.83838 5.8585 4.84938 5.871 4.86338 5.871H5.50988Z" fill="#FFFF00"/>
<path d="M5.5235 6.2345C5.5375 6.2345 5.5495 6.2205 5.5495 6.2035C5.5495 6.1865 5.538 6.1725 5.5235 6.1725H5.349C5.3485 6.1585 5.344 6.149 5.342 6.1365C5.344 6.149 5.3495 6.1575 5.35 6.1715H5.515L5.486 5.927H5.495C5.508 5.927 5.5185 5.9145 5.5185 5.899C5.5185 5.8835 5.508 5.871 5.495 5.871H4.8765C4.8635 5.871 4.853 5.8835 4.853 5.899C4.853 5.9145 4.8635 5.927 4.8765 5.927H4.886L4.8595 6.171L5.0245 6.1715V6.172H4.849C4.835 6.172 4.823 6.186 4.823 6.203C4.823 6.22 4.8345 6.234 4.849 6.234H5.5235V6.2345ZM5.0815 6.004C5.0545 6.041 5.0325 6.092 5.0265 6.1645C5.029 6.0875 5.053 6.0395 5.0815 6.004Z" fill="#FFFF00"/>
<path d="M7.29303 5.677H7.13903L7.13403 5.8145H7.29853L7.29303 5.677Z" fill="#FFFF00"/>
<path d="M6.70852 5.67649H6.88052C6.89202 5.67649 6.90203 5.66849 6.90203 5.65599V5.57599H6.85302V5.61149H6.81802V5.57599H6.76902V5.61149H6.73402V5.57699H6.68652V5.65599C6.68652 5.66749 6.69702 5.67649 6.70852 5.67649Z" fill="#FFFF00"/>
<path d="M7.1084 5.57698V5.65598C7.1084 5.66748 7.1189 5.67698 7.1304 5.67698H7.3024C7.3139 5.67698 7.3239 5.66898 7.3239 5.65648V5.57648H7.2749V5.61198H7.2399V5.57648H7.1909V5.61198H7.1559V5.57748L7.1084 5.57698Z" fill="#FFFF00"/>
<path d="M6.87091 5.677H6.71641L6.71191 5.8145H6.87591L6.87091 5.677Z" fill="#FFFF00"/>
<path d="M6.91943 5.8135L7.09093 5.814L7.07993 5.55799L6.93093 5.5575L6.91943 5.8135Z" fill="#FFFF00"/>
<path d="M6.919 5.55151H7.0945C7.106 5.55151 7.1165 5.54351 7.1165 5.53101V5.45151H7.0665V5.48701H7.031V5.45201H6.981V5.48751H6.945V5.45301H6.896V5.53201C6.896 5.54201 6.907 5.55151 6.919 5.55151Z" fill="#FFFF00"/>
<path d="M7.32897 5.871C7.34247 5.871 7.35397 5.8585 7.35397 5.843C7.35397 5.8275 7.34297 5.815 7.32897 5.815H6.68247C6.66897 5.815 6.65747 5.8275 6.65747 5.843C6.65747 5.8585 6.66847 5.871 6.68247 5.871H7.32897Z" fill="#FFFF00"/>
<path d="M7.16809 6.1725C7.16759 6.1585 7.16309 6.149 7.16109 6.1365C7.16309 6.149 7.16859 6.1575 7.16909 6.1715H7.33409L7.30509 5.927H7.31409C7.32709 5.927 7.33759 5.9145 7.33759 5.899C7.33759 5.8835 7.32709 5.871 7.31409 5.871H6.69559C6.68259 5.871 6.67209 5.8835 6.67209 5.899C6.67209 5.9145 6.68259 5.927 6.69559 5.927H6.70509L6.67859 6.171L6.84359 6.1715V6.172H6.66809C6.65409 6.172 6.64209 6.186 6.64209 6.203C6.64209 6.22 6.65359 6.234 6.66809 6.234H7.34259C7.35659 6.234 7.36859 6.22 7.36859 6.203C7.36859 6.186 7.35709 6.172 7.34259 6.172H7.16809V6.1725ZM6.90059 6.004C6.87359 6.041 6.85159 6.092 6.84559 6.1645C6.84809 6.0875 6.87209 6.0395 6.90059 6.004Z" fill="#FFFF00"/>
<path d="M8.4184 9.36949C8.4264 9.37749 8.4409 9.37849 8.4489 9.37049L8.5054 9.31499L8.4719 9.28149L8.4474 9.30599L8.4229 9.28149L8.4479 9.25649L8.4134 9.22199L8.3884 9.24699L8.3639 9.22249L8.3889 9.19749L8.35439 9.16299L8.2979 9.21899C8.2889 9.22799 8.29039 9.24049 8.29839 9.24849L8.4184 9.36949Z" fill="#FFFF00"/>
<path d="M8.74451 9.60449L8.72001 9.57999L8.74501 9.55499L8.71051 9.52049L8.68551 9.54549L8.66101 9.52099L8.68601 9.49599L8.65151 9.46149L8.59501 9.51799C8.58601 9.52699 8.58751 9.53949 8.59551 9.54749L8.71651 9.66899C8.72451 9.67699 8.73901 9.67799 8.74701 9.66999L8.80301 9.61449L8.76951 9.58099L8.74451 9.60449Z" fill="#FFFF00"/>
<path d="M8.41289 9.36401L8.30389 9.255L8.20239 9.34851L8.31789 9.46451L8.41289 9.36401Z" fill="#FFFF00"/>
<path d="M8.49951 9.647L8.61551 9.763L8.71051 9.6625L8.60151 9.5535L8.49951 9.647Z" fill="#FFFF00"/>
<path d="M8.11388 9.37999C8.10288 9.39099 8.10138 9.40699 8.11088 9.41649L8.11738 9.42299L7.92288 9.57499L8.03938 9.69199C8.04988 9.68199 8.05938 9.68048 8.06988 9.67248C8.05988 9.67998 8.04988 9.68348 8.03938 9.69298L7.91638 9.56949C7.90638 9.55949 7.88838 9.56099 7.87588 9.57299C7.86388 9.58499 7.86188 9.60299 7.87188 9.61299L8.34688 10.0895C8.35688 10.0995 8.37488 10.098 8.38738 10.086C8.39938 10.074 8.40138 10.056 8.39138 10.046L8.26738 9.92198C8.26738 9.92198 8.26738 9.92149 8.26788 9.92149L8.38438 10.0375L8.53988 9.84698L8.54638 9.85349C8.55538 9.86249 8.57188 9.86148 8.58288 9.85048C8.59388 9.83948 8.59538 9.82349 8.58588 9.81399L8.15038 9.37699C8.14088 9.36799 8.12438 9.36899 8.11388 9.37999ZM8.34738 9.76349C8.34238 9.80749 8.32488 9.85699 8.27488 9.91099C8.31938 9.85699 8.33988 9.80749 8.34738 9.76349Z" fill="#FFFF00"/>
<path d="M8.5895 9.22101L8.533 9.27701C8.524 9.28601 8.5255 9.29851 8.5335 9.30701L8.657 9.43101C8.6655 9.43951 8.6795 9.44051 8.688 9.43251L8.744 9.37701L8.7095 9.34251L8.685 9.36701L8.66 9.34201L8.685 9.31701L8.6495 9.28201L8.6245 9.30701L8.5995 9.28151L8.6245 9.25651L8.5895 9.22101Z" fill="#FFFF00"/>
<path d="M8.47012 9.61551L8.64412 9.42701L8.53912 9.32251L8.34912 9.49451L8.47012 9.61551Z" fill="#FFFF00"/>
<path d="M8.14303 9.32901C8.13203 9.34001 8.13103 9.35651 8.14053 9.36601L8.59603 9.82301C8.60553 9.83251 8.62253 9.83151 8.63353 9.82101C8.64453 9.81001 8.64553 9.79351 8.63603 9.78401L8.18053 9.32701C8.17053 9.31751 8.15353 9.31851 8.14303 9.32901Z" fill="#FFFF00"/>
<path d="M8.49512 7.41251V7.49201C8.49512 7.50451 8.50512 7.51251 8.51662 7.51251H8.68862C8.70012 7.51251 8.71062 7.50301 8.71112 7.49151V7.41251H8.66362V7.44701H8.62862V7.41151H8.57962V7.44651H8.54462V7.41101L8.49512 7.41251Z" fill="#FFFF00"/>
<path d="M8.91699 7.41251V7.49201C8.91699 7.50451 8.92699 7.51251 8.93849 7.51251H9.11049C9.12199 7.51251 9.13249 7.50301 9.13299 7.49151V7.41251H9.08549V7.44701H9.04999V7.41151H9.00099V7.44651H8.96599V7.41101L8.91699 7.41251Z" fill="#FFFF00"/>
<path d="M8.68501 7.6505L8.68001 7.513H8.52601L8.52051 7.6505H8.68501Z" fill="#FFFF00"/>
<path d="M9.10711 7.6505L9.10261 7.513H8.94812L8.94312 7.6505H9.10711Z" fill="#FFFF00"/>
<path d="M8.72803 7.64999L8.89953 7.64949L8.88803 7.39349L8.73903 7.39449L8.72803 7.64999Z" fill="#FFFF00"/>
<path d="M8.70288 7.28701V7.36701C8.70288 7.37951 8.71288 7.38751 8.72488 7.38751H8.89988C8.91188 7.38751 8.92238 7.37801 8.92238 7.36651V7.28751H8.87338V7.32201H8.83788V7.28651H8.78788V7.32151H8.75238V7.28601H8.70288V7.28701Z" fill="#FFFF00"/>
<path d="M8.46509 7.679C8.46509 7.6945 8.47609 7.707 8.49009 7.707H9.13659C9.15009 7.707 9.16159 7.6945 9.16159 7.679C9.16159 7.6635 9.15059 7.651 9.13659 7.651H8.49009C8.47609 7.651 8.46509 7.6635 8.46509 7.679Z" fill="#FFFF00"/>
<path d="M8.97495 8.00849V8.00799L9.13995 8.00749L9.11345 7.76349H9.12295C9.13595 7.76349 9.14645 7.75099 9.14645 7.73549C9.14645 7.71999 9.13595 7.70749 9.12295 7.70749H8.50445C8.49145 7.70749 8.48095 7.71999 8.48095 7.73549C8.48095 7.75099 8.49145 7.76349 8.50445 7.76349H8.51345L8.48445 8.00799H8.64945C8.64995 7.99349 8.65545 7.98549 8.65745 7.97249C8.65545 7.98499 8.65095 7.99499 8.65045 8.00849H8.47595C8.46195 8.00849 8.44995 8.02249 8.44995 8.03949C8.44995 8.05649 8.46145 8.07049 8.47595 8.07049H9.15045C9.16445 8.07049 9.17645 8.05649 9.17645 8.03949C9.17645 8.02249 9.16495 8.00849 9.15045 8.00849H8.97495ZM8.91845 7.84049C8.94695 7.87549 8.97045 7.92349 8.97295 7.99949C8.96695 7.92749 8.94545 7.87699 8.91845 7.84049Z" fill="#FFFF00"/>
<path d="M8.51662 5.6765H8.68862C8.70012 5.6765 8.71062 5.667 8.71112 5.6555V5.5765H8.66362V5.611H8.62862V5.5755H8.57962V5.611H8.54462V5.5755H8.49562V5.6555C8.49512 5.6685 8.50512 5.6765 8.51662 5.6765Z" fill="#FFFF00"/>
<path d="M8.68501 5.8145L8.68001 5.677H8.52601L8.52051 5.8145H8.68501Z" fill="#FFFF00"/>
<path d="M8.91699 5.57649V5.65649C8.91699 5.66899 8.92699 5.67699 8.93849 5.67699H9.11049C9.12199 5.67699 9.13249 5.66749 9.13299 5.65599V5.57699H9.08549V5.61149H9.04999V5.57599H9.00099V5.61149H8.96599V5.57599L8.91699 5.57649Z" fill="#FFFF00"/>
<path d="M9.10711 5.8145L9.10261 5.677H8.94812L8.94312 5.8145H9.10711Z" fill="#FFFF00"/>
<path d="M8.72803 5.814L8.89953 5.8135L8.88803 5.5575L8.73903 5.55799L8.72803 5.814Z" fill="#FFFF00"/>
<path d="M8.72439 5.55151H8.89989C8.91189 5.55151 8.92239 5.54201 8.92239 5.53051V5.45151H8.87339V5.48601H8.83789V5.45051H8.78789V5.48551H8.75239V5.45001H8.70239V5.52951C8.70289 5.54301 8.71289 5.55151 8.72439 5.55151Z" fill="#FFFF00"/>
<path d="M9.13659 5.871C9.15009 5.871 9.16159 5.8585 9.16159 5.843C9.16159 5.8275 9.15059 5.815 9.13659 5.815H8.49009C8.47659 5.815 8.46509 5.8275 8.46509 5.843C8.46509 5.8585 8.47609 5.871 8.49009 5.871H9.13659Z" fill="#FFFF00"/>
<path d="M9.15045 6.23449C9.16445 6.23449 9.17645 6.22049 9.17645 6.20349C9.17645 6.18649 9.16495 6.17249 9.15045 6.17249H8.97495V6.17199L9.13995 6.17149L9.11345 5.92749H9.12295C9.13595 5.92749 9.14645 5.91499 9.14645 5.89949C9.14645 5.88399 9.13595 5.87149 9.12295 5.87149H8.50445C8.49145 5.87149 8.48095 5.88399 8.48095 5.89949C8.48095 5.91499 8.49145 5.92749 8.50445 5.92749H8.51345L8.48445 6.17199H8.64945C8.64995 6.15749 8.65545 6.14949 8.65745 6.13649C8.65545 6.14899 8.65095 6.15899 8.65045 6.17249H8.47595C8.46195 6.17249 8.44995 6.18649 8.44995 6.20349C8.44995 6.22049 8.46145 6.23449 8.47595 6.23449H9.15045ZM8.91845 6.00449C8.94695 6.03949 8.97045 6.08749 8.97295 6.16349C8.96695 6.09149 8.94545 6.04099 8.91845 6.00449Z" fill="#FFFF00"/>
<path d="M5.38438 9.77751L5.27588 9.66251L5.39838 9.54001L5.51488 9.64701L5.38438 9.77751ZM5.30338 9.66301L5.38488 9.74901L5.48588 9.64751L5.39888 9.56751L5.30338 9.66301Z" fill="black"/>
<path d="M5.68199 9.47901L5.57349 9.36402L5.69599 9.24152L5.81249 9.34852L5.68199 9.47901ZM5.60099 9.36452L5.68249 9.45051L5.78349 9.34902L5.69649 9.26902L5.60099 9.36452Z" fill="black"/>
<path d="M5.26737 9.68451C5.25937 9.68451 5.25187 9.68151 5.24587 9.67601L5.18237 9.61351L5.18937 9.60651L5.19637 9.61351L5.18937 9.60651L5.22987 9.56601L5.25437 9.59051L5.26487 9.58001L5.23987 9.55501L5.28837 9.50651L5.31337 9.53151L5.32387 9.52101L5.29887 9.49601L5.34737 9.44751L5.41137 9.51101C5.42387 9.52301 5.42338 9.54201 5.41087 9.55451L5.28987 9.67601C5.28437 9.68151 5.27587 9.68451 5.26737 9.68451ZM5.21087 9.61351L5.25987 9.66201C5.26387 9.66601 5.27187 9.66551 5.27637 9.66101L5.39737 9.53951C5.40137 9.53551 5.40287 9.52901 5.39787 9.52401L5.34837 9.47451L5.32787 9.49501L5.35287 9.52001L5.31437 9.55901L5.28937 9.53401L5.26887 9.55451L5.29387 9.57951L5.25537 9.61801L5.23087 9.59351L5.21087 9.61351Z" fill="black"/>
<path d="M5.56487 9.38651C5.55687 9.38651 5.54938 9.38351 5.54338 9.37801L5.48438 9.31951V9.31151L5.52787 9.26801L5.55237 9.29251L5.56287 9.28201L5.53788 9.25701L5.58638 9.20851L5.61137 9.23351L5.62187 9.22301L5.59688 9.19801L5.64538 9.14951L5.70938 9.21251C5.72188 9.22501 5.72137 9.24351 5.70887 9.25601L5.58788 9.37751C5.58188 9.38301 5.57337 9.38651 5.56487 9.38651ZM5.50838 9.31501L5.55737 9.36351C5.56137 9.36751 5.56938 9.36701 5.57388 9.36251L5.69487 9.24101C5.69887 9.23701 5.70038 9.23051 5.69538 9.22551L5.64588 9.17651L5.62537 9.19701L5.65038 9.22201L5.61188 9.26101L5.58688 9.23601L5.56637 9.25651L5.59138 9.28151L5.55288 9.32001L5.52837 9.29551L5.50838 9.31501Z" fill="black"/>
<path d="M5.45451 9.4435C5.43601 9.4265 5.46101 9.401 5.47901 9.419L5.52251 9.462L5.49801 9.4865L5.45451 9.4435Z" fill="black"/>
<path d="M5.36803 9.65601C5.35103 9.63901 5.37403 9.61501 5.39103 9.63301L5.42453 9.66601L5.40153 9.68901L5.36803 9.65601Z" fill="black"/>
<path d="M5.66637 9.35651C5.64937 9.33951 5.67237 9.31551 5.68937 9.33351L5.72287 9.36651L5.69987 9.39001L5.66637 9.35651Z" fill="black"/>
<path d="M5.03486 8.01752L4.84937 8.01702L4.87837 7.75252L4.88087 7.74552L5.49486 7.74402L5.52687 8.01702H5.33986V8.00752C5.33586 7.81752 5.18686 7.77552 5.18536 7.77502C5.18586 7.77552 5.03636 7.80452 5.03486 8.00702V8.01752ZM5.35936 7.99752H5.50386L5.47636 7.76402L5.21336 7.76452C5.23086 7.77252 5.25437 7.78652 5.27687 7.80702C5.31237 7.84002 5.35486 7.89952 5.35936 7.99752ZM4.87137 7.99752L5.01537 7.99802C5.01887 7.88852 5.06536 7.82802 5.10436 7.79652C5.12236 7.78202 5.14086 7.77202 5.15636 7.76552L4.89637 7.76602L4.87137 7.99752Z" fill="black"/>
<path d="M5.52349 8.08001H4.84899C4.82949 8.08001 4.81299 8.06151 4.81299 8.03901C4.81299 8.01652 4.82899 7.99802 4.84899 7.99802H5.52349C5.54299 7.99802 5.55949 8.01652 5.55949 8.03901C5.55949 8.06201 5.54349 8.08001 5.52349 8.08001ZM4.84949 8.01802C4.84099 8.01802 4.83349 8.02752 4.83349 8.03901C4.83349 8.05051 4.84099 8.06002 4.84949 8.06002H5.52399C5.53249 8.06002 5.53999 8.05051 5.53999 8.03901C5.53999 8.02752 5.53249 8.01802 5.52399 8.01802H4.84949Z" fill="black"/>
<path d="M5.28897 8.01699H5.09447V8.00699H5.08447C5.08497 7.92199 5.12097 7.87399 5.15047 7.84899C5.15097 7.84899 5.17697 7.82749 5.18647 7.82899C5.19197 7.82899 5.28797 7.87399 5.28897 8.00699V8.01699ZM5.10447 7.99699H5.26847C5.26397 7.89599 5.20097 7.85799 5.18497 7.84949C5.16997 7.85749 5.10897 7.89599 5.10447 7.99699Z" fill="black"/>
<path d="M5.50986 7.71699H4.86336C4.84436 7.71699 4.82886 7.69999 4.82886 7.67899C4.82886 7.65799 4.84436 7.64099 4.86336 7.64099H5.50986C5.52886 7.64099 5.54436 7.65799 5.54436 7.67899C5.54486 7.69999 5.52886 7.71699 5.50986 7.71699ZM4.86336 7.66099C4.85536 7.66099 4.84836 7.66949 4.84836 7.67899C4.84836 7.68849 4.85536 7.69699 4.86336 7.69699H5.50986C5.51786 7.69699 5.52486 7.68899 5.52486 7.67899C5.52486 7.66899 5.51786 7.66099 5.50986 7.66099H4.86336Z" fill="black"/>
<path d="M5.27489 7.39751H5.09939C5.08189 7.39751 5.06689 7.38351 5.06689 7.36701V7.28301L5.07389 7.27851H5.07689H5.13589V7.31301H5.15139V7.27751H5.22139V7.31251H5.23739V7.27701H5.30739V7.36651C5.30689 7.38401 5.29339 7.39751 5.27489 7.39751ZM5.08689 7.29751V7.36651C5.08689 7.37201 5.09289 7.37751 5.09989 7.37751H5.27539C5.28089 7.37751 5.28739 7.37401 5.28739 7.36701V7.29701H5.25739V7.33251H5.20189V7.29751H5.17189V7.33301H5.11639V7.29851L5.08689 7.29751Z" fill="black"/>
<path d="M5.49551 7.77299H4.87701C4.85851 7.77299 4.84351 7.75599 4.84351 7.73499C4.84351 7.71399 4.85851 7.69699 4.87701 7.69699H5.49551C5.51401 7.69699 5.52901 7.71399 5.52901 7.73499C5.52901 7.75599 5.51401 7.77299 5.49551 7.77299ZM4.87701 7.71749C4.86951 7.71749 4.86351 7.72549 4.86351 7.73549C4.86351 7.74549 4.87001 7.75349 4.87701 7.75349H5.49551C5.50301 7.75349 5.50901 7.74549 5.50901 7.73549C5.50901 7.72549 5.50251 7.71749 5.49551 7.71749H4.87701Z" fill="black"/>
<path d="M5.28184 7.66L5.08984 7.6595L5.10184 7.384L5.26984 7.3845L5.28184 7.66ZM5.11084 7.6395L5.26134 7.64L5.25134 7.404L5.12134 7.4035L5.11084 7.6395Z" fill="black"/>
<path d="M4.88257 7.66049L4.88807 7.50299H5.06157L5.06757 7.66049H4.88257ZM4.90707 7.52249L4.90307 7.64049H5.04657L5.04207 7.52249H4.90707Z" fill="black"/>
<path d="M5.30493 7.66049L5.31043 7.50299H5.48393L5.48993 7.66049H5.30493ZM5.32943 7.52249L5.32543 7.64049H5.46893L5.46443 7.52249H5.32943Z" fill="black"/>
<path d="M5.06142 7.5225H4.88942C4.87192 7.5225 4.85742 7.5085 4.85742 7.492V7.408L4.86442 7.4035H4.86742H4.92492V7.438H4.93992V7.4025L5.00892 7.403V7.438H5.02392V7.4025H5.09292V7.492C5.09242 7.509 5.07892 7.5225 5.06142 7.5225ZM4.87692 7.423V7.492C4.87692 7.4975 4.88292 7.503 4.88942 7.503H5.06142C5.06692 7.503 5.07292 7.4995 5.07292 7.4925V7.4225H5.04392V7.458H4.98892V7.4225H4.95992V7.458H4.90492V7.4235L4.87692 7.423Z" fill="black"/>
<path d="M5.48354 7.5225H5.31154C5.29404 7.5225 5.27954 7.5085 5.27954 7.492V7.408L5.28654 7.4035H5.28954H5.34704V7.438H5.36204V7.4025L5.43104 7.403V7.438H5.44604V7.4025H5.51504V7.492C5.51454 7.5095 5.50154 7.5225 5.48354 7.5225ZM5.29954 7.423V7.492C5.29954 7.4975 5.30554 7.503 5.31204 7.503H5.48404C5.48954 7.503 5.49554 7.4995 5.49554 7.4925V7.4225H5.46654V7.458H5.41154V7.4225H5.38254V7.458H5.32754V7.4235L5.29954 7.423Z" fill="black"/>
<path d="M5.16945 7.47502C5.16845 7.45002 5.20446 7.45002 5.20396 7.47502V7.53602H5.16945V7.47502Z" fill="black"/>
<path d="M4.95752 7.56351C4.95752 7.53951 4.99102 7.53901 4.99052 7.56351V7.61051H4.95752V7.56351Z" fill="black"/>
<path d="M5.38086 7.56351C5.38086 7.53951 5.41436 7.53901 5.41386 7.56351V7.61051H5.38086V7.56351Z" fill="black"/>
<path d="M5.38738 9.84C5.37738 9.84 5.36738 9.836 5.35988 9.8285C5.34488 9.814 5.34388 9.791 5.35738 9.7775L5.81288 9.32051C5.81888 9.31451 5.82738 9.311 5.83638 9.311C5.84638 9.311 5.85688 9.3155 5.86438 9.3225C5.87938 9.337 5.88038 9.36 5.86688 9.3735L5.41138 9.8305C5.40438 9.8365 5.39588 9.84 5.38738 9.84ZM5.37138 9.791C5.36588 9.7965 5.36688 9.8075 5.37388 9.814C5.38088 9.821 5.39138 9.822 5.39738 9.816L5.85288 9.359C5.85838 9.3535 5.85738 9.34251 5.85038 9.33601C5.84638 9.33201 5.84138 9.33 5.83688 9.33C5.83438 9.329 5.83038 9.3305 5.82738 9.3335L5.37138 9.791Z" fill="black"/>
<path d="M5.43796 9.86951C5.42796 9.86951 5.41796 9.86551 5.40996 9.85751C5.39496 9.84301 5.39346 9.82001 5.40696 9.80701L5.84246 9.37002C5.85546 9.35702 5.87846 9.35802 5.89296 9.37302C5.90046 9.38052 5.90496 9.39102 5.90496 9.40102C5.90496 9.40952 5.90196 9.41752 5.89596 9.42352L5.46046 9.86051C5.45446 9.86651 5.44646 9.86951 5.43796 9.86951ZM5.86496 9.38102C5.86146 9.38102 5.85846 9.38202 5.85646 9.38402L5.42096 9.82101C5.41596 9.82651 5.41696 9.83651 5.42396 9.84351C5.43096 9.85051 5.44146 9.85151 5.44646 9.84651L5.88196 9.40952C5.88446 9.40702 5.88496 9.40352 5.88496 9.40102C5.88496 9.39602 5.88246 9.39102 5.87846 9.38702C5.87496 9.38302 5.86996 9.38102 5.86496 9.38102Z" fill="black"/>
<path d="M5.32596 9.44801C5.31796 9.44801 5.31046 9.44501 5.30496 9.43951L5.24146 9.37701L5.24846 9.37001L5.25546 9.37701L5.24846 9.37001L5.28996 9.32851L5.31446 9.35301L5.32546 9.34201L5.30046 9.31701L5.34996 9.26751L5.37496 9.29201L5.38596 9.28101L5.36096 9.25601L5.41046 9.20651L5.47446 9.27001C5.48046 9.27551 5.48346 9.28301 5.48346 9.29101C5.48346 9.29951 5.47996 9.30751 5.47396 9.31401L5.35046 9.43801C5.34296 9.44501 5.33446 9.44801 5.32596 9.44801ZM5.26946 9.37701L5.31846 9.42551C5.32246 9.42951 5.33046 9.42901 5.33546 9.42401L5.45896 9.30001C5.46146 9.29751 5.46296 9.29451 5.46296 9.29101C5.46296 9.29101 5.46196 9.28601 5.45996 9.28401L5.41046 9.23451L5.38946 9.25601L5.41446 9.28101L5.37546 9.32051L5.35046 9.29551L5.32896 9.31701L5.35396 9.34201L5.31496 9.38151L5.29046 9.35701L5.26946 9.37701Z" fill="black"/>
<path d="M5.52954 9.6295L5.34204 9.4265L5.46104 9.3085L5.66554 9.494L5.52954 9.6295ZM5.36954 9.4275L5.53004 9.601L5.63654 9.495L5.46154 9.336L5.36954 9.4275Z" fill="black"/>
<path d="M5.78043 9.88602L5.77343 9.87902C5.71543 9.82102 5.70543 9.76452 5.70693 9.72702C5.70793 9.70902 5.71242 9.68602 5.71742 9.68152L5.71993 9.68002C5.72393 9.67852 5.82093 9.64052 5.91693 9.73452L5.92393 9.74152L5.78043 9.88602ZM5.73193 9.69702C5.72693 9.71352 5.71043 9.78252 5.78043 9.85752L5.89593 9.74152C5.82143 9.67402 5.74943 9.69102 5.73193 9.69702Z" fill="black"/>
<path d="M5.6359 10.106C5.6254 10.106 5.6139 10.1015 5.6054 10.093C5.5894 10.077 5.5874 10.0525 5.6014 10.039L6.0764 9.56249C6.0834 9.55549 6.0934 9.55199 6.1039 9.55299C6.1139 9.55399 6.1234 9.55849 6.1309 9.56599C6.1469 9.58199 6.1489 9.60599 6.1349 9.61999L5.6599 10.0965C5.6534 10.103 5.6449 10.106 5.6359 10.106ZM5.6154 10.0525C5.6094 10.0585 5.6109 10.0705 5.6194 10.0785C5.6274 10.0865 5.6394 10.088 5.6454 10.082L6.1204 9.60549C6.1264 9.59949 6.1249 9.58749 6.1164 9.57949C6.1124 9.57549 6.1069 9.57249 6.1014 9.57199C6.0969 9.57149 6.0929 9.57299 6.0899 9.57549L5.6154 10.0525Z" fill="black"/>
<path d="M5.61485 10.052L5.44685 9.845L5.44385 9.8385L5.44885 9.8335L5.87535 9.4035L6.09285 9.5735L5.96185 9.705L5.95485 9.6985C5.81635 9.5675 5.68185 9.643 5.68035 9.644C5.68085 9.644 5.59635 9.77 5.73985 9.914L5.74685 9.921L5.61485 10.052ZM5.46885 9.8415L5.61635 10.0225L5.71785 9.921C5.64185 9.841 5.63185 9.7655 5.63685 9.7155C5.63935 9.693 5.64485 9.673 5.65085 9.6575L5.46885 9.8415ZM5.77635 9.602C5.82485 9.602 5.89235 9.6165 5.96035 9.678L6.06185 9.576L5.87585 9.431L5.69085 9.6175C5.70885 9.611 5.73485 9.604 5.76485 9.6025C5.76885 9.602 5.77285 9.602 5.77635 9.602Z" fill="black"/>
<path d="M5.16945 5.63902C5.16845 5.61402 5.20446 5.61402 5.20396 5.63902V5.70002H5.16945V5.63902Z" fill="black"/>
<path d="M4.95752 5.72751C4.95752 5.70351 4.99102 5.70301 4.99052 5.72751V5.77451H4.95752V5.72751Z" fill="black"/>
<path d="M5.38086 5.72751C5.38086 5.70351 5.41436 5.70301 5.41386 5.72751V5.77451H5.38086V5.72751Z" fill="black"/>
<path d="M5.48354 5.6865H5.31154C5.29404 5.6865 5.27954 5.6725 5.27954 5.656V5.572L5.28654 5.5675H5.28954H5.34704V5.602H5.36204V5.5665L5.43104 5.567V5.602H5.44604V5.5665H5.51504V5.656C5.51454 5.673 5.50104 5.6865 5.48354 5.6865ZM5.29954 5.587V5.656C5.29954 5.6615 5.30554 5.667 5.31204 5.667H5.48404C5.48954 5.667 5.49554 5.6635 5.49554 5.6565V5.5865H5.46654V5.622H5.41154V5.5865H5.38254V5.622H5.32754V5.5875L5.29954 5.587Z" fill="black"/>
<path d="M5.06142 5.6865H4.88942C4.87192 5.6865 4.85742 5.6725 4.85742 5.656V5.572L4.86442 5.5675H4.86742H4.92492V5.602H4.93992V5.5665L5.00892 5.567V5.602H5.02392V5.5665H5.09292V5.656C5.09242 5.673 5.07892 5.6865 5.06142 5.6865ZM4.87692 5.587V5.656C4.87692 5.6615 4.88292 5.667 4.88942 5.667H5.06142C5.06692 5.667 5.07292 5.6635 5.07292 5.6565V5.5865H5.04392V5.622H4.98892V5.5865H4.95992V5.622H4.90492V5.5875L4.87692 5.587Z" fill="black"/>
<path d="M5.30493 5.82449L5.31043 5.66699H5.48393L5.48993 5.82449H5.30493ZM5.32943 5.68649L5.32543 5.80449H5.46893L5.46443 5.68649H5.32943Z" fill="black"/>
<path d="M4.88257 5.82449L4.88807 5.66699H5.06157L5.06757 5.82449H4.88257ZM4.90707 5.68649L4.90307 5.80449H5.04657L5.04207 5.68649H4.90707Z" fill="black"/>
<path d="M5.28184 5.824L5.08984 5.8235L5.10184 5.548L5.26984 5.5485L5.28184 5.824ZM5.11084 5.8035L5.26134 5.804L5.25134 5.568L5.12134 5.5675L5.11084 5.8035Z" fill="black"/>
<path d="M5.27489 5.56099H5.09939C5.08189 5.56099 5.06689 5.54699 5.06689 5.53049V5.44649L5.07389 5.44199H5.07689H5.13589V5.47649H5.15139V5.44099H5.22139V5.47599H5.23739V5.44049H5.30739V5.52999C5.30689 5.54799 5.29339 5.56099 5.27489 5.56099ZM5.08689 5.46149V5.53049C5.08689 5.53599 5.09289 5.54149 5.09989 5.54149H5.27539C5.28089 5.54149 5.28739 5.53799 5.28739 5.53099V5.46099H5.25739V5.49649H5.20189V5.46149H5.17189V5.49699H5.11639V5.46249L5.08689 5.46149Z" fill="black"/>
<path d="M5.49551 5.93699H4.87701C4.85851 5.93699 4.84351 5.91999 4.84351 5.89899C4.84351 5.87799 4.85851 5.86099 4.87701 5.86099H5.49551C5.51401 5.86099 5.52901 5.87799 5.52901 5.89899C5.52901 5.91999 5.51401 5.93699 5.49551 5.93699ZM4.87701 5.88149C4.86951 5.88149 4.86351 5.88949 4.86351 5.89949C4.86351 5.90949 4.87001 5.91749 4.87701 5.91749H5.49551C5.50301 5.91749 5.50901 5.90949 5.50901 5.89949C5.50901 5.88949 5.50251 5.88149 5.49551 5.88149H4.87701Z" fill="black"/>
<path d="M5.50986 5.88099H4.86336C4.84436 5.88099 4.82886 5.86399 4.82886 5.84299C4.82886 5.82199 4.84436 5.80499 4.86336 5.80499H5.50986C5.52886 5.80499 5.54436 5.82199 5.54436 5.84299C5.54486 5.86399 5.52886 5.88099 5.50986 5.88099ZM4.86336 5.82499C4.85536 5.82499 4.84836 5.83349 4.84836 5.84299C4.84836 5.85249 4.85536 5.86099 4.86336 5.86099H5.50986C5.51786 5.86099 5.52486 5.85299 5.52486 5.84299C5.52486 5.83299 5.51786 5.82499 5.50986 5.82499H4.86336Z" fill="black"/>
<path d="M5.28897 6.18099H5.09447V6.17099H5.08447C5.08497 6.08599 5.12097 6.03799 5.15047 6.01299C5.15097 6.01299 5.17697 5.99149 5.18647 5.99299C5.19197 5.99249 5.28797 6.03799 5.28897 6.17099V6.18099ZM5.10447 6.16099H5.26847C5.26397 6.05999 5.20097 6.022 5.18497 6.0135C5.16997 6.0215 5.10897 6.05999 5.10447 6.16099Z" fill="black"/>
<path d="M5.52349 6.24402H4.84899C4.82949 6.24402 4.81299 6.22552 4.81299 6.20302C4.81299 6.18052 4.82899 6.16202 4.84899 6.16202H5.52349C5.54299 6.16202 5.55949 6.18052 5.55949 6.20302C5.55949 6.22602 5.54349 6.24402 5.52349 6.24402ZM4.84949 6.18202C4.84099 6.18202 4.83349 6.19152 4.83349 6.20302C4.83349 6.21452 4.84099 6.22402 4.84949 6.22402H5.52399C5.53249 6.22402 5.53999 6.21452 5.53999 6.20302C5.53999 6.19152 5.53249 6.18202 5.52399 6.18202H4.84949Z" fill="black"/>
<path d="M5.03486 6.18152L4.84937 6.18102L4.87837 5.91652L4.88087 5.90952L5.49486 5.90802L5.52687 6.18152H5.33986V6.17202C5.33586 5.98202 5.18686 5.94002 5.18536 5.93952C5.18586 5.94002 5.03636 5.96902 5.03486 6.17152V6.18152ZM5.35936 6.16152H5.50386L5.47636 5.92802L5.21336 5.92852C5.23086 5.93652 5.25437 5.95052 5.27687 5.97102C5.31237 6.00402 5.35486 6.06352 5.35936 6.16152ZM4.87137 6.16152L5.01537 6.16202C5.01887 6.05252 5.06536 5.99202 5.10436 5.96052C5.12236 5.94602 5.14086 5.93602 5.15636 5.92952L4.89637 5.93002L4.87137 6.16152Z" fill="black"/>
<path d="M6.99652 10.694C6.39302 10.694 5.82202 10.4575 5.38902 10.0285C4.95652 9.60002 4.71852 9.03402 4.71852 8.43552L4.73852 8.43352V8.43552C4.73852 9.02852 4.97452 9.58952 5.40302 10.014C5.83202 10.4395 6.39802 10.6735 6.99602 10.6735C7.59702 10.6735 8.16302 10.4405 8.58952 10.0175C9.01402 9.59652 9.24902 9.03852 9.25102 8.44552V8.43752V5.40252L4.74102 5.40202L4.73802 8.43402H4.71802L4.72102 5.38202L9.27102 5.38302V8.43852C9.27102 9.04002 9.03402 9.60602 8.60352 10.033C8.17402 10.459 7.60302 10.694 6.99652 10.694ZM6.99502 9.79952C6.64102 9.79952 6.30202 9.65652 6.03952 9.39602C5.78402 9.14252 5.63752 8.79402 5.63752 8.43952L5.63702 6.28802H5.64702L8.35452 6.29302L8.36052 6.29902V6.30302V8.24102L8.35902 8.44602C8.35902 8.50252 8.35552 8.56402 8.34952 8.61502C8.31402 8.91202 8.17852 9.18402 7.95902 9.40202C7.70102 9.65852 7.35852 9.79952 6.99502 9.79952ZM5.65702 6.30852L5.65752 8.44002C5.65752 8.78902 5.80202 9.13252 6.05352 9.38202C6.31202 9.63852 6.64602 9.77952 6.99452 9.77952C7.35252 9.77952 7.69002 9.64052 7.94452 9.38852C8.16102 9.17352 8.29452 8.90552 8.32952 8.61302C8.33552 8.56302 8.33902 8.50202 8.33902 8.44652L8.34052 8.24152V6.31352L5.65702 6.30852Z" fill="black"/>
<path d="M6.99895 10.7945C6.37495 10.7945 5.78095 10.5455 5.32595 10.094C4.87845 9.65 4.63095 9.0645 4.62745 8.4435L4.62695 5.27451L9.37845 5.28001V8.43201C9.37845 9.06151 9.13045 9.6545 8.68045 10.1015C8.22995 10.548 7.63295 10.7945 6.99895 10.7945ZM4.65345 8.41651V8.43001C4.65345 9.04901 4.89895 9.633 5.34445 10.075C5.79445 10.522 6.38195 10.768 6.99895 10.768C7.62595 10.768 8.21645 10.5245 8.66145 10.0825C9.10445 9.64301 9.34895 9.0605 9.35195 8.4415V8.43201V5.30651L4.65345 5.30101V8.41651Z" fill="black"/>
<path d="M7.12402 5.82449L7.12952 5.66699H7.30302L7.30902 5.82449H7.12402ZM7.14852 5.68649L7.14452 5.80449H7.28802L7.28352 5.68649H7.14852Z" fill="black"/>
<path d="M7.30239 5.6865H7.13039C7.11289 5.6865 7.09839 5.6725 7.09839 5.656V5.572L7.10539 5.5675H7.10839H7.16589V5.602H7.18089V5.5665L7.24989 5.567V5.602H7.26489V5.5665H7.33389V5.656C7.33389 5.673 7.31989 5.6865 7.30239 5.6865ZM7.11839 5.587V5.656C7.11839 5.6615 7.12439 5.667 7.13089 5.667H7.30289C7.30839 5.667 7.31439 5.6635 7.31439 5.6565V5.5865H7.28539V5.622H7.23039V5.5865H7.20139V5.622H7.14639V5.5875L7.11839 5.587Z" fill="black"/>
<path d="M6.88051 5.6865H6.70851C6.69101 5.6865 6.67651 5.6725 6.67651 5.656V5.572L6.68351 5.5675H6.68651H6.74401V5.602H6.75901V5.5665L6.82801 5.567V5.602H6.84301V5.5665H6.91201V5.656C6.91151 5.673 6.89801 5.6865 6.88051 5.6865ZM6.69601 5.587V5.656C6.69601 5.6615 6.70201 5.667 6.70851 5.667H6.88051C6.88601 5.667 6.89201 5.6635 6.89201 5.6565V5.5865H6.86301V5.622H6.80801V5.5865H6.77901V5.622H6.72401V5.5875L6.69601 5.587Z" fill="black"/>
<path d="M6.98855 5.63902C6.98755 5.61402 7.02355 5.61402 7.02305 5.63902V5.70002H6.98855V5.63902Z" fill="black"/>
<path d="M6.77637 5.72751C6.77637 5.70351 6.80987 5.70301 6.80937 5.72751V5.77451H6.77637V5.72751Z" fill="black"/>
<path d="M7.19995 5.72751C7.19995 5.70351 7.23345 5.70301 7.23295 5.72751V5.77451H7.19995V5.72751Z" fill="black"/>
<path d="M6.70142 5.82449L6.70692 5.66699H6.88041L6.88642 5.82449H6.70142ZM6.72592 5.68649L6.72192 5.80449H6.86542L6.86092 5.68649H6.72592Z" fill="black"/>
<path d="M7.10142 5.824L6.90942 5.8235L6.92142 5.548L7.08942 5.5485L7.10142 5.824ZM6.92992 5.8035L7.08042 5.804L7.07042 5.568L6.94042 5.5675L6.92992 5.8035Z" fill="black"/>
<path d="M7.09447 5.56099H6.91897C6.90147 5.56099 6.88647 5.54699 6.88647 5.53049V5.44649L6.89347 5.44199H6.89647H6.95547V5.47649H6.97097V5.44099H7.04097V5.47599H7.05697V5.44049H7.12697V5.52999C7.12597 5.54799 7.11247 5.56099 7.09447 5.56099ZM6.90597 5.46149V5.53049C6.90597 5.53599 6.91197 5.54149 6.91897 5.54149H7.09447C7.09997 5.54149 7.10647 5.53799 7.10647 5.53099V5.46099H7.07647V5.49649H7.02097V5.46149H6.99097V5.49699H6.93497V5.46249L6.90597 5.46149Z" fill="black"/>
<path d="M7.31435 5.93699H6.69585C6.67735 5.93699 6.66235 5.91999 6.66235 5.89899C6.66235 5.87799 6.67735 5.86099 6.69585 5.86099H7.31435C7.33285 5.86099 7.34785 5.87799 7.34785 5.89899C7.34785 5.91999 7.33285 5.93699 7.31435 5.93699ZM6.69585 5.88149C6.68835 5.88149 6.68235 5.88949 6.68235 5.89949C6.68235 5.90949 6.68885 5.91749 6.69585 5.91749H7.31435C7.32185 5.91749 7.32785 5.90949 7.32785 5.89949C7.32785 5.88949 7.32135 5.88149 7.31435 5.88149H6.69585Z" fill="black"/>
<path d="M7.32895 5.88099H6.68245C6.66345 5.88099 6.64795 5.86399 6.64795 5.84299C6.64795 5.82199 6.66345 5.80499 6.68245 5.80499H7.32895C7.34795 5.80499 7.36345 5.82199 7.36345 5.84299C7.36395 5.86399 7.34845 5.88099 7.32895 5.88099ZM6.68245 5.82499C6.67445 5.82499 6.66745 5.83349 6.66745 5.84299C6.66745 5.85249 6.67445 5.86099 6.68245 5.86099H7.32895C7.33695 5.86099 7.34395 5.85299 7.34395 5.84299C7.34395 5.83299 7.33695 5.82499 7.32895 5.82499H6.68245Z" fill="black"/>
<path d="M7.10806 6.18099H6.91356V6.17099H6.90356C6.90406 6.08599 6.94006 6.03799 6.96956 6.01299C6.97006 6.01299 6.99606 5.99149 7.00556 5.99299C7.01256 5.99299 7.10706 6.03849 7.10756 6.17099L7.10806 6.18099ZM6.92356 6.16099H7.08756C7.08306 6.05999 7.02006 6.022 7.00406 6.0135C6.98906 6.0215 6.92806 6.05999 6.92356 6.16099Z" fill="black"/>
<path d="M7.34234 6.24402H6.66784C6.64834 6.24402 6.63184 6.22552 6.63184 6.20302C6.63184 6.18052 6.64784 6.16202 6.66784 6.16202H7.34234C7.36184 6.16202 7.37834 6.18052 7.37834 6.20302C7.37834 6.22602 7.36234 6.24402 7.34234 6.24402ZM6.66834 6.18202C6.65984 6.18202 6.65234 6.19152 6.65234 6.20302C6.65234 6.21452 6.65984 6.22402 6.66834 6.22402H7.34284C7.35134 6.22402 7.35884 6.21452 7.35884 6.20302C7.35884 6.19152 7.35134 6.18202 7.34284 6.18202H6.66834Z" fill="black"/>
<path d="M6.85396 6.18152L6.66846 6.18102L6.69696 5.90952L7.31346 5.90802L7.34546 6.18152H7.15946V6.17202C7.15546 5.98202 7.00646 5.94002 7.00496 5.93952C7.00546 5.94002 6.85596 5.96902 6.85446 6.17152L6.85396 6.18152ZM7.17846 6.16152H7.32296L7.29546 5.92802L7.03246 5.92852C7.04996 5.93652 7.07346 5.95052 7.09596 5.97102C7.13146 6.00402 7.17396 6.06352 7.17846 6.16152ZM6.69046 6.16152L6.83446 6.16202C6.83796 6.05252 6.88446 5.99202 6.92346 5.96052C6.94146 5.94602 6.95996 5.93602 6.97546 5.92952L6.71546 5.93002L6.69046 6.16152Z" fill="black"/>
<path d="M8.33335 9.35651C8.35035 9.33951 8.32736 9.31551 8.31036 9.33351L8.27686 9.36651L8.29986 9.39001L8.33335 9.35651Z" fill="black"/>
<path d="M8.54554 9.4435C8.56404 9.4265 8.53904 9.401 8.52104 9.419L8.47754 9.462L8.50204 9.4865L8.54554 9.4435Z" fill="black"/>
<path d="M8.63194 9.65601C8.64894 9.63901 8.62594 9.61501 8.60894 9.63301L8.57544 9.66601L8.59844 9.68901L8.63194 9.65601Z" fill="black"/>
<path d="M8.43493 9.38652C8.42643 9.38652 8.41793 9.38352 8.41193 9.37702L8.29093 9.25552C8.27843 9.24302 8.27843 9.22402 8.29043 9.21202L8.35443 9.14902L8.40293 9.19752L8.37793 9.22252L8.38843 9.23302L8.41343 9.20802L8.46193 9.25652L8.43693 9.28152L8.44743 9.29202L8.47193 9.26752L8.51643 9.31202L8.51443 9.32002L8.45643 9.37752C8.45043 9.38352 8.44243 9.38652 8.43493 9.38652ZM8.35393 9.17652L8.30443 9.22552C8.29943 9.23052 8.30093 9.23702 8.30493 9.24102L8.42593 9.36252C8.43043 9.36702 8.43843 9.36752 8.44243 9.36352L8.49143 9.31502L8.47193 9.29552L8.44743 9.32002L8.40893 9.28152L8.43393 9.25652L8.41343 9.23602L8.38843 9.26102L8.34993 9.22202L8.37493 9.19702L8.35393 9.17652Z" fill="black"/>
<path d="M8.73255 9.68449C8.72405 9.68449 8.71555 9.68149 8.70905 9.67499L8.58805 9.55349C8.57555 9.54099 8.57555 9.52199 8.58755 9.50999L8.65155 9.44699L8.70005 9.49549L8.67505 9.52049L8.68555 9.53099L8.71055 9.50599L8.75905 9.55449L8.73405 9.57949L8.74455 9.58999L8.76905 9.56549L8.81255 9.60899V9.61749L8.75355 9.67599C8.74805 9.68199 8.74005 9.68449 8.73255 9.68449ZM8.65155 9.47499L8.60205 9.52399C8.59705 9.52899 8.59855 9.53549 8.60255 9.53949L8.72355 9.66099C8.72805 9.66549 8.73605 9.66599 8.74005 9.66199L8.78905 9.61349L8.76955 9.59399L8.74505 9.61849L8.70655 9.57999L8.73155 9.55499L8.71105 9.53449L8.68605 9.55949L8.64755 9.52049L8.67255 9.49549L8.65155 9.47499Z" fill="black"/>
<path d="M8.31799 9.47901L8.18799 9.34852L8.30449 9.24152L8.42649 9.36402L8.31799 9.47901ZM8.21649 9.34902L8.31749 9.45051L8.39899 9.36452L8.30399 9.26902L8.21649 9.34902Z" fill="black"/>
<path d="M8.61535 9.77751L8.48535 9.64701L8.59485 9.54651L8.60135 9.55351L8.60835 9.54651L8.61535 9.55351L8.72335 9.66201L8.61535 9.77751ZM8.51385 9.64701L8.61485 9.74851L8.69635 9.66251L8.60135 9.56701L8.51385 9.64701Z" fill="black"/>
<path d="M8.47047 9.62952L8.33447 9.49452L8.53897 9.30902L8.65797 9.42702L8.47047 9.62952ZM8.36347 9.49502L8.46997 9.60102L8.63047 9.42752L8.53847 9.33602L8.36347 9.49502Z" fill="black"/>
<path d="M8.67408 9.448C8.66558 9.448 8.65708 9.4445 8.65058 9.438L8.52708 9.314C8.52108 9.308 8.51758 9.2995 8.51758 9.291C8.51758 9.283 8.52108 9.2755 8.52658 9.27L8.59058 9.207L8.64008 9.2565L8.61508 9.2815L8.62608 9.2925L8.65108 9.2675L8.70058 9.317L8.67558 9.342L8.68658 9.353L8.71108 9.3285L8.75458 9.3725L8.75758 9.379L8.69608 9.4395C8.68958 9.4455 8.68158 9.448 8.67408 9.448ZM8.58958 9.235L8.54008 9.284C8.53808 9.286 8.53708 9.2885 8.53708 9.2885C8.53708 9.2945 8.53858 9.2975 8.54108 9.3L8.66458 9.424C8.66908 9.4285 8.67758 9.429 8.68158 9.4255L8.73058 9.377L8.71008 9.3565L8.68558 9.381L8.64658 9.3415L8.67158 9.3165L8.65008 9.2955L8.62508 9.3205L8.58608 9.281L8.61108 9.256L8.58958 9.235Z" fill="black"/>
<path d="M8.56197 9.86952C8.55347 9.86952 8.54547 9.86652 8.53947 9.86052L8.10397 9.42352C8.09797 9.41752 8.09497 9.41002 8.09497 9.40102C8.09497 9.39102 8.09947 9.38052 8.10697 9.37302C8.11397 9.36602 8.12297 9.36202 8.13197 9.36102C8.14197 9.36052 8.15097 9.36352 8.15747 9.37002L8.59297 9.80702C8.60597 9.82002 8.60447 9.84252 8.58997 9.85752C8.58197 9.86552 8.57147 9.86952 8.56197 9.86952ZM8.13497 9.38102C8.13447 9.38102 8.13397 9.38102 8.13347 9.38102C8.12897 9.38152 8.12447 9.38352 8.12097 9.38702C8.11697 9.39102 8.11447 9.39602 8.11447 9.40102C8.11447 9.40352 8.11497 9.40702 8.11747 9.40952L8.55297 9.84652C8.55797 9.85152 8.56847 9.85052 8.57547 9.84352C8.58247 9.83652 8.58397 9.82652 8.57847 9.82102L8.14297 9.38402C8.14047 9.38152 8.13697 9.38102 8.13497 9.38102Z" fill="black"/>
<path d="M8.6125 9.84C8.6035 9.84 8.595 9.837 8.589 9.8305L8.1335 9.3735C8.12 9.36 8.121 9.337 8.136 9.3225C8.1435 9.315 8.1535 9.311 8.1635 9.311C8.1725 9.311 8.181 9.31451 8.187 9.32051L8.6425 9.7775C8.656 9.791 8.655 9.814 8.64 9.8285C8.6325 9.836 8.6225 9.84 8.6125 9.84ZM8.1635 9.3305C8.1585 9.3305 8.1535 9.3325 8.15 9.3365C8.143 9.3435 8.142 9.354 8.1475 9.3595L8.603 9.8165C8.6085 9.822 8.6195 9.821 8.6265 9.8145C8.6335 9.8075 8.6345 9.797 8.629 9.7915L8.1735 9.3345C8.17 9.33101 8.1665 9.3305 8.1635 9.3305Z" fill="black"/>
<path d="M8.21944 9.88602L8.07544 9.74152L8.08244 9.73452C8.17844 9.64052 8.27544 9.67852 8.27944 9.68002L8.28194 9.68152C8.28694 9.68602 8.29194 9.70902 8.29244 9.72702C8.29394 9.76452 8.28394 9.82102 8.22594 9.87902L8.21944 9.88602ZM8.10394 9.74152L8.21944 9.85752C8.28944 9.78252 8.27344 9.71302 8.26794 9.69702C8.25044 9.69102 8.17844 9.67402 8.10394 9.74152Z" fill="black"/>
<path d="M8.36383 10.106C8.35483 10.106 8.34633 10.103 8.33983 10.0965L7.86483 9.61999C7.85083 9.60599 7.85283 9.58199 7.86883 9.56599C7.87633 9.55849 7.88583 9.55399 7.89583 9.55299C7.90633 9.55199 7.91633 9.55549 7.92333 9.56249L8.39833 10.039C8.41233 10.053 8.41033 10.077 8.39433 10.093C8.38533 10.1015 8.37433 10.106 8.36383 10.106ZM7.89933 9.57249C7.89883 9.57249 7.89833 9.57249 7.89783 9.57249C7.89233 9.57299 7.88733 9.57549 7.88283 9.57999C7.87483 9.58799 7.87283 9.59999 7.87883 9.60599L8.35383 10.0825C8.35983 10.0885 8.37183 10.087 8.37983 10.079C8.38783 10.071 8.38983 10.059 8.38383 10.053L7.90883 9.57649C7.90683 9.57399 7.90333 9.57249 7.89933 9.57249Z" fill="black"/>
<path d="M8.38496 10.052L8.25396 9.921L8.26096 9.914C8.40396 9.77 8.31996 9.644 8.31896 9.6425C8.31846 9.6425 8.18396 9.5675 8.04596 9.6985L8.03896 9.705L7.90796 9.5735L8.12546 9.4035L8.55796 9.8395L8.55246 9.8465L8.38496 10.052ZM8.28196 9.921L8.38346 10.0225L8.53096 9.8415L8.34846 9.6575C8.35446 9.673 8.36046 9.693 8.36296 9.7155C8.36746 9.7655 8.35746 9.841 8.28196 9.921ZM7.93746 9.5755L8.03896 9.6775C8.11246 9.6115 8.18546 9.6 8.23396 9.602C8.26396 9.6035 8.28996 9.61 8.30796 9.617L8.12296 9.4305L7.93746 9.5755Z" fill="black"/>
<path d="M8.61894 7.56351C8.61894 7.53951 8.58544 7.53901 8.58594 7.56351V7.61051H8.61894V7.56351Z" fill="black"/>
<path d="M9.04253 7.56351C9.04253 7.53951 9.00903 7.53901 9.00953 7.56351V7.61051H9.04253V7.56351Z" fill="black"/>
<path d="M8.8304 7.47502C8.8314 7.45002 8.7954 7.45002 8.7959 7.47502V7.53602H8.8304V7.47502Z" fill="black"/>
<path d="M8.68787 7.5225H8.51587C8.49787 7.5225 8.48438 7.5095 8.48438 7.492V7.4025H8.55338V7.438H8.56837V7.403L8.63737 7.4025V7.438H8.65237V7.4035H8.71287L8.71987 7.408V7.492C8.72037 7.5085 8.70537 7.5225 8.68787 7.5225ZM8.50488 7.422V7.492C8.50488 7.4995 8.51088 7.5025 8.51638 7.5025H8.68837C8.69487 7.5025 8.70087 7.4975 8.70087 7.4915V7.4225H8.67287V7.457H8.61787V7.4215H8.58887V7.457H8.53388V7.4215L8.50488 7.422Z" fill="black"/>
<path d="M9.11048 7.5225H8.93848C8.92098 7.5225 8.90698 7.509 8.90698 7.492V7.4025H8.97598V7.438H8.99098V7.403L9.05998 7.4025V7.438H9.07498V7.4035H9.13548L9.14248 7.408V7.492C9.14248 7.5085 9.12798 7.5225 9.11048 7.5225ZM8.92698 7.422V7.492C8.92698 7.4995 8.93298 7.5025 8.93848 7.5025H9.11048C9.11698 7.5025 9.12298 7.4975 9.12298 7.4915V7.4225H9.09498V7.457H9.03998V7.4215H9.01098V7.457H8.95598V7.4215L8.92698 7.422Z" fill="black"/>
<path d="M8.69501 7.66049H8.51001L8.51601 7.50299H8.68951L8.69501 7.66049ZM8.53101 7.64049H8.67451L8.67051 7.52249H8.53551L8.53101 7.64049Z" fill="black"/>
<path d="M9.11737 7.66049H8.93237L8.93837 7.50299H9.11187L9.11737 7.66049ZM8.95287 7.64049H9.09637L9.09237 7.52249H8.95737L8.95287 7.64049Z" fill="black"/>
<path d="M8.71753 7.66L8.72953 7.3845L8.89753 7.384L8.90953 7.6595L8.71753 7.66ZM8.74853 7.404L8.73853 7.64L8.88903 7.6395L8.87853 7.4035L8.74853 7.404Z" fill="black"/>
<path d="M8.89988 7.3975H8.72438C8.70638 7.3975 8.69238 7.3845 8.69238 7.367V7.2775H8.76238V7.313H8.77838V7.278H8.84838V7.3135H8.86388V7.279H8.92588L8.93288 7.2835V7.3675C8.93288 7.383 8.91788 7.3975 8.89988 7.3975ZM8.71238 7.297V7.367C8.71238 7.3745 8.71838 7.3775 8.72438 7.3775H8.89988C8.90638 7.3775 8.91238 7.372 8.91288 7.3665V7.2975H8.88388V7.332H8.82838V7.2965H8.79838V7.3315H8.74288V7.296H8.71238V7.297Z" fill="black"/>
<path d="M9.12295 7.77299H8.50445C8.48595 7.77299 8.47095 7.75599 8.47095 7.73499C8.47095 7.71399 8.48595 7.69699 8.50445 7.69699H9.12295C9.14145 7.69699 9.15645 7.71399 9.15645 7.73499C9.15645 7.75599 9.14145 7.77299 9.12295 7.77299ZM8.50445 7.71749C8.49695 7.71749 8.49095 7.72549 8.49095 7.73549C8.49095 7.74549 8.49745 7.75349 8.50445 7.75349H9.12295C9.13045 7.75349 9.13645 7.74549 9.13645 7.73549C9.13645 7.72549 9.12995 7.71749 9.12295 7.71749H8.50445Z" fill="black"/>
<path d="M9.13657 7.71699H8.49007C8.47107 7.71699 8.45557 7.69999 8.45557 7.67899C8.45557 7.65799 8.47107 7.64099 8.49007 7.64099H9.13657C9.15557 7.64099 9.17107 7.65799 9.17107 7.67899C9.17107 7.69999 9.15557 7.71699 9.13657 7.71699ZM8.49007 7.66099C8.48207 7.66099 8.47507 7.66949 8.47507 7.67899C8.47507 7.68849 8.48207 7.69699 8.49007 7.69699H9.13657C9.14457 7.69699 9.15157 7.68899 9.15157 7.67899C9.15157 7.66899 9.14457 7.66099 9.13657 7.66099H8.49007Z" fill="black"/>
<path d="M8.91544 8.017H8.71094V8.007C8.71194 7.874 8.80644 7.8285 8.81494 7.8285C8.82294 7.8275 8.84894 7.8485 8.84944 7.849C8.87944 7.874 8.91494 7.922 8.91544 8.007V8.017ZM8.73144 7.997H8.89544C8.89094 7.895 8.82944 7.857 8.81494 7.8495C8.80194 7.856 8.73594 7.8935 8.73144 7.997Z" fill="black"/>
<path d="M9.15044 8.08001H8.47594C8.45644 8.08001 8.43994 8.06151 8.43994 8.03901C8.43994 8.01652 8.45594 7.99802 8.47594 7.99802H9.15044C9.16994 7.99802 9.18644 8.01652 9.18644 8.03901C9.18644 8.06201 9.17044 8.08001 9.15044 8.08001ZM8.47644 8.01802C8.46794 8.01802 8.46044 8.02752 8.46044 8.03901C8.46044 8.05051 8.46794 8.06002 8.47644 8.06002H9.15094C9.15944 8.06002 9.16694 8.05051 9.16694 8.03901C9.16694 8.02752 9.15944 8.01802 9.15094 8.01802H8.47644Z" fill="black"/>
<path d="M8.96488 8.01752V8.00752C8.96338 7.80502 8.81388 7.77552 8.81238 7.77552C8.81288 7.77552 8.66388 7.81752 8.65988 8.00752V8.01702H8.47388L8.50588 7.74402L9.12238 7.74552V7.75452L9.15088 8.01652L8.96488 8.01752ZM8.49588 7.99752H8.64038C8.64488 7.89952 8.68738 7.84002 8.72338 7.80702C8.74588 7.78652 8.76938 7.77252 8.78688 7.76452L8.52388 7.76402L8.49588 7.99752ZM8.84338 7.76502C8.85888 7.77152 8.87738 7.78152 8.89538 7.79602C8.93438 7.82752 8.98088 7.88802 8.98438 7.99752L9.12838 7.99702L9.10338 7.76502H8.84338Z" fill="black"/>
<path d="M8.61894 5.72751C8.61894 5.70351 8.58544 5.70301 8.58594 5.72751V5.77451H8.61894V5.72751Z" fill="black"/>
<path d="M8.8304 5.63902C8.8314 5.61402 8.7954 5.61402 8.7959 5.63902V5.70002H8.8304V5.63902Z" fill="black"/>
<path d="M9.04253 5.72751C9.04253 5.70351 9.00903 5.70301 9.00953 5.72751V5.77451H9.04253V5.72751Z" fill="black"/>
<path d="M8.68787 5.6865H8.51587C8.49837 5.6865 8.48438 5.673 8.48438 5.656V5.5665H8.55338V5.602H8.56837V5.567L8.63737 5.5665V5.602H8.65237V5.5675H8.71287L8.71987 5.572V5.656C8.72037 5.6725 8.70537 5.6865 8.68787 5.6865ZM8.50488 5.586V5.656C8.50488 5.6635 8.51088 5.6665 8.51638 5.6665H8.68837C8.69487 5.6665 8.70087 5.6615 8.70087 5.6555V5.5865H8.67287V5.621H8.61787V5.5855H8.58887V5.621H8.53388V5.5855L8.50488 5.586Z" fill="black"/>
<path d="M9.11048 5.6865H8.93848C8.92098 5.6865 8.90698 5.673 8.90698 5.656V5.5665H8.97598V5.602H8.99098V5.567L9.05998 5.5665V5.602H9.07498V5.5675H9.13548L9.14248 5.572V5.656C9.14248 5.6725 9.12798 5.6865 9.11048 5.6865ZM8.92698 5.586V5.656C8.92698 5.6635 8.93298 5.6665 8.93848 5.6665H9.11048C9.11698 5.6665 9.12298 5.6615 9.12298 5.6555V5.5865H9.09498V5.621H9.03998V5.5855H9.01098V5.621H8.95598V5.5855L8.92698 5.586Z" fill="black"/>
<path d="M8.69501 5.82449H8.51001L8.51601 5.66699H8.68951L8.69501 5.82449ZM8.53101 5.80449H8.67451L8.67051 5.68649H8.53551L8.53101 5.80449Z" fill="black"/>
<path d="M9.11737 5.82449H8.93237L8.93837 5.66699H9.11187L9.11737 5.82449ZM8.95287 5.80449H9.09637L9.09237 5.68649H8.95737L8.95287 5.80449Z" fill="black"/>
<path d="M8.71753 5.824L8.72953 5.5485L8.89753 5.548L8.90953 5.8235L8.71753 5.824ZM8.74853 5.568L8.73853 5.804L8.88903 5.8035L8.87853 5.5675L8.74853 5.568Z" fill="black"/>
<path d="M8.89988 5.56101H8.72438C8.70638 5.56101 8.69238 5.54801 8.69238 5.53051V5.44101H8.76238V5.47651H8.77838V5.44151H8.84838V5.47701H8.86388V5.44251H8.92588L8.93288 5.44701V5.53101C8.93288 5.54701 8.91788 5.56101 8.89988 5.56101ZM8.71238 5.46101V5.53101C8.71238 5.53851 8.71838 5.54151 8.72438 5.54151H8.89988C8.90638 5.54151 8.91238 5.53601 8.91288 5.53051V5.46151H8.88388V5.49601H8.82838V5.46051H8.79838V5.49551H8.74288V5.46001H8.71238V5.46101Z" fill="black"/>
<path d="M9.13657 5.88099H8.49007C8.47107 5.88099 8.45557 5.86399 8.45557 5.84299C8.45557 5.82199 8.47107 5.80499 8.49007 5.80499H9.13657C9.15557 5.80499 9.17107 5.82199 9.17107 5.84299C9.17107 5.86399 9.15557 5.88099 9.13657 5.88099ZM8.49007 5.82499C8.48207 5.82499 8.47507 5.83349 8.47507 5.84299C8.47507 5.85249 8.48207 5.86099 8.49007 5.86099H9.13657C9.14457 5.86099 9.15157 5.85299 9.15157 5.84299C9.15157 5.83299 9.14457 5.82499 9.13657 5.82499H8.49007Z" fill="black"/>
<path d="M9.12295 5.93699H8.50445C8.48595 5.93699 8.47095 5.91999 8.47095 5.89899C8.47095 5.87799 8.48595 5.86099 8.50445 5.86099H9.12295C9.14145 5.86099 9.15645 5.87799 9.15645 5.89899C9.15645 5.91999 9.14145 5.93699 9.12295 5.93699ZM8.50445 5.88149C8.49695 5.88149 8.49095 5.88949 8.49095 5.89949C8.49095 5.90949 8.49745 5.91749 8.50445 5.91749H9.12295C9.13045 5.91749 9.13645 5.90949 9.13645 5.89949C9.13645 5.88949 9.12995 5.88149 9.12295 5.88149H8.50445Z" fill="black"/>
<path d="M8.91544 6.18102H8.71094V6.17102C8.71194 6.03802 8.80644 5.99302 8.81494 5.99302C8.82294 5.99202 8.84894 6.01302 8.84944 6.01352C8.87944 6.03852 8.91494 6.08652 8.91544 6.17152V6.18102ZM8.73144 6.16102H8.89544C8.89094 6.05902 8.82944 6.02102 8.81494 6.01352C8.80194 6.02002 8.73594 6.05752 8.73144 6.16102Z" fill="black"/>
<path d="M9.15044 6.24402H8.47594C8.45644 6.24402 8.43994 6.22552 8.43994 6.20302C8.43994 6.18052 8.45594 6.16202 8.47594 6.16202H9.15044C9.16994 6.16202 9.18644 6.18052 9.18644 6.20302C9.18644 6.22602 9.17044 6.24402 9.15044 6.24402ZM8.47644 6.18202C8.46794 6.18202 8.46044 6.19152 8.46044 6.20302C8.46044 6.21452 8.46794 6.22402 8.47644 6.22402H9.15094C9.15944 6.22402 9.16694 6.21452 9.16694 6.20302C9.16694 6.19152 9.15944 6.18202 9.15094 6.18202H8.47644Z" fill="black"/>
<path d="M8.96488 6.18152V6.17152C8.96338 5.96902 8.81388 5.93952 8.81238 5.93952C8.81288 5.93952 8.66388 5.98152 8.65988 6.17202V6.18152H8.47388L8.50588 5.90802L9.12238 5.90952V5.91852L9.15088 6.18052L8.96488 6.18152ZM8.49588 6.16152H8.64038C8.64488 6.06352 8.68788 6.00402 8.72338 5.97102C8.74588 5.95052 8.76938 5.93652 8.78688 5.92852L8.52388 5.92802L8.49588 6.16152ZM8.84338 5.92902C8.85888 5.93552 8.87738 5.94552 8.89538 5.96002C8.93438 5.99152 8.98088 6.05202 8.98438 6.16152L9.12838 6.16102L9.10338 5.92902H8.84338Z" fill="black"/>
<path d="M6.71194 7.662L6.71094 8.0885C6.71094 8.176 6.74494 8.256 6.79894 8.314C6.85344 8.372 6.92794 8.408 7.00994 8.408C7.09244 8.408 7.16694 8.372 7.22094 8.314C7.27494 8.256 7.30844 8.1765 7.30844 8.0885V7.6615L6.71194 7.662ZM6.84794 8.2075C6.81544 8.2075 6.78894 8.181 6.78894 8.1485C6.78894 8.116 6.81544 8.0895 6.84794 8.0895C6.88044 8.0895 6.90694 8.116 6.90694 8.1485C6.90694 8.181 6.88044 8.2075 6.84794 8.2075ZM6.84794 7.883C6.81544 7.883 6.78894 7.8565 6.78894 7.824C6.78894 7.7915 6.81544 7.765 6.84794 7.765C6.88044 7.765 6.90694 7.7915 6.90694 7.824C6.90694 7.8565 6.88044 7.883 6.84794 7.883ZM7.01294 8.0415C6.98044 8.0415 6.95394 8.015 6.95394 7.9825C6.95394 7.95 6.98044 7.9235 7.01294 7.9235C7.04544 7.9235 7.07194 7.95 7.07194 7.9825C7.07194 8.015 7.04544 8.0415 7.01294 8.0415ZM7.17844 8.207C7.14594 8.207 7.11944 8.1805 7.11944 8.148C7.11944 8.1155 7.14594 8.089 7.17844 8.089C7.21094 8.089 7.23744 8.1155 7.23744 8.148C7.23744 8.1805 7.21094 8.207 7.17844 8.207ZM7.17894 7.8835C7.14644 7.8835 7.11994 7.857 7.11994 7.8245C7.11994 7.792 7.14644 7.7655 7.17894 7.7655C7.21144 7.7655 7.23794 7.792 7.23794 7.8245C7.23794 7.857 7.21144 7.8835 7.17894 7.8835Z" fill="#003399"/>
<path d="M6.71194 6.63049L6.71094 7.05749C6.71094 7.14499 6.74494 7.22499 6.79894 7.28299C6.85344 7.34099 6.92794 7.37749 7.00994 7.37749C7.09244 7.37749 7.16694 7.34149 7.22094 7.28349C7.27494 7.22549 7.30844 7.14599 7.30844 7.05799V6.63099L6.71194 6.63049ZM6.84794 7.17599C6.81544 7.17599 6.78894 7.14949 6.78894 7.11699C6.78894 7.08449 6.81544 7.05799 6.84794 7.05799C6.88044 7.05799 6.90694 7.08449 6.90694 7.11699C6.90694 7.14999 6.88044 7.17599 6.84794 7.17599ZM6.84794 6.85199C6.81544 6.85199 6.78894 6.82549 6.78894 6.79299C6.78894 6.76049 6.81544 6.73399 6.84794 6.73399C6.88044 6.73399 6.90694 6.76049 6.90694 6.79299C6.90694 6.82549 6.88044 6.85199 6.84794 6.85199ZM7.01294 7.01049C6.98044 7.01049 6.95394 6.98399 6.95394 6.95149C6.95394 6.91899 6.98044 6.89249 7.01294 6.89249C7.04544 6.89249 7.07194 6.91899 7.07194 6.95149C7.07194 6.98399 7.04544 7.01049 7.01294 7.01049ZM7.17844 7.17549C7.14594 7.17549 7.11944 7.14899 7.11944 7.11649C7.11944 7.08399 7.14594 7.05749 7.17844 7.05749C7.21094 7.05749 7.23744 7.08399 7.23744 7.11649C7.23744 7.14949 7.21094 7.17549 7.17844 7.17549ZM7.17894 6.85199C7.14644 6.85199 7.11994 6.82549 7.11994 6.79299C7.11994 6.76049 7.14644 6.73399 7.17894 6.73399C7.21144 6.73399 7.23794 6.76049 7.23794 6.79299C7.23794 6.82549 7.21144 6.85199 7.17894 6.85199Z" fill="#003399"/>
<path d="M5.88454 7.662L5.88354 8.0885C5.88354 8.176 5.91755 8.256 5.97155 8.314C6.02604 8.372 6.10054 8.408 6.18254 8.408C6.26454 8.408 6.33954 8.372 6.39354 8.314C6.44754 8.256 6.48104 8.1765 6.48104 8.0885V7.6615L5.88454 7.662ZM6.02005 8.2075C5.98755 8.2075 5.96105 8.181 5.96105 8.1485C5.96105 8.116 5.98755 8.0895 6.02005 8.0895C6.05255 8.0895 6.07904 8.116 6.07904 8.1485C6.07904 8.181 6.05305 8.2075 6.02005 8.2075ZM6.02005 7.883C5.98755 7.883 5.96105 7.8565 5.96105 7.824C5.96105 7.7915 5.98755 7.765 6.02005 7.765C6.05255 7.765 6.07904 7.7915 6.07904 7.824C6.07954 7.8565 6.05305 7.883 6.02005 7.883ZM6.18554 8.0415C6.15304 8.0415 6.12654 8.015 6.12654 7.9825C6.12654 7.95 6.15304 7.9235 6.18554 7.9235C6.21804 7.9235 6.24454 7.95 6.24454 7.9825C6.24454 8.015 6.21804 8.0415 6.18554 8.0415ZM6.35104 8.207C6.31854 8.207 6.29204 8.1805 6.29204 8.148C6.29204 8.1155 6.31854 8.089 6.35104 8.089C6.38354 8.089 6.41004 8.1155 6.41004 8.148C6.41004 8.1805 6.38354 8.207 6.35104 8.207ZM6.35104 7.8835C6.31854 7.8835 6.29204 7.857 6.29204 7.8245C6.29204 7.792 6.31854 7.7655 6.35104 7.7655C6.38354 7.7655 6.41004 7.792 6.41004 7.8245C6.41054 7.857 6.38404 7.8835 6.35104 7.8835Z" fill="#003399"/>
<path d="M7.53762 7.662L7.53662 8.0885C7.53662 8.176 7.57062 8.256 7.62462 8.314C7.67912 8.372 7.75362 8.408 7.83562 8.408C7.91812 8.408 7.99262 8.372 8.04662 8.314C8.10062 8.256 8.13412 8.1765 8.13412 8.0885V7.6615L7.53762 7.662ZM7.67362 8.2075C7.64112 8.2075 7.61462 8.181 7.61462 8.1485C7.61462 8.116 7.64112 8.0895 7.67362 8.0895C7.70612 8.0895 7.73262 8.116 7.73262 8.1485C7.73262 8.181 7.70612 8.2075 7.67362 8.2075ZM7.67362 7.883C7.64112 7.883 7.61462 7.8565 7.61462 7.824C7.61462 7.7915 7.64112 7.765 7.67362 7.765C7.70612 7.765 7.73262 7.7915 7.73262 7.824C7.73262 7.8565 7.70612 7.883 7.67362 7.883ZM7.83862 8.0415C7.80612 8.0415 7.77962 8.015 7.77962 7.9825C7.77962 7.95 7.80612 7.9235 7.83862 7.9235C7.87112 7.9235 7.89762 7.95 7.89762 7.9825C7.89762 8.015 7.87112 8.0415 7.83862 8.0415ZM8.00412 8.207C7.97162 8.207 7.94512 8.1805 7.94512 8.148C7.94512 8.1155 7.97162 8.089 8.00412 8.089C8.03662 8.089 8.06312 8.1155 8.06312 8.148C8.06312 8.1805 8.03662 8.207 8.00412 8.207ZM8.00462 7.8835C7.97212 7.8835 7.94562 7.857 7.94562 7.8245C7.94562 7.792 7.97212 7.7655 8.00462 7.7655C8.03712 7.7655 8.06362 7.792 8.06362 7.8245C8.06362 7.857 8.03712 7.8835 8.00462 7.8835Z" fill="#003399"/>
<path d="M6.71194 8.68399L6.71094 9.11099C6.71094 9.19849 6.74494 9.27849 6.79894 9.33649C6.85344 9.39449 6.92794 9.43099 7.00994 9.43099C7.09244 9.43099 7.16694 9.39499 7.22094 9.33699C7.27494 9.27899 7.30844 9.19949 7.30844 9.11149V8.68449L6.71194 8.68399ZM6.84794 9.22949C6.81544 9.22949 6.78894 9.20299 6.78894 9.17049C6.78894 9.13799 6.81544 9.11149 6.84794 9.11149C6.88044 9.11149 6.90694 9.13799 6.90694 9.17049C6.90694 9.20299 6.88044 9.22949 6.84794 9.22949ZM6.84794 8.90499C6.81544 8.90499 6.78894 8.87849 6.78894 8.84599C6.78894 8.81349 6.81544 8.78699 6.84794 8.78699C6.88044 8.78699 6.90694 8.81349 6.90694 8.84599C6.90694 8.87849 6.88044 8.90499 6.84794 8.90499ZM7.01294 9.06349C6.98044 9.06349 6.95394 9.03699 6.95394 9.00449C6.95394 8.97199 6.98044 8.94549 7.01294 8.94549C7.04544 8.94549 7.07194 8.97199 7.07194 9.00449C7.07194 9.03699 7.04544 9.06349 7.01294 9.06349ZM7.17844 9.22899C7.14594 9.22899 7.11944 9.20249 7.11944 9.16999C7.11944 9.13749 7.14594 9.11099 7.17844 9.11099C7.21094 9.11099 7.23744 9.13749 7.23744 9.16999C7.23744 9.20249 7.21094 9.22899 7.17844 9.22899ZM7.17894 8.90549C7.14644 8.90549 7.11994 8.87899 7.11994 8.84649C7.11994 8.81399 7.14644 8.78749 7.17894 8.78749C7.21144 8.78749 7.23794 8.81399 7.23794 8.84649C7.23794 8.87899 7.21144 8.90549 7.17894 8.90549Z" fill="#003399"/>
</g>
</g>
<defs>
<clipPath id="clip0">
<rect width="24" height="24" fill="white" transform="translate(-3 -4)"/>
</clipPath>
</defs>
</svg>
