<svg width="16" height="16" viewBox="0 0 16 16" fill="none" xmlns="http://www.w3.org/2000/svg">
<mask id="mask0" mask-type="alpha" maskUnits="userSpaceOnUse" x="0" y="0" width="16" height="16">
<rect width="16" height="16" rx="8" fill="#C4C4C4"/>
</mask>
<g mask="url(#mask0)">
<path d="M19.9166 0.416672H-3.91675V15.5833H19.9166V0.416672Z" fill="#3F51B5"/>
<path d="M-3.91675 2.70034L7.35534 9.5898L9.05021 6.81646L-1.42075 0.416672H-3.91675V2.70034Z" fill="white"/>
<path d="M19.9165 0.416672H17.9616L7.49121 6.81592L9.18554 9.5898L19.9165 3.03076V0.416672Z" fill="white"/>
<path d="M9.18554 5.98013L7.49121 8.75347L18.6658 15.5833H19.9165V12.5386L9.18554 5.98013Z" fill="white"/>
<path d="M-3.91675 12.8701V15.5833H-2.12383L9.05021 8.75401L7.35588 5.98013L-3.91675 12.8701Z" fill="white"/>
<path d="M19.9166 5.83334H-3.91675V10.1667H19.9166V5.83334Z" fill="white"/>
<path d="M10.1666 0.416672H5.83325V15.5833H10.1666V0.416672Z" fill="white"/>
<path d="M4.32634 5.83336L-3.91675 0.795319V2.06499L2.2485 5.83336H4.32634Z" fill="#E53935"/>
<path d="M19.0007 0.416672L10.1379 5.83334H12.2152L19.9166 1.1268V0.416672H19.0007Z" fill="#E53935"/>
<path d="M12.9194 10.1667L19.9167 14.4431V13.1735L14.9967 10.1667H12.9194Z" fill="#E53935"/>
<path d="M3.62217 10.1667L-3.91675 14.7741V15.5833H-3.16275L5.69946 10.1667H3.62217Z" fill="#E53935"/>
<path d="M19.9166 6.91667H-3.91675V9.08334H19.9166V6.91667Z" fill="#E53935"/>
<path d="M9.08317 0.416672H6.9165V15.5833H9.08317V0.416672Z" fill="#E53935"/>
</g>
</svg>
